<?xml version="1.0" encoding="UTF-8"?>
<svg version="1.1" xmlns="http://www.w3.org/2000/svg" width="553" height="356">
<path d="M0 0 C2.31 0.33 4.62 0.66 7 1 C7 4.97929097 6.35474895 7.3120723 5 11 C4.71125 11.928125 4.4225 12.85625 4.125 13.8125 C3 16 3 16 0.875 16.8125 C-0.053125 16.9053125 -0.053125 16.9053125 -1 17 C-1 17.99 -1 18.98 -1 20 C-0.34 20 0.32 20 1 20 C1 21.32 1 22.64 1 24 C1.66 24 2.32 24 3 24 C3.05849554 27.20825562 3.09376162 30.41637233 3.125 33.625 C3.14175781 34.52863281 3.15851563 35.43226563 3.17578125 36.36328125 C3.21201643 41.32750152 2.96444146 45.34411907 1 50 C0.34 50 -0.32 50 -1 50 C-1 50.66 -1 51.32 -1 52 C-1.66 52 -2.32 52 -3 52 C-3 52.66 -3 53.32 -3 54 C-3.66 54 -4.32 54 -5 54 C-5 54.66 -5 55.32 -5 56 C-5.99 56.495 -5.99 56.495 -7 57 C-7.33 57.99 -7.66 58.98 -8 60 C-7.34 60 -6.68 60 -6 60 C-6 60.66 -6 61.32 -6 62 C-5.01 62 -4.02 62 -3 62 C-2.01 64.475 -2.01 64.475 -1 67 C-0.34 67 0.32 67 1 67 C1 68.32 1 69.64 1 71 C1.66 71 2.32 71 3 71 C3 72.98 3 74.96 3 77 C4.485 77.495 4.485 77.495 6 78 C6 82.62 6 87.24 6 92 C4.515 92.495 4.515 92.495 3 93 C3 94.98 3 96.96 3 99 C2.34 99 1.68 99 1 99 C0.34 100.98 -0.32 102.96 -1 105 C-1.66 105 -2.32 105 -3 105 C-3.495 106.485 -3.495 106.485 -4 108 C-4.66 108 -5.32 108 -6 108 C-6 108.66 -6 109.32 -6 110 C-7.32 110 -8.64 110 -10 110 C-10 110.66 -10 111.32 -10 112 C-13.4352048 114.29013653 -14.985331 114.17842973 -19 114 C-19 114.66 -19 115.32 -19 116 C-26.92 116 -34.84 116 -43 116 C-43 115.34 -43 114.68 -43 114 C-45.31 114 -47.62 114 -50 114 C-50 113.34 -50 112.68 -50 112 C-50.99 112 -51.98 112 -53 112 C-53 111.34 -53 110.68 -53 110 C-53.99 110 -54.98 110 -56 110 C-56 109.34 -56 108.68 -56 108 C-56.99 107.67 -57.98 107.34 -59 107 C-59 106.34 -59 105.68 -59 105 C-59.66 105 -60.32 105 -61 105 C-61 104.34 -61 103.68 -61 103 C-61.66 103 -62.32 103 -63 103 C-63 102.34 -63 101.68 -63 101 C-63.66 101 -64.32 101 -65 101 C-65 100.34 -65 99.68 -65 99 C-65.66 99 -66.32 99 -67 99 C-67.495 96.03 -67.495 96.03 -68 93 C-66.515 92.505 -66.515 92.505 -65 92 C-65 91.34 -65 90.68 -65 90 C-63.68 90 -62.36 90 -61 90 C-61 89.34 -61 88.68 -61 88 C-59.02 88 -57.04 88 -55 88 C-54.67 89.32 -54.34 90.64 -54 92 C-53.34 92 -52.68 92 -52 92 C-52 92.66 -52 93.32 -52 94 C-51.34 94 -50.68 94 -50 94 C-50 94.66 -50 95.32 -50 96 C-49.01 96 -48.02 96 -47 96 C-45.3125 97.375 -45.3125 97.375 -44 99 C-44 99.66 -44 100.32 -44 101 C-42.02 101 -40.04 101 -38 101 C-38 101.66 -38 102.32 -38 103 C-33.38 103 -28.76 103 -24 103 C-24 102.34 -24 101.68 -24 101 C-23.113125 100.773125 -22.22625 100.54625 -21.3125 100.3125 C-17.53598615 98.81614546 -15.69461792 96.99401991 -13 94 C-12.34 93.34 -11.68 92.68 -11 92 C-10.3574765 89.93125966 -10.3574765 89.93125966 -10 88 C-9.34 88 -8.68 88 -8 88 C-8.4467967 82.72779892 -8.98561394 79.45604896 -12 75 C-12 74.34 -12 73.68 -12 73 C-12.66 73 -13.32 73 -14 73 C-14 72.34 -14 71.68 -14 71 C-14.66 71 -15.32 71 -16 71 C-16.66 70.01 -17.32 69.02 -18 68 C-20.05925139 67.27617533 -20.05925139 67.27617533 -22 67 C-22 66.34 -22 65.68 -22 65 C-27.94 65 -33.88 65 -40 65 C-40 65.66 -40 66.32 -40 67 C-41.98 67 -43.96 67 -46 67 C-46 67.66 -46 68.32 -46 69 C-47.98 69 -49.96 69 -52 69 C-53.125 64.25 -53.125 64.25 -52 62 C-51.34 62 -50.68 62 -50 62 C-50.99456549 58.13224533 -52.37585177 56.55108733 -55.625 54.4375 C-56.25664063 54.06496094 -56.88828125 53.69242188 -57.5390625 53.30859375 C-58.02117187 52.87675781 -58.50328125 52.44492188 -59 52 C-59 50.68 -59 49.36 -59 48 C-59.66 48 -60.32 48 -61 48 C-63.54748246 43.15577153 -63.22816428 38.50839624 -63.125 33.1875 C-63.11597656 32.30384766 -63.10695313 31.42019531 -63.09765625 30.50976562 C-63.07419637 28.33972641 -63.03832865 26.16982753 -63 24 C-62.34 24 -61.68 24 -61 24 C-61 22.68 -61 21.36 -61 20 C-60.34 20 -59.68 20 -59 20 C-58.67 18.35 -58.34 16.7 -58 15 C-57.34 15 -56.68 15 -56 15 C-56 14.34 -56 13.68 -56 13 C-55.34 13 -54.68 13 -54 13 C-54 12.34 -54 11.68 -54 11 C-53.01 11 -52.02 11 -51 11 C-51 10.34 -51 9.68 -51 9 C-50.01 9 -49.02 9 -48 9 C-48 8.34 -48 7.68 -48 7 C-43.85575477 5.05069918 -40.24353459 4.62226218 -35.6875 4.375 C-34.99906006 4.33632812 -34.31062012 4.29765625 -33.60131836 4.2578125 C-27.72277852 3.95959193 -21.85001936 3.93385401 -15.96557617 4.03662109 C-14.31048782 4.05880895 -12.65488625 4.03407745 -11 4 C-10.67 3.67 -10.34 3.34 -10 3 C-7.68047431 2.71898054 -5.36114486 2.55217375 -3.03125 2.37890625 C-2.3609375 2.25386719 -1.690625 2.12882812 -1 2 C-0.67 1.34 -0.34 0.68 0 0 Z M-39 18 C-39 18.66 -39 19.32 -39 20 C-39.99 20 -40.98 20 -42 20 C-42 20.66 -42 21.32 -42 22 C-43.32 22 -44.64 22 -46 22 C-46 22.66 -46 23.32 -46 24 C-46.66 24 -47.32 24 -48 24 C-49.85131483 27.92857754 -50.22004943 30.98775112 -50.125 35.3125 C-50.10695313 36.38113281 -50.08890625 37.44976562 -50.0703125 38.55078125 C-50.04710938 39.35902344 -50.02390625 40.16726562 -50 41 C-49.34 41 -48.68 41 -48 41 C-48 41.66 -48 42.32 -48 43 C-47.34 43 -46.68 43 -46 43 C-46 43.66 -46 44.32 -46 45 C-45.34 45 -44.68 45 -44 45 C-44 45.66 -44 46.32 -44 47 C-43.34 47 -42.68 47 -42 47 C-42 47.66 -42 48.32 -42 49 C-38.25457268 51.84541706 -35.46044051 52.38755991 -30.8125 52.3125 C-29.24435547 52.30669922 -29.24435547 52.30669922 -27.64453125 52.30078125 C-24.84528565 52.26039765 -24.84528565 52.26039765 -23 50 C-22.175 49.87625 -21.35 49.7525 -20.5 49.625 C-17.83529804 49.26352314 -17.83529804 49.26352314 -16.6875 46.9375 C-16.460625 46.298125 -16.23375 45.65875 -16 45 C-15.34 45 -14.68 45 -14 45 C-14 44.34 -14 43.68 -14 43 C-13.34 43 -12.68 43 -12 43 C-9.50428415 39.25642623 -9.55315412 35.33956093 -10 31 C-10.88214887 28.11785113 -10.88214887 28.11785113 -12 26 C-12.66 26 -13.32 26 -14 26 C-14 25.34 -14 24.68 -14 24 C-14.66 24 -15.32 24 -16 24 C-16 23.34 -16 22.68 -16 22 C-16.66 22 -17.32 22 -18 22 C-18 21.34 -18 20.68 -18 20 C-19.32 20 -20.64 20 -22 20 C-22 19.34 -22 18.68 -22 18 C-27.61 18 -33.22 18 -39 18 Z " fill="#0A558A" transform="translate(158,124)"/>
<path d="M0 0 C2.5 0.125 2.5 0.125 3.5 1.125 C3.64115161 3.79558851 3.54247107 6.44932238 3.5 9.125 C2.84 9.125 2.18 9.125 1.5 9.125 C1.54125 9.90875 1.5825 10.6925 1.625 11.5 C1.5 14.125 1.5 14.125 -0.5 16.125 C-3.125 16.25 -3.125 16.25 -5.5 16.125 C-5.5 16.785 -5.5 17.445 -5.5 18.125 C-4.015 18.62 -4.015 18.62 -2.5 19.125 C-2.5 19.785 -2.5 20.445 -2.5 21.125 C-1.84 21.455 -1.18 21.785 -0.5 22.125 C0.125 24.6875 0.125 24.6875 0.5 27.125 C0.83 27.125 1.16 27.125 1.5 27.125 C1.5 31.415 1.5 35.705 1.5 40.125 C0.84 40.125 0.18 40.125 -0.5 40.125 C-0.5 42.105 -0.5 44.085 -0.5 46.125 C-1.16 46.125 -1.82 46.125 -2.5 46.125 C-2.83 47.445 -3.16 48.765 -3.5 50.125 C-4.16 50.125 -4.82 50.125 -5.5 50.125 C-5.5 51.445 -5.5 52.765 -5.5 54.125 C-6.16 54.125 -6.82 54.125 -7.5 54.125 C-7.5 54.785 -7.5 55.445 -7.5 56.125 C-9.48 56.62 -9.48 56.62 -11.5 57.125 C-11.5 58.115 -11.5 59.105 -11.5 60.125 C-10.18 60.125 -8.86 60.125 -7.5 60.125 C-7.5 60.785 -7.5 61.445 -7.5 62.125 C-6.84 62.125 -6.18 62.125 -5.5 62.125 C-4.819375 63.5790625 -4.819375 63.5790625 -4.125 65.0625 C-2.84213779 68.19579582 -2.84213779 68.19579582 -0.5 69.125 C-0.5 70.445 -0.5 71.765 -0.5 73.125 C0.16 73.125 0.82 73.125 1.5 73.125 C1.5 80.385 1.5 87.645 1.5 95.125 C0.84 95.125 0.18 95.125 -0.5 95.125 C-0.5 97.105 -0.5 99.085 -0.5 101.125 C-1.49 101.125 -2.48 101.125 -3.5 101.125 C-3.5 101.785 -3.5 102.445 -3.5 103.125 C-4.16 103.125 -4.82 103.125 -5.5 103.125 C-5.5 103.785 -5.5 104.445 -5.5 105.125 C-6.16 105.125 -6.82 105.125 -7.5 105.125 C-7.5 106.115 -7.5 107.105 -7.5 108.125 C-8.49 108.125 -9.48 108.125 -10.5 108.125 C-10.5 108.785 -10.5 109.445 -10.5 110.125 C-11.49 110.125 -12.48 110.125 -13.5 110.125 C-13.5 110.785 -13.5 111.445 -13.5 112.125 C-14.49 112.125 -15.48 112.125 -16.5 112.125 C-16.5 112.785 -16.5 113.445 -16.5 114.125 C-18.48 114.125 -20.46 114.125 -22.5 114.125 C-22.5 114.785 -22.5 115.445 -22.5 116.125 C-30.09 116.125 -37.68 116.125 -45.5 116.125 C-45.5 115.465 -45.5 114.805 -45.5 114.125 C-47.48 114.125 -49.46 114.125 -51.5 114.125 C-51.5 113.465 -51.5 112.805 -51.5 112.125 C-53.15 112.125 -54.8 112.125 -56.5 112.125 C-56.726875 111.50625 -56.95375 110.8875 -57.1875 110.25 C-58.89316009 107.4884551 -60.46972909 107.10983805 -63.5 106.125 C-65.5 105.125 -65.5 105.125 -67.5 102.125 C-67.5 101.135 -67.5 100.145 -67.5 99.125 C-68.16 99.125 -68.82 99.125 -69.5 99.125 C-69.5 96.815 -69.5 94.505 -69.5 92.125 C-68.84 92.125 -68.18 92.125 -67.5 92.125 C-67.5 91.465 -67.5 90.805 -67.5 90.125 C-66.51 90.125 -65.52 90.125 -64.5 90.125 C-64.5 89.465 -64.5 88.805 -64.5 88.125 C-62.19 88.125 -59.88 88.125 -57.5 88.125 C-57.17 89.445 -56.84 90.765 -56.5 92.125 C-55.84 92.125 -55.18 92.125 -54.5 92.125 C-54.5 92.785 -54.5 93.445 -54.5 94.125 C-53.84 94.125 -53.18 94.125 -52.5 94.125 C-52.5 94.785 -52.5 95.445 -52.5 96.125 C-51.84 96.125 -51.18 96.125 -50.5 96.125 C-50.005 97.115 -50.005 97.115 -49.5 98.125 C-42.48283558 102.80310962 -35.78522933 103.08752095 -27.5 102.125 C-24.24293801 101.17539337 -21.31301144 100.03756857 -18.5 98.125 C-18.17 97.465 -17.84 96.805 -17.5 96.125 C-16.84 96.125 -16.18 96.125 -15.5 96.125 C-14.84 94.145 -14.18 92.165 -13.5 90.125 C-12.84 90.125 -12.18 90.125 -11.5 90.125 C-11.5 86.165 -11.5 82.205 -11.5 78.125 C-12.49 77.795 -13.48 77.465 -14.5 77.125 C-15.73867161 74.51002661 -16.58503983 71.86988051 -17.5 69.125 C-18.49 69.125 -19.48 69.125 -20.5 69.125 C-20.5 68.465 -20.5 67.805 -20.5 67.125 C-21.49 67.125 -22.48 67.125 -23.5 67.125 C-23.5 66.465 -23.5 65.805 -23.5 65.125 C-30.43 65.125 -37.36 65.125 -44.5 65.125 C-44.5 65.785 -44.5 66.445 -44.5 67.125 C-46.48 67.125 -48.46 67.125 -50.5 67.125 C-50.5 67.785 -50.5 68.445 -50.5 69.125 C-51.82 69.125 -53.14 69.125 -54.5 69.125 C-54.5 66.155 -54.5 63.185 -54.5 60.125 C-53.84 60.125 -53.18 60.125 -52.5 60.125 C-52.5 59.135 -52.5 58.145 -52.5 57.125 C-53.82 56.795 -55.14 56.465 -56.5 56.125 C-56.5 55.465 -56.5 54.805 -56.5 54.125 C-57.16 54.125 -57.82 54.125 -58.5 54.125 C-58.5 53.465 -58.5 52.805 -58.5 52.125 C-59.16 52.125 -59.82 52.125 -60.5 52.125 C-60.83 50.805 -61.16 49.485 -61.5 48.125 C-62.16 48.125 -62.82 48.125 -63.5 48.125 C-65.73413013 44.77380481 -65.73847762 43.7072245 -65.6953125 39.80078125 C-65.68886719 38.77275391 -65.68242188 37.74472656 -65.67578125 36.68554688 C-65.65902344 35.61369141 -65.64226562 34.54183594 -65.625 33.4375 C-65.61597656 32.35404297 -65.60695313 31.27058594 -65.59765625 30.15429688 C-65.5740734 27.4776429 -65.54116126 24.80143203 -65.5 22.125 C-64.84 22.125 -64.18 22.125 -63.5 22.125 C-63.5 20.805 -63.5 19.485 -63.5 18.125 C-62.125 16.375 -62.125 16.375 -60.5 15.125 C-59.84 15.125 -59.18 15.125 -58.5 15.125 C-58.5 14.465 -58.5 13.805 -58.5 13.125 C-57.84 13.125 -57.18 13.125 -56.5 13.125 C-56.5 12.465 -56.5 11.805 -56.5 11.125 C-55.84 11.125 -55.18 11.125 -54.5 11.125 C-54.5 10.465 -54.5 9.805 -54.5 9.125 C-53.18 9.125 -51.86 9.125 -50.5 9.125 C-50.5 8.465 -50.5 7.805 -50.5 7.125 C-47.30977233 5.27091474 -44.72701892 4.80137987 -41.0625 4.5625 C-38.20242147 4.36758505 -35.52193927 4.12964633 -32.71484375 3.53515625 C-31.98394531 3.39980469 -31.25304688 3.26445313 -30.5 3.125 C-30.005 3.62 -30.005 3.62 -29.5 4.125 C-20.47954687 4.7941349 -12.08240384 4.02588256 -3.5 1.125 C-2.5 0.125 -2.5 0.125 0 0 Z M-42.5 18.125 C-42.5 18.785 -42.5 19.445 -42.5 20.125 C-43.056875 20.16625 -43.61375 20.2075 -44.1875 20.25 C-48.17030477 21.75700721 -50.62992356 25.38484712 -52.5 29.125 C-52.57065617 31.16555005 -52.58421976 33.20834257 -52.5625 35.25 C-52.55347656 36.34570312 -52.54445313 37.44140625 -52.53515625 38.5703125 C-52.52355469 39.41335937 -52.51195313 40.25640625 -52.5 41.125 C-51.84 41.125 -51.18 41.125 -50.5 41.125 C-50.5 41.785 -50.5 42.445 -50.5 43.125 C-49.84 43.125 -49.18 43.125 -48.5 43.125 C-48.5 43.785 -48.5 44.445 -48.5 45.125 C-47.84 45.125 -47.18 45.125 -46.5 45.125 C-46.5 45.785 -46.5 46.445 -46.5 47.125 C-45.84 47.125 -45.18 47.125 -44.5 47.125 C-44.5 47.785 -44.5 48.445 -44.5 49.125 C-40.67973118 52.04722056 -37.74777039 52.53327876 -33 52.5 C-31.8965625 52.50773437 -30.793125 52.51546875 -29.65625 52.5234375 C-26.19378492 52.08634414 -24.25915923 51.2355509 -21.5 49.125 C-21.5 48.465 -21.5 47.805 -21.5 47.125 C-20.51 47.125 -19.52 47.125 -18.5 47.125 C-18.5 46.465 -18.5 45.805 -18.5 45.125 C-17.84 45.125 -17.18 45.125 -16.5 45.125 C-14.73537317 42.03690305 -14.5 40.89187864 -14.5 37.125 C-13.84 37.125 -13.18 37.125 -12.5 37.125 C-12.17 35.805 -11.84 34.485 -11.5 33.125 C-12.16 32.795 -12.82 32.465 -13.5 32.125 C-13.809375 30.97 -14.11875 29.815 -14.4375 28.625 C-14.788125 27.47 -15.13875 26.315 -15.5 25.125 C-16.49 24.795 -17.48 24.465 -18.5 24.125 C-18.5 23.465 -18.5 22.805 -18.5 22.125 C-19.16 22.125 -19.82 22.125 -20.5 22.125 C-20.5 21.465 -20.5 20.805 -20.5 20.125 C-21.49 20.125 -22.48 20.125 -23.5 20.125 C-23.5 19.465 -23.5 18.805 -23.5 18.125 C-29.77 18.125 -36.04 18.125 -42.5 18.125 Z " fill="#0A568A" transform="translate(87.5,123.875)"/>
<path d="M0 0 C8.58 0 17.16 0 26 0 C26 0.66 26 1.32 26 2 C27.1446875 1.938125 27.1446875 1.938125 28.3125 1.875 C31 2 31 2 34 4 C34 4.66 34 5.32 34 6 C35.32 6 36.64 6 38 6 C38 6.66 38 7.32 38 8 C38.66 8 39.32 8 40 8 C40 8.66 40 9.32 40 10 C40.66 10 41.32 10 42 10 C42.495 11.98 42.495 11.98 43 14 C43.66 14 44.32 14 45 14 C45 14.99 45 15.98 45 17 C45.66 17 46.32 17 47 17 C47 18.32 47 19.64 47 21 C46.34 21 45.68 21 45 21 C44.505 22.485 44.505 22.485 44 24 C43.01 24 42.02 24 41 24 C41 24.66 41 25.32 41 26 C40.01 26 39.02 26 38 26 C38 26.66 38 27.32 38 28 C36.35 28 34.7 28 33 28 C33 28.66 33 29.32 33 30 C32.01 30 31.02 30 30 30 C30 30.66 30 31.32 30 32 C29.01 32 28.02 32 27 32 C27 32.66 27 33.32 27 34 C25.68 34 24.36 34 23 34 C23 34.66 23 35.32 23 36 C21.02 36.495 21.02 36.495 19 37 C19 37.66 19 38.32 19 39 C18.01 39 17.02 39 16 39 C16 39.66 16 40.32 16 41 C14.68 41 13.36 41 12 41 C12 41.66 12 42.32 12 43 C11.01 43 10.02 43 9 43 C9 43.66 9 44.32 9 45 C8.01 45 7.02 45 6 45 C6 45.66 6 46.32 6 47 C4.68 47 3.36 47 2 47 C2 47.66 2 48.32 2 49 C0.57421875 50.21875 0.57421875 50.21875 -1.3125 51.5 C-2.23482422 52.13421875 -2.23482422 52.13421875 -3.17578125 52.78125 C-4.78319506 53.85515387 -6.39152633 54.92768422 -8 56 C-8 59.76687864 -7.76462683 60.91190305 -6 64 C-5.34 64 -4.68 64 -4 64 C-4 64.66 -4 65.32 -4 66 C-3.01 66 -2.02 66 -1 66 C-1 66.66 -1 67.32 -1 68 C0.98 68 2.96 68 5 68 C5 68.33 5 68.66 5 69 C10.28 69.33 15.56 69.66 21 70 C21 69.34 21 68.68 21 68 C23.31 68 25.62 68 28 68 C28 67.34 28 66.68 28 66 C28.99 66 29.98 66 31 66 C31 65.34 31 64.68 31 64 C31.99 64 32.98 64 34 64 C34 63.34 34 62.68 34 62 C35.32 61.67 36.64 61.34 38 61 C38 60.34 38 59.68 38 59 C38.99 59 39.98 59 41 59 C41 58.34 41 57.68 41 57 C42.98 57.495 42.98 57.495 45 58 C45 62.95 45 67.9 45 73 C44.34 73 43.68 73 43 73 C43 73.66 43 74.32 43 75 C42.01 75 41.02 75 40 75 C40 75.66 40 76.32 40 77 C38.68 77 37.36 77 36 77 C36 77.66 36 78.32 36 79 C34.68 79 33.36 79 32 79 C32 79.66 32 80.32 32 81 C30.35 81 28.7 81 27 81 C27 81.66 27 82.32 27 83 C26.21753906 83.06058594 25.43507813 83.12117188 24.62890625 83.18359375 C23.61699219 83.26738281 22.60507812 83.35117188 21.5625 83.4375 C20.55316406 83.51871094 19.54382813 83.59992188 18.50390625 83.68359375 C16.06359221 83.73211468 16.06359221 83.73211468 15 85 C12.5 85.125 12.5 85.125 10 85 C9.67 84.67 9.34 84.34 9 84 C7.31816052 83.76712992 5.6287584 83.58735834 3.9375 83.4375 C2.55884766 83.31181641 2.55884766 83.31181641 1.15234375 83.18359375 C0.44207031 83.12300781 -0.26820313 83.06242187 -1 83 C-1 82.34 -1 81.68 -1 81 C-2.65 81 -4.3 81 -6 81 C-6 80.34 -6 79.68 -6 79 C-7.65 79 -9.3 79 -11 79 C-11 78.34 -11 77.68 -11 77 C-11.99 77 -12.98 77 -14 77 C-14 76.34 -14 75.68 -14 75 C-14.66 75 -15.32 75 -16 75 C-16 74.34 -16 73.68 -16 73 C-16.66 73 -17.32 73 -18 73 C-18 72.34 -18 71.68 -18 71 C-18.66 71 -19.32 71 -20 71 C-20 70.01 -20 69.02 -20 68 C-20.66 68 -21.32 68 -22 68 C-22 67.34 -22 66.68 -22 66 C-22.66 66 -23.32 66 -24 66 C-24 64.68 -24 63.36 -24 62 C-24.66 62 -25.32 62 -26 62 C-26 60.68 -26 59.36 -26 58 C-26.66 58 -27.32 58 -28 58 C-28.06058594 57.21753906 -28.12117188 56.43507812 -28.18359375 55.62890625 C-28.26738281 54.61699219 -28.35117187 53.60507813 -28.4375 52.5625 C-28.51871094 51.55316406 -28.59992188 50.54382813 -28.68359375 49.50390625 C-28.73211468 47.06359221 -28.73211468 47.06359221 -30 46 C-30.23880597 38.47761194 -30.23880597 38.47761194 -29 36 C-28.8219644 34.58701906 -28.68076947 33.16923364 -28.5625 31.75 C-28.18032476 27.9344117 -27.38350863 24.59712244 -26 21 C-25.34 21 -24.68 21 -24 21 C-24 19.68 -24 18.36 -24 17 C-23.34 17 -22.68 17 -22 17 C-22 16.34 -22 15.68 -22 15 C-20.625 13.375 -20.625 13.375 -19 12 C-18.34 12 -17.68 12 -17 12 C-17 11.34 -17 10.68 -17 10 C-16.34 10 -15.68 10 -15 10 C-15 9.34 -15 8.68 -15 8 C-14.34 8 -13.68 8 -13 8 C-13 7.34 -13 6.68 -13 6 C-12.34 6 -11.68 6 -11 6 C-11 5.34 -11 4.68 -11 4 C-7.17010894 2.19769832 -4.21878192 1.80377759 0 2 C0 1.34 0 0.68 0 0 Z M6 13 C6 13.66 6 14.32 6 15 C4.02 15 2.04 15 0 15 C0 15.66 0 16.32 0 17 C-0.598125 17.268125 -1.19625 17.53625 -1.8125 17.8125 C-3.99847854 18.99917406 -5.41332594 20.09599113 -7 22 C-7 22.66 -7 23.32 -7 24 C-7.66 24 -8.32 24 -9 24 C-9 24.66 -9 25.32 -9 26 C-9.66 26 -10.32 26 -11 26 C-11 27.32 -11 28.64 -11 30 C-11.66 30 -12.32 30 -13 30 C-13.144375 31.134375 -13.28875 32.26875 -13.4375 33.4375 C-14 37 -14 37 -15 38 C-15.04063832 39.66617115 -15.042721 41.33388095 -15 43 C-11.62537285 42.45276317 -9.91765 41.9451 -7 40 C-7 39.34 -7 38.68 -7 38 C-6.01 38 -5.02 38 -4 38 C-4 37.34 -4 36.68 -4 36 C-2.68 36 -1.36 36 0 36 C0 35.34 0 34.68 0 34 C0.7734375 33.87625 0.7734375 33.87625 1.5625 33.75 C5.04455732 32.67859775 7.87200885 30.86476395 11 29 C11 28.34 11 27.68 11 27 C11.99 27 12.98 27 14 27 C14 26.34 14 25.68 14 25 C14.99 25 15.98 25 17 25 C17 24.34 17 23.68 17 23 C21 22 21 22 25 21 C25 20.34 25 19.68 25 19 C25.99 19 26.98 19 28 19 C27.505 17.02 27.505 17.02 27 15 C25.68 15 24.36 15 23 15 C23 14.34 23 13.68 23 13 C17.39 13 11.78 13 6 13 Z " fill="#EA6938" transform="translate(343,129)"/>
<path d="M0 0 C4.29 0 8.58 0 13 0 C13.33 11.88 13.66 23.76 14 36 C14.66 36 15.32 36 16 36 C16 35.34 16 34.68 16 34 C16.99 34 17.98 34 19 34 C19 33.34 19 32.68 19 32 C25.63159279 28.9052567 32.82580184 27.24630712 40 29 C41.7634375 29.2165625 41.7634375 29.2165625 43.5625 29.4375 C46.67008082 29.94601323 49.14767402 30.70348819 52 32 C52 32.66 52 33.32 52 34 C52.99 34 53.98 34 55 34 C55 34.66 55 35.32 55 36 C55.99 36.33 56.98 36.66 58 37 C58 37.99 58 38.98 58 40 C58.66 40 59.32 40 60 40 C60 41.32 60 42.64 60 44 C60.66 44 61.32 44 62 44 C62 45.98 62 47.96 62 50 C62.66 50 63.32 50 64 50 C64 70.79 64 91.58 64 113 C59.71 113 55.42 113 51 113 C50.98541748 111.3914917 50.97083496 109.7829834 50.95581055 108.12573242 C50.89753806 102.11884087 50.82030727 96.11231286 50.73754883 90.10571289 C50.70443527 87.5133253 50.67636178 84.92086797 50.65356445 82.32836914 C50.61976865 78.58710193 50.56743929 74.84646613 50.51171875 71.10546875 C50.50532883 69.95918503 50.4989389 68.81290131 50.49235535 67.63188171 C50.36113187 60.33747888 49.27502473 53.93461304 47 47 C46.34 47 45.68 47 45 47 C45 46.34 45 45.68 45 45 C44.34 45 43.68 45 43 45 C43 44.34 43 43.68 43 43 C41.68 43 40.36 43 39 43 C39 42.34 39 41.68 39 41 C35.04 41 31.08 41 27 41 C27 41.66 27 42.32 27 43 C25.68 43 24.36 43 23 43 C23 43.66 23 44.32 23 45 C22.195625 45.474375 21.39125 45.94875 20.5625 46.4375 C17.7081924 47.79983672 17.7081924 47.79983672 17 51 C16.34 51 15.68 51 15 51 C15 52.65 15 54.3 15 56 C14.34 56 13.68 56 13 56 C13.00222061 56.69935165 13.00444122 57.39870331 13.00672913 58.11924744 C13.0267328 64.69704921 13.04197452 71.27484254 13.05181217 77.85266781 C13.05703975 81.23471813 13.06413511 84.6167434 13.07543945 87.9987793 C13.08834267 91.88329777 13.09322924 95.76780597 13.09765625 99.65234375 C13.10281754 100.87211411 13.10797882 102.09188446 13.11329651 103.34861755 C13.11337204 104.46970413 13.11344757 105.59079071 13.11352539 106.74584961 C13.115746 107.73846298 13.11796661 108.73107635 13.12025452 109.75376892 C13 112 13 112 12 113 C8.04 113 4.08 113 0 113 C0 75.71 0 38.42 0 0 Z " fill="#EE6A37" transform="translate(471,99)"/>
<path d="M0 0 C4.29 0 8.58 0 13 0 C13 20.46 13 40.92 13 62 C13.66 62 14.32 62 15 62 C15 61.34 15 60.68 15 60 C15.66 60 16.32 60 17 60 C17 59.01 17 58.02 17 57 C17.66 57 18.32 57 19 57 C19 56.34 19 55.68 19 55 C19.66 55 20.32 55 21 55 C21 53.68 21 52.36 21 51 C22.8125 48.75 22.8125 48.75 25 47 C25.99 47 26.98 47 28 47 C28 46.34 28 45.68 28 45 C28.66 45 29.32 45 30 45 C30 44.01 30 43.02 30 42 C30.66 42 31.32 42 32 42 C32 40.68 32 39.36 32 38 C32.66 38 33.32 38 34 38 C34 37.34 34 36.68 34 36 C34.66 36 35.32 36 36 36 C36 35.34 36 34.68 36 34 C36.66 34 37.32 34 38 34 C38 33.01 38 32.02 38 31 C40.82001327 29.58999336 42.87007255 29.75451549 46 30 C48.875 31 48.875 31 51 33 C51.43561711 35.79566932 51.23403858 38.14472937 51 41 C50.34 41 49.68 41 49 41 C49 41.66 49 42.32 49 43 C48.34 43 47.68 43 47 43 C47 43.66 47 44.32 47 45 C46.34 45 45.68 45 45 45 C45 45.66 45 46.32 45 47 C44.34 47 43.68 47 43 47 C43 47.99 43 48.98 43 50 C42.34 50 41.68 50 41 50 C40.67 51.32 40.34 52.64 40 54 C39.34 54 38.68 54 38 54 C38 54.66 38 55.32 38 56 C37.34 56 36.68 56 36 56 C36 56.66 36 57.32 36 58 C35.34 58 34.68 58 34 58 C33.34 59.98 32.68 61.96 32 64 C31.34 64 30.68 64 30 64 C30 64.66 30 65.32 30 66 C29.34 66 28.68 66 28 66 C27.67 66.99 27.34 67.98 27 69 C26.34 69 25.68 69 25 69 C25.33 70.65 25.66 72.3 26 74 C26.66 74 27.32 74 28 74 C28 74.99 28 75.98 28 77 C28.66 77 29.32 77 30 77 C30 77.66 30 78.32 30 79 C30.66 79 31.32 79 32 79 C32 79.66 32 80.32 32 81 C32.66 81 33.32 81 34 81 C34 81.66 34 82.32 34 83 C34.66 83 35.32 83 36 83 C36 83.66 36 84.32 36 85 C36.66 85 37.32 85 38 85 C38 85.66 38 86.32 38 87 C38.99 87.33 39.98 87.66 41 88 C42.35827971 89.64639965 43.69254251 91.31295807 45 93 C45.99 93.495 45.99 93.495 47 94 C47 94.66 47 95.32 47 96 C47.66 96 48.32 96 49 96 C49 96.66 49 97.32 49 98 C49.66 98 50.32 98 51 98 C51 98.66 51 99.32 51 100 C51.66 100 52.32 100 53 100 C53.33 101.32 53.66 102.64 54 104 C54.66 104 55.32 104 56 104 C56 105.65 56 107.3 56 109 C55.01 109 54.02 109 53 109 C53 109.66 53 110.32 53 111 C52.34 111 51.68 111 51 111 C51 111.66 51 112.32 51 113 C48.69 113 46.38 113 44 113 C44 112.34 44 111.68 44 111 C43.34 111 42.68 111 42 111 C42 110.34 42 109.68 42 109 C41.34 109 40.68 109 40 109 C40 108.34 40 107.68 40 107 C39.34 107 38.68 107 38 107 C38 106.34 38 105.68 38 105 C37.34 105 36.68 105 36 105 C36 104.34 36 103.68 36 103 C35.34 103 34.68 103 34 103 C34 102.34 34 101.68 34 101 C33.34 101 32.68 101 32 101 C32 100.01 32 99.02 32 98 C31.34 98 30.68 98 30 98 C30 97.34 30 96.68 30 96 C29.34 96 28.68 96 28 96 C28 95.34 28 94.68 28 94 C26.35 93.34 24.7 92.68 23 92 C23 91.34 23 90.68 23 90 C22.34 90 21.68 90 21 90 C21 89.34 21 88.68 21 88 C20.34 88 19.68 88 19 88 C18.34 86.35 17.68 84.7 17 83 C16.34 83 15.68 83 15 83 C15 82.34 15 81.68 15 81 C14.34 81 13.68 81 13 81 C13.02356567 82.34747314 13.02356567 82.34747314 13.04760742 83.72216797 C13.09869255 87.05067692 13.13632785 90.37877027 13.16479492 93.70751953 C13.17989483 95.14899258 13.20037658 96.59041959 13.22631836 98.03173828 C13.2626513 100.10200343 13.27971329 102.17166207 13.29296875 104.2421875 C13.31653442 106.11173096 13.31653442 106.11173096 13.34057617 108.01904297 C13.22818604 109.00275879 13.1157959 109.98647461 13 111 C10 113 10 113 0 113 C0 75.71 0 38.42 0 0 Z " fill="#09568A" transform="translate(172,99)"/>
<path d="M0 0 C8.58 0 17.16 0 26 0 C26 0.66 26 1.32 26 2 C27.3303125 1.938125 27.3303125 1.938125 28.6875 1.875 C31.97277013 1.99897246 34.05449295 2.61387904 37 4 C37 4.66 37 5.32 37 6 C37.99 6 38.98 6 40 6 C42 9 42 9 41.75 10.9375 C40.97936717 13.05674028 40.0643413 15.01322958 39 17 C38.34 17 37.68 17 37 17 C37 17.66 37 18.32 37 19 C35.02 19 33.04 19 31 19 C31 18.34 31 17.68 31 17 C30.01 17 29.02 17 28 17 C28 16.34 28 15.68 28 15 C26.02 15 24.04 15 22 15 C22 14.34 22 13.68 22 13 C15.4 13 8.8 13 2 13 C2 13.66 2 14.32 2 15 C0.68 15 -0.64 15 -2 15 C-2 15.66 -2 16.32 -2 17 C-2.99 17 -3.98 17 -5 17 C-5 17.66 -5 18.32 -5 19 C-5.66 19 -6.32 19 -7 19 C-7.33 19.99 -7.66 20.98 -8 22 C-8.66 22 -9.32 22 -10 22 C-10 23.32 -10 24.64 -10 26 C-10.66 26 -11.32 26 -12 26 C-12 26.66 -12 27.32 -12 28 C-12.66 28 -13.32 28 -14 28 C-14 29.98 -14 31.96 -14 34 C-14.66 34 -15.32 34 -16 34 C-16 38.95 -16 43.9 -16 49 C-15.34 49 -14.68 49 -14 49 C-14 50.98 -14 52.96 -14 55 C-13.34 55 -12.68 55 -12 55 C-12 55.66 -12 56.32 -12 57 C-11.34 57 -10.68 57 -10 57 C-10 58.32 -10 59.64 -10 61 C-8.515 61.495 -8.515 61.495 -7 62 C-7 62.66 -7 63.32 -7 64 C-6.34 64 -5.68 64 -5 64 C-5 64.66 -5 65.32 -5 66 C-4.01 66 -3.02 66 -2 66 C-2 66.66 -2 67.32 -2 68 C-0.68 68 0.64 68 2 68 C2 68.66 2 69.32 2 70 C8.27 69.67 14.54 69.34 21 69 C21 68.67 21 68.34 21 68 C22.98 68 24.96 68 27 68 C27 67.34 27 66.68 27 66 C28.32 66 29.64 66 31 66 C31 65.34 31 64.68 31 64 C33.31 64 35.62 64 38 64 C38.33 65.32 38.66 66.64 39 68 C39.66 68 40.32 68 41 68 C42.625 70.5 42.625 70.5 44 73 C42.02 73.99 42.02 73.99 40 75 C40 75.66 40 76.32 40 77 C39.01 77 38.02 77 37 77 C37 77.66 37 78.32 37 79 C35.35 79 33.7 79 32 79 C32 79.66 32 80.32 32 81 C27.98464932 82.90079664 24.81003409 83.23570807 20.38671875 83.1953125 C18.5159668 83.18564453 18.5159668 83.18564453 16.60742188 83.17578125 C15.31384766 83.15902344 14.02027344 83.14226562 12.6875 83.125 C10.71813477 83.11146484 10.71813477 83.11146484 8.70898438 83.09765625 C5.47247087 83.07411797 2.23632851 83.0412352 -1 83 C-1 82.34 -1 81.68 -1 81 C-3.31 81 -5.62 81 -8 81 C-8 80.34 -8 79.68 -8 79 C-8.99 79 -9.98 79 -11 79 C-11 78.34 -11 77.68 -11 77 C-11.99 77 -12.98 77 -14 77 C-14 76.34 -14 75.68 -14 75 C-14.66 75 -15.32 75 -16 75 C-16 74.34 -16 73.68 -16 73 C-16.598125 72.731875 -17.19625 72.46375 -17.8125 72.1875 C-21.45711914 70.20899247 -23.34714266 67.73616351 -25.1875 64.0625 C-25.70376953 63.05896484 -25.70376953 63.05896484 -26.23046875 62.03515625 C-27 60 -27 60 -27 56 C-27.66 56 -28.32 56 -29 56 C-29.11742499 51.70856843 -29.18765996 47.41755727 -29.25 43.125 C-29.28351563 41.92101562 -29.31703125 40.71703125 -29.3515625 39.4765625 C-29.43526177 31.77622935 -28.52615535 25.88335737 -25 19 C-24.34 19 -23.68 19 -23 19 C-22.67 18.01 -22.34 17.02 -22 16 C-21.00102287 13.00306862 -20.34869747 11.97290587 -18 10 C-17.34 10 -16.68 10 -16 10 C-16 9.34 -16 8.68 -16 8 C-15.34 8 -14.68 8 -14 8 C-14 7.34 -14 6.68 -14 6 C-12.68 6 -11.36 6 -10 6 C-10 5.34 -10 4.68 -10 4 C-8.35 4 -6.7 4 -5 4 C-5 3.34 -5 2.68 -5 2 C-3.35 2 -1.7 2 0 2 C0 1.34 0 0.68 0 0 Z " fill="#EB6A38" transform="translate(421,129)"/>
<path d="M0 0 C1.66611905 -0.042721 3.33382885 -0.04063832 5 0 C6.61780157 1.61780157 6.22272147 3.45635518 6.31640625 5.69140625 C6.35830078 6.63564453 6.40019531 7.57988281 6.44335938 8.55273438 C6.48267578 9.54595703 6.52199219 10.53917969 6.5625 11.5625 C6.60568359 12.55958984 6.64886719 13.55667969 6.69335938 14.58398438 C6.79980298 17.0558415 6.90181928 19.5278031 7 22 C8.21558594 21.98839844 9.43117188 21.97679687 10.68359375 21.96484375 C12.26822764 21.95546722 13.85286318 21.94636687 15.4375 21.9375 C16.23994141 21.92912109 17.04238281 21.92074219 17.86914062 21.91210938 C19.91295221 21.9034857 21.95683902 21.9477185 24 22 C25 23 25 23 25.09765625 25.72265625 C25.06510417 28.81510417 25.03255208 31.90755208 25 35 C18.73 35 12.46 35 6 35 C6 51.5 6 68 6 85 C6.66 85 7.32 85 8 85 C8 86.65 8 88.3 8 90 C11.08084955 90.85659135 14.06792001 91.26941369 17.25 91.5625 C18.58804688 91.68818359 18.58804688 91.68818359 19.953125 91.81640625 C20.62859375 91.87699219 21.3040625 91.93757813 22 92 C22 91.34 22 90.68 22 90 C22.99 90.33 23.98 90.66 25 91 C25 95.29 25 99.58 25 104 C21.69005287 105.65497356 18.00877 105.10084335 14.375 105.0625 C13.57320313 105.05798828 12.77140625 105.05347656 11.9453125 105.04882812 C9.96350994 105.03703168 7.98174567 105.01909605 6 105 C6 104.34 6 103.68 6 103 C4.35 103 2.7 103 1 103 C0.34 101.68 -0.32 100.36 -1 99 C-1.66 99 -2.32 99 -3 99 C-3 98.34 -3 97.68 -3 97 C-3.66 97 -4.32 97 -5 97 C-7.6237406 89.72963293 -8.42394179 83.29254282 -8.328125 75.59375 C-8.32625183 74.54723267 -8.32437866 73.50071533 -8.32244873 72.42248535 C-8.31577314 70.23084279 -8.30194946 68.03921122 -8.28125 65.84765625 C-8.24982879 62.48165912 -8.24024616 59.11612993 -8.234375 55.75 C-8.22521439 53.61457758 -8.21484164 51.47915993 -8.203125 49.34375 C-8.19887512 48.33550171 -8.19462524 47.32725342 -8.19024658 46.28845215 C-8.18063904 45.35988403 -8.17103149 44.43131592 -8.16113281 43.47460938 C-8.15430481 42.6564978 -8.14747681 41.83838623 -8.14044189 40.9954834 C-8 39 -8 39 -7 37 C-10.63 37 -14.26 37 -18 37 C-18 34.03 -18 31.06 -18 28 C-17.34 28 -16.68 28 -16 28 C-16 26.68 -16 25.36 -16 24 C-12.91190305 22.23537317 -11.76687864 22 -8 22 C-8.01160156 21.02417969 -8.02320313 20.04835938 -8.03515625 19.04296875 C-8.04417969 17.77066406 -8.05320312 16.49835938 -8.0625 15.1875 C-8.07410156 13.92292969 -8.08570313 12.65835938 -8.09765625 11.35546875 C-8 8 -8 8 -7 5 C-6.34 5 -5.68 5 -5 5 C-4.67 4.01 -4.34 3.02 -4 2 C-2.68 2 -1.36 2 0 2 C0 1.34 0 0.68 0 0 Z " fill="#E96939" transform="translate(288,107)"/>
<path d="M0 0 C1.8125 0.375 1.8125 0.375 4 1 C4.7425 1.185625 5.485 1.37125 6.25 1.5625 C6.8275 1.706875 7.405 1.85125 8 2 C8 2.66 8 3.32 8 4 C8.7425 3.67 9.485 3.34 10.25 3 C13 2 13 2 17 2 C17 1.34 17 0.68 17 0 C18.64767247 0.28109113 20.29313145 0.57518526 21.9375 0.875 C22.85402344 1.03742188 23.77054687 1.19984375 24.71484375 1.3671875 C25.46894531 1.57601562 26.22304688 1.78484375 27 2 C27.495 2.99 27.495 2.99 28 4 C28.66 3.34 29.32 2.68 30 2 C32.00969104 1.70827066 34.02175881 1.42322076 36.04296875 1.2265625 C38.06638569 1.054499 38.06638569 1.054499 40.1875 0.3125 C42 0 42 0 44.3125 0.9375 C47.65295232 2.25814394 50.44038629 2.13959269 54 2 C54.66 3.32 55.32 4.64 56 6 C56.66 6 57.32 6 58 6 C58 4.68 58 3.36 58 2 C60.31 2 62.62 2 65 2 C65 4.31 65 6.62 65 9 C64.34 9 63.68 9 63 9 C63 10.65 63 12.3 63 14 C62.67 14 62.34 14 62 14 C61.67 15.98 61.34 17.96 61 20 C60.34 20 59.68 20 59 20 C59 21.32 59 22.64 59 24 C58.34 24 57.68 24 57 24 C56.67 25.32 56.34 26.64 56 28 C52.7 28 49.4 28 46 28 C45.67 26.35 45.34 24.7 45 23 C43.02 22.34 41.04 21.68 39 21 C39 17.04 39 13.08 39 9 C38.34 9 37.68 9 37 9 C37 12.96 37 16.92 37 21 C31.59322829 21.96120386 26.48528163 22 21 22 C21 22.66 21 23.32 21 24 C19.02 24 17.04 24 15 24 C15 23.34 15 22.68 15 22 C14.360625 21.87625 13.72125 21.7525 13.0625 21.625 C12.0415625 21.315625 12.0415625 21.315625 11 21 C10.67 20.34 10.34 19.68 10 19 C9.3503125 19.680625 9.3503125 19.680625 8.6875 20.375 C7 22 7 22 4 24 C0.48275862 23.48275862 0.48275862 23.48275862 -1 22 C-1 23.98 -1 25.96 -1 28 C-3.31 28 -5.62 28 -8 28 C-8 19.42 -8 10.84 -8 2 C-4.535 1.505 -4.535 1.505 -1 1 C-0.67 0.67 -0.34 0.34 0 0 Z M-1 9 C-1 10.98 -1 12.96 -1 15 C0.32 15.33 1.64 15.66 3 16 C4.21081851 12.89459074 4.21081851 12.89459074 4 9 C2.35 9 0.7 9 -1 9 Z M48 9 C47.67 12.96 47.34 16.92 47 21 C48.65 21 50.3 21 52 21 C51.40075776 16.80530429 50.42500059 12.99000166 49 9 C48.67 9 48.34 9 48 9 Z M20 13 C20 13.66 20 14.32 20 15 C20.66 15 21.32 15 22 15 C22 14.34 22 13.68 22 13 C21.34 13 20.68 13 20 13 Z M18 15 C18.33 15.66 18.66 16.32 19 17 C19.33 16.34 19.66 15.68 20 15 C19.34 15 18.68 15 18 15 Z " fill="#5E6061" transform="translate(470,242)"/>
<path d="M0 0 C2.64 0.33 5.28 0.66 8 1 C8.99 4.96 9.98 8.92 11 13 C11.33 12.01 11.66 11.02 12 10 C12.66 10 13.32 10 14 10 C14 8.02 14 6.04 14 4 C15.65 3.67 17.3 3.34 19 3 C19.33 2.01 19.66 1.02 20 0 C29.61181435 -0.56540084 29.61181435 -0.56540084 34 3 C34.495 3.99 34.495 3.99 35 5 C35.33 4.34 35.66 3.68 36 3 C36.66 3 37.32 3 38 3 C38.33 2.01 38.66 1.02 39 0 C43.31203258 -0.25364898 46.96884158 -0.37879289 51.0625 1.125 C53 3 53 3 53.3125 6.1875 C53.209375 7.115625 53.10625 8.04375 53 9 C50.625 9.625 50.625 9.625 48 10 C47.34 9.34 46.68 8.68 46 8 C43.93125966 7.3574765 43.93125966 7.3574765 42 7 C42 7.66 42 8.32 42 9 C42.99 9 43.98 9 45 9 C45 9.66 45 10.32 45 11 C47.31 11 49.62 11 52 11 C52.495 13.475 52.495 13.475 53 16 C53.66 16 54.32 16 55 16 C55 18.31 55 20.62 55 23 C53.02 23.99 53.02 23.99 51 25 C51 25.66 51 26.32 51 27 C49.68 27 48.36 27 47 27 C47 27.66 47 28.32 47 29 C45.02 29 43.04 29 41 29 C41 28.67 41 28.34 41 28 C39.35 27.67 37.7 27.34 36 27 C36 26.01 36 25.02 36 24 C34.68 24.33 33.36 24.66 32 25 C32 25.66 32 26.32 32 27 C30.68 27 29.36 27 28 27 C28 27.66 28 28.32 28 29 C26.02 29 24.04 29 22 29 C22 28.67 22 28.34 22 28 C21.195625 27.87625 20.39125 27.7525 19.5625 27.625 C18.716875 27.41875 17.87125 27.2125 17 27 C16.67 26.34 16.34 25.68 16 25 C15.34 25.66 14.68 26.32 14 27 C10.875 27.125 10.875 27.125 8 27 C8 26.01 8 25.02 8 24 C7.34 24 6.68 24 6 24 C6 23.34 6 22.68 6 22 C4.02 22 2.04 22 0 22 C-0.33 23.65 -0.66 25.3 -1 27 C-6.75 27.125 -6.75 27.125 -9 26 C-8.34 23.03 -7.68 20.06 -7 17 C-6.34 17 -5.68 17 -5 17 C-5 15.02 -5 13.04 -5 11 C-4.34 11 -3.68 11 -3 11 C-3 8.69 -3 6.38 -3 4 C-2.34 4 -1.68 4 -1 4 C-0.67 2.68 -0.34 1.36 0 0 Z M21 8 C20.92755947 10.01964199 20.91622812 12.04167124 20.9375 14.0625 C20.94652344 15.16722656 20.95554688 16.27195313 20.96484375 17.41015625 C20.97644531 18.26480469 20.98804688 19.11945313 21 20 C23.97 20.495 23.97 20.495 27 21 C27 20.34 27 19.68 27 19 C30.465 18.505 30.465 18.505 34 18 C34 18.66 34 19.32 34 20 C34.66 20 35.32 20 36 20 C36 19.34 36 18.68 36 18 C37.32 18 38.64 18 40 18 C40 18.66 40 19.32 40 20 C42.97 20.495 42.97 20.495 46 21 C46.33 20.01 46.66 19.02 47 18 C45.35 18 43.7 18 42 18 C42 17.34 42 16.68 42 16 C41.05125 15.773125 40.1025 15.54625 39.125 15.3125 C36 14 36 14 34.625 11.375 C34.41875 10.59125 34.2125 9.8075 34 9 C32.02 9.33 30.04 9.66 28 10 C27.67 9.01 27.34 8.02 27 7 C23.71069596 6.63314303 23.71069596 6.63314303 21 8 Z M13 17 C13 18.65 13 20.3 13 22 C13.33 22 13.66 22 14 22 C14 20.35 14 18.7 14 17 C13.67 17 13.34 17 13 17 Z " fill="#5E6061" transform="translate(230,237)"/>
<path d="M0 0 C2.5625 1.375 2.5625 1.375 4 3 C4 3.66 4 4.32 4 5 C4.66 5 5.32 5 6 5 C5.125 8.875 5.125 8.875 4 10 C2.33382885 10.04063832 0.66611905 10.042721 -1 10 C-1.33 9.34 -1.66 8.68 -2 8 C-4.52733235 7.34444881 -4.52733235 7.34444881 -7 7 C-7 8.65 -7 10.3 -7 12 C-7.66 12 -8.32 12 -9 12 C-9 13.65 -9 15.3 -9 17 C-8.34 17.33 -7.68 17.66 -7 18 C-6.01 18.66 -5.02 19.32 -4 20 C-3.01 20 -2.02 20 -1 20 C-1 19.34 -1 18.68 -1 18 C0.65 18 2.3 18 4 18 C4.33 15.69 4.66 13.38 5 11 C5.66 11 6.32 11 7 11 C7 9.68 7 8.36 7 7 C8.98 7 10.96 7 13 7 C13 6.34 13 5.68 13 5 C17 6 17 6 21 7 C21 7.66 21 8.32 21 9 C21.66 9 22.32 9 23 9 C23.33 8.34 23.66 7.68 24 7 C26.21484375 6.62109375 26.21484375 6.62109375 28.9375 6.4375 C32.60675121 6.23198677 32.60675121 6.23198677 36 5 C36 5.66 36 6.32 36 7 C37.0725 6.67 38.145 6.34 39.25 6 C43 5 43 5 47 5 C47 5.66 47 6.32 47 7 C47.99 7 48.98 7 50 7 C50.84023188 11.35332736 51.10770995 15.44442519 51.0625 19.875 C51.05347656 21.02742188 51.04445313 22.17984375 51.03515625 23.3671875 C51.02355469 24.23601562 51.01195312 25.10484375 51 26 C48.625 26.625 48.625 26.625 46 27 C44 25 44 25 43.8046875 22.3984375 C43.82789063 21.40070313 43.85109375 20.40296875 43.875 19.375 C43.89304687 18.37210938 43.91109375 17.36921875 43.9296875 16.3359375 C43.95289063 15.56507813 43.97609375 14.79421875 44 14 C43.34 14 42.68 14 42 14 C42.01160156 14.85464844 42.02320313 15.70929688 42.03515625 16.58984375 C42.04417969 17.69457031 42.05320312 18.79929688 42.0625 19.9375 C42.07410156 21.03964844 42.08570313 22.14179688 42.09765625 23.27734375 C42 26 42 26 41 27 C39.02 27 37.04 27 35 27 C35 22.71 35 18.42 35 14 C33.68 14 32.36 14 31 14 C31 18.29 31 22.58 31 27 C29.02 27 27.04 27 25 27 C24.34 26.01 23.68 25.02 23 24 C22.566875 24.45375 22.13375 24.9075 21.6875 25.375 C20 27 20 27 17 29 C15.1875 28.75 15.1875 28.75 13 28 C11.4221875 27.5359375 11.4221875 27.5359375 9.8125 27.0625 C7 26 7 26 6 24 C5.01 24 4.02 24 3 24 C3 24.99 3 25.98 3 27 C1.35 27.33 -0.3 27.66 -2 28 C-2 28.33 -2 28.66 -2 29 C-3.98 29 -5.96 29 -8 29 C-8 28.34 -8 27.68 -8 27 C-9.32 27 -10.64 27 -12 27 C-12 26.34 -12 25.68 -12 25 C-12.66 25 -13.32 25 -14 25 C-15.95031692 20.92276266 -16.21581971 17.68307578 -16.125 13.1875 C-16.10695313 12.02605469 -16.08890625 10.86460937 -16.0703125 9.66796875 C-16.04710937 8.78753906 -16.02390625 7.90710938 -16 7 C-15.34 7 -14.68 7 -14 7 C-14 5.68 -14 4.36 -14 3 C-9.92608542 -0.67966478 -5.2105968 -0.73881596 0 0 Z M12 14 C12 15.98 12 17.96 12 20 C12.66 20 13.32 20 14 20 C14.33 20.66 14.66 21.32 15 22 C16.60414215 20.81476003 16.60414215 20.81476003 18 19 C18.25069913 16.37429296 18.25069913 16.37429296 18 14 C16.02 14 14.04 14 12 14 Z " fill="#5E6061" transform="translate(410,237)"/>
<path d="M0 0 C0 0.66 0 1.32 0 2 C1.98 2 3.96 2 6 2 C6 3.32 6 4.64 6 6 C6.66 6 7.32 6 8 6 C8 4.68 8 3.36 8 2 C10.31 2 12.62 2 15 2 C15.04898438 2.85464844 15.09796875 3.70929688 15.1484375 4.58984375 C15.22320312 5.69457031 15.29796875 6.79929688 15.375 7.9375 C15.47941406 9.59072266 15.47941406 9.59072266 15.5859375 11.27734375 C15.79089844 12.62505859 15.79089844 12.62505859 16 14 C16.66 14.33 17.32 14.66 18 15 C18 10.71 18 6.42 18 2 C20.31 2 22.62 2 25 2 C25 8.6 25 15.2 25 22 C22.36 22 19.72 22 17 22 C17 22.66 17 23.32 17 24 C14.61435923 23.42415568 12.33317216 22.77772405 10 22 C8.8125 19.9375 8.8125 19.9375 8 18 C7.34 18 6.68 18 6 18 C5.67 19.32 5.34 20.64 5 22 C3.35 22 1.7 22 0 22 C0 22.66 0 23.32 0 24 C-2.38564077 23.42415568 -4.66682784 22.77772405 -7 22 C-7 21.34 -7 20.68 -7 20 C-7.66 20 -8.32 20 -9 20 C-9 19.01 -9 18.02 -9 17 C-9.99 16.67 -10.98 16.34 -12 16 C-12 14.02 -12 12.04 -12 10 C-12.99 9.67 -13.98 9.34 -15 9 C-14.98839844 9.85464844 -14.97679687 10.70929688 -14.96484375 11.58984375 C-14.95582031 12.69457031 -14.94679688 13.79929688 -14.9375 14.9375 C-14.92589844 16.03964844 -14.91429687 17.14179688 -14.90234375 18.27734375 C-15 21 -15 21 -16 22 C-17.98 22 -19.96 22 -22 22 C-22 15.4 -22 8.8 -22 2 C-17.71 2 -13.42 2 -9 2 C-9 2.66 -9 3.32 -9 4 C-8.34 4 -7.68 4 -7 4 C-7 3.34 -7 2.68 -7 2 C-4.35261084 0.5393715 -3.10551666 0 0 0 Z M-4 9 C-4.93065133 11.60582371 -5.14917407 12.64198224 -4.0625 15.25 C-3.711875 15.8275 -3.36125 16.405 -3 17 C-2.01 17 -1.02 17 0 17 C1.35439668 14.29120665 1.06501451 11.99066732 1 9 C-0.65 9 -2.3 9 -4 9 Z " fill="#5F6061" transform="translate(339,242)"/>
<path d="M0 0 C2.69082872 0.17635452 5.32851446 0.61835921 8 1 C8 2.98 8 4.96 8 7 C8.66 7 9.32 7 10 7 C10.99 10.3 11.98 13.6 13 17 C13.33 13.7 13.66 10.4 14 7 C16.5390625 6.77213542 19.078125 6.54427083 21.6171875 6.31640625 C24.01110861 6.13010715 24.01110861 6.13010715 26 5 C26 5.66 26 6.32 26 7 C27.98 7 29.96 7 32 7 C32.02888514 10.14581423 32.04675923 13.29159469 32.0625 16.4375 C32.07087891 17.33533203 32.07925781 18.23316406 32.08789062 19.15820312 C32.09111328 20.01220703 32.09433594 20.86621094 32.09765625 21.74609375 C32.10289307 22.53685303 32.10812988 23.3276123 32.11352539 24.14233398 C32 26 32 26 31 27 C28.5 27.125 28.5 27.125 26 27 C25 26 25 26 24.90234375 23.27734375 C24.91394531 22.17519531 24.92554688 21.07304687 24.9375 19.9375 C24.94652344 18.83277344 24.95554688 17.72804687 24.96484375 16.58984375 C24.97644531 15.73519531 24.98804688 14.88054687 25 14 C23.68 14 22.36 14 21 14 C21 18.29 21 22.58 21 27 C16.71 27 12.42 27 8 27 C7.67 25.35 7.34 23.7 7 22 C4.69 22 2.38 22 0 22 C-0.33 23.65 -0.66 25.3 -1 27 C-2.98 27 -4.96 27 -7 27 C-7 24.03 -7 21.06 -7 18 C-6.34 18 -5.68 18 -5 18 C-5 16.35 -5 14.7 -5 13 C-4.34 13 -3.68 13 -3 13 C-3 10.69 -3 8.38 -3 6 C-2.34 6 -1.68 6 -1 6 C-1.020625 5.195625 -1.04125 4.39125 -1.0625 3.5625 C-1 1 -1 1 0 0 Z " fill="#5F6061" transform="translate(181,237)"/>
<path d="M0 0 C0.99 0.66 1.98 1.32 3 2 C3 2.66 3 3.32 3 4 C3.66 4 4.32 4 5 4 C5.042721 5.66611905 5.04063832 7.33382885 5 9 C4 10 4 10 1.5625 10.1875 C-1 10 -1 10 -3 8 C-5.57061311 7.35232207 -5.57061311 7.35232207 -8 7 C-8 7.99 -8 8.98 -8 10 C-8.66 10 -9.32 10 -10 10 C-10 12.64 -10 15.28 -10 18 C-9.34 18 -8.68 18 -8 18 C-8.020625 17.030625 -8.04125 16.06125 -8.0625 15.0625 C-8 12 -8 12 -7 11 C-5.16884117 10.90148829 -3.33380067 10.87027371 -1.5 10.875 C-0.4996875 10.87242187 0.500625 10.86984375 1.53125 10.8671875 C4 11 4 11 5 12 C5.07258946 14.18639453 5.08373783 16.37500389 5.0625 18.5625 C5.05347656 19.76003906 5.04445313 20.95757812 5.03515625 22.19140625 C5.02355469 23.11824219 5.01195312 24.04507812 5 25 C4.34 25 3.68 25 3 25 C3 25.66 3 26.32 3 27 C1.68 27 0.36 27 -1 27 C-1 27.66 -1 28.32 -1 29 C-8.1555306 29.48512072 -8.1555306 29.48512072 -11.9375 27.3125 C-14.18903896 24.78804723 -14.72253508 23.32957907 -15 20 C-15.66 20 -16.32 20 -17 20 C-17 15.71 -17 11.42 -17 7 C-16.34 7 -15.68 7 -15 7 C-14.9071875 6.1028125 -14.9071875 6.1028125 -14.8125 5.1875 C-14 3 -14 3 -12 1.25 C-8.00079155 -0.41633685 -4.28440512 -0.61778875 0 0 Z M-8 18 C-8 18.66 -8 19.32 -8 20 C-4.95086772 21.01111093 -4.95086772 21.01111093 -2 20 C-2 19.34 -2 18.68 -2 18 C-3.98 18 -5.96 18 -8 18 Z " fill="#5E6061" transform="translate(310,237)"/>
<path d="M0 0 C1.8125 0.375 1.8125 0.375 4 1 C5.051875 1.185625 5.051875 1.185625 6.125 1.375 C8 2 8 2 10 5 C10 5.99 10 6.98 10 8 C10.66 8 11.32 8 12 8 C12 10.31 12 12.62 12 15 C11.34 15 10.68 15 10 15 C9.67 16.65 9.34 18.3 9 20 C8.34 20 7.68 20 7 20 C7 20.66 7 21.32 7 22 C4 24 4 24 1.875 23.6875 C0 23 0 23 -1 22 C-1 23.98 -1 25.96 -1 28 C-3.31 28 -5.62 28 -8 28 C-8 19.42 -8 10.84 -8 2 C-4.535 1.505 -4.535 1.505 -1 1 C-0.67 0.67 -0.34 0.34 0 0 Z M-1 9 C-1 10.98 -1 12.96 -1 15 C-0.01 15.33 0.98 15.66 2 16 C2.66 15.67 3.32 15.34 4 15 C4 13.02 4 11.04 4 9 C2.35 9 0.7 9 -1 9 Z " fill="#5E6061" transform="translate(374,242)"/>
</svg>
