<?xml version="1.0" encoding="UTF-8"?>
<svg version="1.1" xmlns="http://www.w3.org/2000/svg" width="225" height="225">
<path d="M0 0 C74.25 0 148.5 0 225 0 C225 74.25 225 148.5 225 225 C150.75 225 76.5 225 0 225 C0 150.75 0 76.5 0 0 Z " fill="#FEFEFE" transform="translate(0,0)"/>
<path d="M0 0 C1.33804688 0.04060547 1.33804688 0.04060547 2.703125 0.08203125 C3.37859375 0.11683594 4.0540625 0.15164062 4.75 0.1875 C4.75 1.8375 4.75 3.4875 4.75 5.1875 C4.028125 4.836875 3.30625 4.48625 2.5625 4.125 C-0.64198948 3.05683684 -2.12327877 2.91991031 -5.25 4.1875 C-6.41610692 6.69879691 -6.41610692 6.69879691 -7.25 9.1875 C-6.5794458 9.17178955 -5.9088916 9.1560791 -5.21801758 9.13989258 C-2.1662649 9.07735342 0.88535268 9.03844937 3.9375 9 C4.99259766 8.97486328 6.04769531 8.94972656 7.13476562 8.92382812 C8.66713867 8.90932617 8.66713867 8.90932617 10.23046875 8.89453125 C11.16785889 8.8788208 12.10524902 8.86311035 13.07104492 8.84692383 C17.75450904 9.44233369 21.10436882 12.35200908 24.75 15.1875 C25.513125 14.383125 26.27625 13.57875 27.0625 12.75 C30.38941312 9.57782702 32.74231412 9.01742585 37.1875 8.875 C37.94933594 8.83761719 38.71117187 8.80023438 39.49609375 8.76171875 C42.75817985 9.37795339 43.72644447 10.56223549 45.75 13.1875 C47.03623215 15.82924782 48.02852859 18.54182389 49 21.3125 C49.4021875 22.40498047 49.4021875 22.40498047 49.8125 23.51953125 C51.75 28.86742666 51.75 28.86742666 51.75 31.1875 C52.41 31.1875 53.07 31.1875 53.75 31.1875 C53.86730469 30.32511719 53.98460937 29.46273437 54.10546875 28.57421875 C54.75763461 25.14738361 55.74250687 22.2243795 57.0625 19 C57.67544922 17.46279297 57.67544922 17.46279297 58.30078125 15.89453125 C60.41762486 11.94042714 62.55242337 10.58669221 66.75 9.1875 C68.31118428 9.12009135 69.8750252 9.10235544 71.4375 9.125 C72.64986328 9.13853516 72.64986328 9.13853516 73.88671875 9.15234375 C74.80904297 9.16974609 74.80904297 9.16974609 75.75 9.1875 C76.245 11.6625 76.245 11.6625 76.75 14.1875 C76.255 14.0225 75.76 13.8575 75.25 13.6875 C71.6870131 12.97490262 68.38465804 13.06833088 64.75 13.1875 C63.45366379 14.25395115 63.45366379 14.25395115 63.6875 16.75 C63.708125 17.554375 63.72875 18.35875 63.75 19.1875 C64.67683594 19.66960937 65.60367188 20.15171875 66.55859375 20.6484375 C67.76838743 21.2861582 68.97801426 21.92419548 70.1875 22.5625 C70.79916016 22.87960938 71.41082031 23.19671875 72.04101562 23.5234375 C76.63671875 25.9609375 76.63671875 25.9609375 77.75 28.1875 C78.55180859 35.17468915 78.55180859 35.17468915 75.375 39.1875 C71.2857513 42.0860844 66.55761656 41.97359909 61.75 41.1875 C60.265 40.1975 60.265 40.1975 58.75 39.1875 C58.75 37.8675 58.75 36.5475 58.75 35.1875 C59.430625 35.5175 60.11125 35.8475 60.8125 36.1875 C64.31804552 37.3808772 67.0674731 37.46027977 70.75 37.1875 C71.74 36.5275 72.73 35.8675 73.75 35.1875 C73.66616996 32.78419131 73.66616996 32.78419131 72.75 30.1875 C70.34636514 28.35056997 70.34636514 28.35056997 67.375 27 C64.35809491 25.49154745 61.56098134 24.06148756 58.75 22.1875 C58.62761963 22.90768311 58.50523926 23.62786621 58.37915039 24.36987305 C57.74641155 27.20357076 56.84165229 29.6108898 55.68359375 32.26953125 C55.28076172 33.20087891 54.87792969 34.13222656 54.46289062 35.09179688 C54.04201172 36.05150391 53.62113281 37.01121094 53.1875 38 C52.55038086 39.46856445 52.55038086 39.46856445 51.90039062 40.96679688 C50.85460494 43.37562907 49.80435216 45.78240803 48.75 48.1875 C47.43 48.1875 46.11 48.1875 44.75 48.1875 C46.55412371 42.51739691 46.55412371 42.51739691 47.9375 40.1875 C50.11004601 34.83969443 46.4081302 28.41408822 44.3125 23.4375 C43.99990234 22.67050781 43.68730469 21.90351562 43.36523438 21.11328125 C41.6221133 16.79398803 41.6221133 16.79398803 38.75 13.1875 C36.03545044 12.85997766 33.49769241 13.0566575 30.75 13.1875 C29.45366379 14.25395115 29.45366379 14.25395115 29.6875 16.75 C29.708125 17.554375 29.72875 18.35875 29.75 19.1875 C30.87148437 19.76757812 30.87148437 19.76757812 32.015625 20.359375 C33.00046875 20.88015625 33.9853125 21.4009375 35 21.9375 C35.97453125 22.44796875 36.9490625 22.9584375 37.953125 23.484375 C40.71174071 25.16420244 42.71299758 26.68489703 44.75 29.1875 C44.75 33.17044125 44.3669823 35.37904044 41.9375 38.5625 C37.53165803 41.83541118 33.07419694 41.44103319 27.75 41.1875 C26.76 40.5275 25.77 39.8675 24.75 39.1875 C24.5625 36.5625 24.5625 36.5625 24.75 34.1875 C25.430625 34.6825 26.11125 35.1775 26.8125 35.6875 C30.40461496 37.52177147 32.76285999 37.55667963 36.75 37.1875 C37.74 36.5275 38.73 35.8675 39.75 35.1875 C39.67604478 32.7860242 39.67604478 32.7860242 38.75 30.1875 C36.27800809 28.31710946 36.27800809 28.31710946 33.25 26.9375 C27.75 24.1875 27.75 24.1875 26.75 23.1875 C26.66363281 23.83976562 26.57726562 24.49203125 26.48828125 25.1640625 C25.35819508 32.19340583 23.73799952 36.16212106 17.9375 40.5625 C12.87528781 42.00884634 9.12613475 41.87556738 4.5 39.5625 C0.43618633 36.05284274 -1.94535939 33.62773343 -2.6328125 28.12109375 C-2.85622402 21.57513633 -2.75011569 17.10950154 1.75 12.1875 C-0.89 12.1875 -3.53 12.1875 -6.25 12.1875 C-6.25 21.4275 -6.25 30.6675 -6.25 40.1875 C-7.9 40.1875 -9.55 40.1875 -11.25 40.1875 C-11.25 30.9475 -11.25 21.7075 -11.25 12.1875 C-12.57 12.1875 -13.89 12.1875 -15.25 12.1875 C-15.25 11.1975 -15.25 10.2075 -15.25 9.1875 C-13.6 9.1875 -11.95 9.1875 -10.25 9.1875 C-10.1675 8.259375 -10.085 7.33125 -10 6.375 C-9.25 3.1875 -9.25 3.1875 -7.53125 1.5 C-4.78787707 -0.07837895 -3.13845039 -0.1238862 0 0 Z " fill="#167AB1" transform="translate(92.25,88.8125)"/>
<path d="M0 0 C1.66611905 -0.042721 3.33382885 -0.04063832 5 0 C6 1 6 1 6.11352539 3.13305664 C6.10828857 4.04949951 6.10305176 4.96594238 6.09765625 5.91015625 C6.09443359 6.89951172 6.09121094 7.88886719 6.08789062 8.90820312 C6.07951172 9.94912109 6.07113281 10.99003906 6.0625 12.0625 C6.05798828 13.10728516 6.05347656 14.15207031 6.04882812 15.22851562 C6.03699913 17.8190666 6.02051689 20.40950559 6 23 C6.66 23 7.32 23 8 23 C7.67 18.05 7.34 13.1 7 8 C9.31 8.33 11.62 8.66 14 9 C14.33 9.66 14.66 10.32 15 11 C15.70125 10.67 16.4025 10.34 17.125 10 C21.50819751 8.47540956 24.57355863 8.33432736 28.8125 10.3125 C31 12 31 12 32 15 C32.08266486 16.91906917 32.10740663 18.84089474 32.09765625 20.76171875 C32.09443359 21.87998047 32.09121094 22.99824219 32.08789062 24.15039062 C32.07532227 25.90125977 32.07532227 25.90125977 32.0625 27.6875 C32.05798828 28.86634766 32.05347656 30.04519531 32.04882812 31.25976562 C32.03703273 34.17322789 32.0205727 37.08658863 32 40 C30.35 40 28.7 40 27 40 C26.505 27.13 26.505 27.13 26 14 C23.26094655 12.63047327 21.02912668 12.87378639 18 13 C17.01 13.495 17.01 13.495 16 14 C16 19.61 16 25.22 16 31 C16.33 31 16.66 31 17 31 C17.33 34.3 17.66 37.6 18 41 C16.68 41.66 15.36 42.32 14 43 C14 43.66 14 44.32 14 45 C11.36 45.33 8.72 45.66 6 46 C7.485 45.505 7.485 45.505 9 45 C9 44.01 9 43.02 9 42 C8.236875 42.474375 7.47375 42.94875 6.6875 43.4375 C4 45 4 45 1 46 C0.19025097 43.15686669 -0.12241859 40.64297035 -0.11352539 37.69042969 C-0.11344986 36.84986023 -0.11337433 36.00929077 -0.11329651 35.14324951 C-0.10813522 34.24519592 -0.10297394 33.34714233 -0.09765625 32.421875 C-0.0962413 31.4953009 -0.09482635 30.56872681 -0.09336853 29.61407471 C-0.08777824 26.65935008 -0.0752275 23.70470167 -0.0625 20.75 C-0.05748375 18.74479276 -0.05292106 16.73958433 -0.04882812 14.734375 C-0.03781199 9.82288737 -0.020554 4.9114566 0 0 Z " fill="#E1F4F4" transform="translate(45,89)"/>
<path d="M0 0 C0.76183594 -0.03738281 1.52367187 -0.07476562 2.30859375 -0.11328125 C5.57067985 0.50295339 6.53894447 1.68723549 8.5625 4.3125 C9.84873215 6.95424782 10.84102859 9.66682389 11.8125 12.4375 C12.080625 13.16582031 12.34875 13.89414063 12.625 14.64453125 C14.5625 19.99242666 14.5625 19.99242666 14.5625 22.3125 C15.2225 22.3125 15.8825 22.3125 16.5625 22.3125 C16.67980469 21.45011719 16.79710937 20.58773437 16.91796875 19.69921875 C17.57013461 16.27238361 18.55500687 13.3493795 19.875 10.125 C20.28363281 9.10019531 20.69226563 8.07539062 21.11328125 7.01953125 C23.23012486 3.06542714 25.36492337 1.71169221 29.5625 0.3125 C31.12368428 0.24509135 32.6875252 0.22735544 34.25 0.25 C35.46236328 0.26353516 35.46236328 0.26353516 36.69921875 0.27734375 C37.62154297 0.29474609 37.62154297 0.29474609 38.5625 0.3125 C39.0575 2.7875 39.0575 2.7875 39.5625 5.3125 C39.0675 5.1475 38.5725 4.9825 38.0625 4.8125 C34.4995131 4.09990262 31.19715804 4.19333088 27.5625 4.3125 C26.26616379 5.37895115 26.26616379 5.37895115 26.5 7.875 C26.520625 8.679375 26.54125 9.48375 26.5625 10.3125 C27.48933594 10.79460937 28.41617188 11.27671875 29.37109375 11.7734375 C30.58088743 12.4111582 31.79051426 13.04919548 33 13.6875 C33.61166016 14.00460938 34.22332031 14.32171875 34.85351562 14.6484375 C39.44921875 17.0859375 39.44921875 17.0859375 40.5625 19.3125 C41.36430859 26.29968915 41.36430859 26.29968915 38.1875 30.3125 C34.0982513 33.2110844 29.37011656 33.09859909 24.5625 32.3125 C23.5725 31.6525 22.5825 30.9925 21.5625 30.3125 C21.5625 28.9925 21.5625 27.6725 21.5625 26.3125 C22.243125 26.6425 22.92375 26.9725 23.625 27.3125 C27.13054552 28.5058772 29.8799731 28.58527977 33.5625 28.3125 C34.5525 27.6525 35.5425 26.9925 36.5625 26.3125 C36.47866996 23.90919131 36.47866996 23.90919131 35.5625 21.3125 C33.15886514 19.47556997 33.15886514 19.47556997 30.1875 18.125 C27.17059491 16.61654745 24.37348134 15.18648756 21.5625 13.3125 C21.44011963 14.03268311 21.31773926 14.75286621 21.19165039 15.49487305 C20.55891155 18.32857076 19.65415229 20.7358898 18.49609375 23.39453125 C18.09326172 24.32587891 17.69042969 25.25722656 17.27539062 26.21679688 C16.85451172 27.17650391 16.43363281 28.13621094 16 29.125 C15.57525391 30.10404297 15.15050781 31.08308594 14.71289062 32.09179688 C13.66710494 34.50062907 12.61685216 36.90740803 11.5625 39.3125 C10.2425 39.3125 8.9225 39.3125 7.5625 39.3125 C9.36662371 33.64239691 9.36662371 33.64239691 10.75 31.3125 C12.92254601 25.96469443 9.2206302 19.53908822 7.125 14.5625 C6.81240234 13.79550781 6.49980469 13.02851562 6.17773438 12.23828125 C4.4346133 7.91898803 4.4346133 7.91898803 1.5625 4.3125 C-1.15204956 3.98497766 -3.68980759 4.1816575 -6.4375 4.3125 C-7.73383621 5.37895115 -7.73383621 5.37895115 -7.5 7.875 C-7.479375 8.679375 -7.45875 9.48375 -7.4375 10.3125 C-6.68984375 10.69921875 -5.9421875 11.0859375 -5.171875 11.484375 C-4.18703125 12.00515625 -3.2021875 12.5259375 -2.1875 13.0625 C-1.21296875 13.57296875 -0.2384375 14.0834375 0.765625 14.609375 C3.52424071 16.28920244 5.52549758 17.80989703 7.5625 20.3125 C7.5625 24.29544125 7.1794823 26.50404044 4.75 29.6875 C0.34415803 32.96041118 -4.11330306 32.56603319 -9.4375 32.3125 C-10.4275 31.6525 -11.4175 30.9925 -12.4375 30.3125 C-12.625 27.6875 -12.625 27.6875 -12.4375 25.3125 C-11.756875 25.8075 -11.07625 26.3025 -10.375 26.8125 C-6.78288504 28.64677147 -4.42464001 28.68167963 -0.4375 28.3125 C0.5525 27.6525 1.5425 26.9925 2.5625 26.3125 C2.48854478 23.9110242 2.48854478 23.9110242 1.5625 21.3125 C-0.90949191 19.44210946 -0.90949191 19.44210946 -3.9375 18.0625 C-9.4375 15.3125 -9.4375 15.3125 -10.4375 14.3125 C-11.0975 17.6125 -11.7575 20.9125 -12.4375 24.3125 C-13.4275 24.3125 -14.4175 24.3125 -15.4375 24.3125 C-15.52837891 23.13494141 -15.52837891 23.13494141 -15.62109375 21.93359375 C-16.06570214 16.35888852 -16.55874643 10.83609384 -17.4375 5.3125 C-16.3546875 5.7146875 -16.3546875 5.7146875 -15.25 6.125 C-13.8578125 6.2178125 -13.8578125 6.2178125 -12.4375 6.3125 C-9.77083333 3.97916667 -9.77083333 3.97916667 -7.4375 1.3125 C-4.71857436 0.40619145 -2.82406013 0.09048422 0 0 Z " fill="#1679B0" transform="translate(129.4375,97.6875)"/>
<path d="M0 0 C3.9152244 2.40252407 5.8838209 4.53528359 7 9 C7.44769299 14.64093173 7.17371398 18.12608211 4 23 C1.54075139 25.63490923 0.16387573 25.97318397 -3.4375 26.5625 C-7.16400713 25.97410414 -7.60753709 25.81309371 -9.875 23.125 C-13.36472935 17.99304507 -13.69766693 14.14701131 -13 8 C-9.90413923 2.02178609 -6.90051084 -0.8280613 0 0 Z " fill="#F6FAFA" transform="translate(107,101)"/>
<path d="M0 0 C1.32 0 2.64 0 4 0 C4.33 0.66 4.66 1.32 5 2 C5.70125 1.67 6.4025 1.34 7.125 1 C11.50819751 -0.52459044 14.57355863 -0.66567264 18.8125 1.3125 C21 3 21 3 22 6 C22.08266486 7.91906917 22.10740663 9.84089474 22.09765625 11.76171875 C22.09443359 12.87998047 22.09121094 13.99824219 22.08789062 15.15039062 C22.07951172 16.31763672 22.07113281 17.48488281 22.0625 18.6875 C22.05798828 19.86634766 22.05347656 21.04519531 22.04882812 22.25976562 C22.03703273 25.17322789 22.0205727 28.08658863 22 31 C20.35 31 18.7 31 17 31 C16.505 18.13 16.505 18.13 16 5 C13.22899606 3.61449803 11.0665294 3.8122533 8 4 C7.01 4.66 6.02 5.32 5 6 C4.48987435 8.61196291 4.48987435 8.61196291 4.48828125 11.6640625 C4.45283203 12.78554687 4.41738281 13.90703125 4.38085938 15.0625 C4.35830078 16.238125 4.33574219 17.41375 4.3125 18.625 C4.27833984 19.80835937 4.24417969 20.99171875 4.20898438 22.2109375 C4.12629425 25.1405306 4.05721286 28.0698164 4 31 C2.68 31 1.36 31 0 31 C0 20.77 0 10.54 0 0 Z " fill="#328AB8" transform="translate(55,98)"/>
<path d="M0 0 C0.55429688 0.27972656 1.10859375 0.55945313 1.6796875 0.84765625 C3.28093229 1.64288725 4.89099721 2.42051738 6.5078125 3.18359375 C7.80332031 3.80427734 7.80332031 3.80427734 9.125 4.4375 C9.99382812 4.84871094 10.86265625 5.25992188 11.7578125 5.68359375 C14 7 14 7 16 10 C15.8125 12.0625 15.8125 12.0625 15 14 C11.27420911 16.48386059 9.41288598 16.3804212 5 16 C2.0625 14.5 2.0625 14.5 0 13 C0.34786708 14.97536745 0.34786708 14.97536745 1 17 C4.70070696 18.85035348 8.96155254 18.4754747 13 18 C15.41534564 16.91546245 16.9518276 15.72477676 19 14 C17.69386058 17.91841827 16.16870152 20.32640809 13 23 C12.34 23 11.68 23 11 23 C11 22.34 11 21.68 11 21 C6.71 21 2.42 21 -2 21 C-2 20.34 -2 19.68 -2 19 C-3.65 18.67 -5.3 18.34 -7 18 C-6.20875876 15.93733676 -5.41698909 13.87487621 -4.625 11.8125 C-4.18414062 10.66394531 -3.74328125 9.51539062 -3.2890625 8.33203125 C-2.21147857 5.54664006 -1.1163557 2.77002279 0 0 Z " fill="#EEF6F3" transform="translate(151,111)"/>
<path d="M0 0 C2.12740708 1.12063415 4.25189819 2.24626233 6.375 3.375 C6.97828125 3.69210938 7.5815625 4.00921875 8.203125 4.3359375 C10.78550382 5.7132062 12.91830581 6.91830581 15 9 C14.8125 11.5 14.8125 11.5 14 14 C10.28986601 16.47342266 8.38939738 16.38503486 4 16 C1.5625 14.5 1.5625 14.5 0 13 C0 14.65 0 16.3 0 18 C-0.66 18 -1.32 18 -2 18 C-2.598125 18.969375 -3.19625 19.93875 -3.8125 20.9375 C-6 24 -6 24 -8.75 24.875 C-9.4925 24.91625 -10.235 24.9575 -11 25 C-11.66 24.01 -12.32 23.02 -13 22 C-13.33 22.66 -13.66 23.32 -14 24 C-15.98 23.67 -17.96 23.34 -20 23 C-20 22.34 -20 21.68 -20 21 C-20.66 20.67 -21.32 20.34 -22 20 C-22 19.01 -22 18.02 -22 17 C-21.505 17.165 -21.01 17.33 -20.5 17.5 C-15.2118477 18.55763046 -11.47055531 18.74915082 -6.6875 16.3125 C-1.62064577 11.95264868 -0.65032408 8.24801295 -0.11328125 1.79296875 C-0.07589844 1.20128906 -0.03851563 0.60960938 0 0 Z " fill="#E6F4F5" transform="translate(118,111)"/>
<path d="M0 0 C2.5836755 0.47580559 3.2735287 1.38055277 4.97265625 3.36328125 C6.63040296 6.55039947 7.89399038 9.90238088 9.22265625 13.23828125 C9.5990625 14.13675781 9.97546875 15.03523438 10.36328125 15.9609375 C10.71390625 16.83363281 11.06453125 17.70632812 11.42578125 18.60546875 C11.74708008 19.39808105 12.06837891 20.19069336 12.39941406 21.00732422 C13.4601366 25.36676736 11.93003446 28.83149692 9.91015625 32.67578125 C9.54792969 33.37316406 9.18570313 34.07054687 8.8125 34.7890625 C8.53535156 35.30855469 8.25820312 35.82804687 7.97265625 36.36328125 C9.29265625 36.69328125 10.61265625 37.02328125 11.97265625 37.36328125 C10.32265625 37.36328125 8.67265625 37.36328125 6.97265625 37.36328125 C6.97265625 36.37328125 6.97265625 35.38328125 6.97265625 34.36328125 C4.99265625 34.36328125 3.01265625 34.36328125 0.97265625 34.36328125 C1.30265625 33.70328125 1.63265625 33.04328125 1.97265625 32.36328125 C5.03515625 31.73828125 5.03515625 31.73828125 7.97265625 31.36328125 C7.97265625 30.70328125 7.97265625 30.04328125 7.97265625 29.36328125 C7.23015625 29.56953125 6.48765625 29.77578125 5.72265625 29.98828125 C2.64934784 30.40736876 1.54478759 29.98277136 -1.02734375 28.36328125 C-0.07859375 28.11578125 0.87015625 27.86828125 1.84765625 27.61328125 C4.98567556 26.66936785 4.98567556 26.66936785 6.34765625 24.55078125 C7.10223112 21.90976921 7.38250866 20.09563063 6.97265625 17.36328125 C4.123264 13.2187107 -0.46115312 11.50512543 -4.8828125 9.4140625 C-7.02734375 8.36328125 -7.02734375 8.36328125 -8.02734375 7.36328125 C-8.21484375 4.92578125 -8.21484375 4.92578125 -8.02734375 2.36328125 C-5.4339847 -0.2300778 -3.53987343 0.08601562 0 0 Z " fill="#E5F4F6" transform="translate(129.02734375,100.63671875)"/>
<path d="M0 0 C1.65 0 3.3 0 5 0 C5 13.2 5 26.4 5 40 C3.35 40 1.7 40 0 40 C0 26.8 0 13.6 0 0 Z " fill="#106FA1" transform="translate(45,89)"/>
<path d="M0 0 C0 0.66 0 1.32 0 2 C-1.65 2 -3.3 2 -5 2 C-5 2.99 -5 3.98 -5 5 C-3.68 5 -2.36 5 -1 5 C-1 14.24 -1 23.48 -1 33 C0.32 33.33 1.64 33.66 3 34 C-1.29 34 -5.58 34 -10 34 C-10 33.67 -10 33.34 -10 33 C-8.35 33 -6.7 33 -5 33 C-5.13867261 28.89555833 -5.28716103 24.7915296 -5.4375 20.6875 C-5.47681641 19.52025391 -5.51613281 18.35300781 -5.55664062 17.15039062 C-5.59853516 16.03212891 -5.64042969 14.91386719 -5.68359375 13.76171875 C-5.72025146 12.73006592 -5.75690918 11.69841309 -5.79467773 10.63549805 C-5.90161242 7.89251742 -5.90161242 7.89251742 -7 5 C-9.98111479 2.9754627 -12.04819548 2.81895131 -15.5625 3.3125 C-16.70912109 3.46138672 -16.70912109 3.46138672 -17.87890625 3.61328125 C-20.17759623 3.9808987 -20.17759623 3.9808987 -23 5 C-22.67 3.68 -22.34 2.36 -22 1 C-14.64424835 0.29223008 -7.3905476 -0.14715692 0 0 Z " fill="#EFFCFC" transform="translate(82,96)"/>
<path d="M0 0 C0.309375 0.639375 0.61875 1.27875 0.9375 1.9375 C1.8345163 3.93610821 1.8345163 3.93610821 3 5 C3.08767112 7.07262076 3.10695873 9.14820294 3.09765625 11.22265625 C3.09443359 12.48271484 3.09121094 13.74277344 3.08789062 15.04101562 C3.07953403 16.38151109 3.07106907 17.72200588 3.0625 19.0625 C3.0574866 20.40689942 3.05292342 21.7513006 3.04882812 23.09570312 C3.03699488 26.39717941 3.02050971 29.69856803 3 33 C1.35 33 -0.3 33 -2 33 C-2 23.76 -2 14.52 -2 5 C-3.32 5 -4.64 5 -6 5 C-5.67 4.01 -5.34 3.02 -5 2 C-3.35 2.33 -1.7 2.66 0 3 C0 2.01 0 1.02 0 0 Z " fill="#328ABF" transform="translate(83,96)"/>
<path d="M0 0 C2.64 0 5.28 0 8 0 C7 2 6 4 5 6 C4.33898172 13.74800115 4.27659002 19.65291784 9 26 C8.401875 25.835 7.80375 25.67 7.1875 25.5 C4.88655664 24.8885876 4.88655664 24.8885876 2 25 C1.34 25.99 0.68 26.98 0 28 C0 18.76 0 9.52 0 0 Z " fill="#EBFCFA" transform="translate(86,101)"/>
<path d="M0 0 C0.99 0.33 1.98 0.66 3 1 C3.66015625 3.03125 3.66015625 3.03125 4.0625 5.5 C4.42516952 7.91007019 4.42516952 7.91007019 5 10 C5.66 10.33 6.32 10.66 7 11 C7.4125 10.236875 7.825 9.47375 8.25 8.6875 C9.95875809 6.0633358 11.41017753 4.69678024 14 3 C14.66 3.33 15.32 3.66 16 4 C13.69 9.94 11.38 15.88 9 22 C8.34 22 7.68 22 7 22 C4.36 15.07 1.72 8.14 -1 1 C-0.67 0.67 -0.34 0.34 0 0 Z " fill="#F5FCFC" transform="translate(137,98)"/>
<path d="M0 0 C3.58060962 0.07161219 5.52291402 0.71041402 8.125 3.3125 C7.465 4.9625 6.805 6.6125 6.125 8.3125 C5.135 7.9825 4.145 7.6525 3.125 7.3125 C2.795 8.6325 2.465 9.9525 2.125 11.3125 C-3.625 9.5625 -3.625 9.5625 -5.875 7.3125 C-6.125 4.8125 -6.125 4.8125 -5.875 2.3125 C-3.875 0.3125 -3.875 0.3125 0 0 Z " fill="#F0F7F6" transform="translate(160.875,100.6875)"/>
<path d="M0 0 C3.46941546 0.45822468 6.67395049 0.89131683 10 2 C9.51327434 8.32743363 9.51327434 8.32743363 7.1875 11.375 C2.78165803 14.64791118 -1.67580306 14.25353319 -7 14 C-7.99 13.34 -8.98 12.68 -10 12 C-10.1875 9.375 -10.1875 9.375 -10 7 C-8.9790625 7.7425 -8.9790625 7.7425 -7.9375 8.5 C-4.34538504 10.33427147 -1.98714001 10.36917963 2 10 C2.99 9.34 3.98 8.68 5 8 C4.64950425 4.75791433 4.43778819 3.38472296 1.9375 1.1875 C1.298125 0.795625 0.65875 0.40375 0 0 Z " fill="#2A82B1" transform="translate(127,116)"/>
<path d="M0 0 C1.33804688 0.04060547 1.33804688 0.04060547 2.703125 0.08203125 C3.37859375 0.11683594 4.0540625 0.15164062 4.75 0.1875 C4.75 1.8375 4.75 3.4875 4.75 5.1875 C4.028125 4.836875 3.30625 4.48625 2.5625 4.125 C-0.64198948 3.05683684 -2.12327877 2.91991031 -5.25 4.1875 C-5.91 5.8375 -6.57 7.4875 -7.25 9.1875 C0.01 9.1875 7.27 9.1875 14.75 9.1875 C14.42 9.8475 14.09 10.5075 13.75 11.1875 C12.60724609 11.17009766 12.60724609 11.17009766 11.44140625 11.15234375 C6.44076498 11.10864277 1.58444666 11.12481164 -3.375 11.8125 C-5.293125 11.998125 -5.293125 11.998125 -7.25 12.1875 C-7.91 11.5275 -8.57 10.8675 -9.25 10.1875 C-11.85280568 10.50791397 -11.85280568 10.50791397 -14.25 11.1875 C-14.25 10.5275 -14.25 9.8675 -14.25 9.1875 C-12.93 9.1875 -11.61 9.1875 -10.25 9.1875 C-10.1675 8.259375 -10.085 7.33125 -10 6.375 C-9.25 3.1875 -9.25 3.1875 -7.53125 1.5 C-4.78787707 -0.07837895 -3.13845039 -0.1238862 0 0 Z " fill="#096CA4" transform="translate(92.25,88.8125)"/>
<path d="M0 0 C1.32 0.66 2.64 1.32 4 2 C4 2.99 4 3.98 4 5 C4.66 5 5.32 5 6 5 C5.67 3.68 5.34 2.36 5 1 C5.66 1 6.32 1 7 1 C7.125 3.375 7.125 3.375 7 6 C6.34 6.66 5.68 7.32 5 8 C3.68 8 2.36 8 1 8 C1 8.99 1 9.98 1 11 C0.01 11.495 0.01 11.495 -1 12 C-2.13350534 14.01669827 -2.13350534 14.01669827 -3 16 C-3.66 14.35 -4.32 12.7 -5 11 C-8.63 11 -12.26 11 -16 11 C-15.67 10.34 -15.34 9.68 -15 9 C-12.6015625 8.62109375 -12.6015625 8.62109375 -9.625 8.4375 C-6.46357425 8.23313343 -4.01866352 8.00622117 -1 7 C-1.20625 6.21625 -1.4125 5.4325 -1.625 4.625 C-1.74875 3.75875 -1.8725 2.8925 -2 2 C-1.34 1.34 -0.68 0.68 0 0 Z " fill="#E3F6F9" transform="translate(173,88)"/>
<path d="M0 0 C3.91402949 1.26941497 5.79072873 2.51167694 8 6 C6.25 6.6875 6.25 6.6875 4 7 C3.38125 6.525625 2.7625 6.05125 2.125 5.5625 C-0.76992387 3.43387951 -2.47394122 3.5682377 -6 4 C-8.71126384 5.42621684 -8.71126384 5.42621684 -11 7 C-11.66 7 -12.32 7 -13 7 C-13.99 7.66 -14.98 8.32 -16 9 C-15 7 -14 5 -13 3 C-15.64 3 -18.28 3 -21 3 C-21 2.67 -21 2.34 -21 2 C-15.0911019 1.09093875 -9.41883416 0.94280182 -3.44140625 1.0625 C-1.05219169 1.28178475 -1.05219169 1.28178475 0 0 Z " fill="#2984B3" transform="translate(107,98)"/>
<path d="M0 0 C3.17483445 4.2331126 3.36878745 4.90588688 3.29296875 9.859375 C3.28330078 10.97441406 3.27363281 12.08945313 3.26367188 13.23828125 C3.23853516 14.39714844 3.21339844 15.55601563 3.1875 16.75 C3.17396484 17.92433594 3.16042969 19.09867188 3.14648438 20.30859375 C3.1111478 23.20619298 3.06180979 26.10286427 3 29 C2.01 29 1.02 29 0 29 C0 19.43 0 9.86 0 0 Z " fill="#0375B3" transform="translate(55,99)"/>
<path d="M0 0 C0.33 1.32 0.66 2.64 1 4 C1.66 4 2.32 4 3 4 C1.48209259 8.25014075 -1.06377171 9.95899274 -5 12 C-9.06821473 12.7244766 -12.25972687 12.37013657 -16 10.5 C-16.66 10.005 -17.32 9.51 -18 9 C-17.34 7.68 -16.68 6.36 -16 5 C-15.4740625 5.7425 -15.4740625 5.7425 -14.9375 6.5 C-12.95433546 8.28825805 -12.95433546 8.28825805 -9.625 8.5 C-5.10840084 7.87702081 -3.78631339 6.52386694 -1 3 C-0.67 2.01 -0.34 1.02 0 0 Z " fill="#237AA8" transform="translate(113,118)"/>
<path d="M0 0 C0.66 0 1.32 0 2 0 C1.67 1.32 1.34 2.64 1 4 C2.32 4.33 3.64 4.66 5 5 C5 5.66 5 6.32 5 7 C2.525 6.01 2.525 6.01 0 5 C0.34786708 6.97536745 0.34786708 6.97536745 1 9 C4.70070696 10.85035348 8.96155254 10.4754747 13 10 C15.41534564 8.91546245 16.9518276 7.72477676 19 6 C17.69386058 9.91841827 16.16870152 12.32640809 13 15 C12.34 15 11.68 15 11 15 C11 14.34 11 13.68 11 13 C6.71 13 2.42 13 -2 13 C-2 9.7 -2 6.4 -2 3 C-1.34 3 -0.68 3 0 3 C0 2.01 0 1.02 0 0 Z " fill="#D8F0F3" transform="translate(151,119)"/>
<path d="M0 0 C6.75 0.75 6.75 0.75 9 3 C9.66 3 10.32 3 11 3 C11.625 4.875 11.625 4.875 12 7 C10 9 10 9 7.5625 9.1875 C5 9 5 9 2 8 C-0.1519437 4.77208445 -0.20086443 3.71599191 0 0 Z " fill="#F8FCF8" transform="translate(118,116)"/>
<path d="M0 0 C6.15234375 -0.09765625 6.15234375 -0.09765625 8 0 C9 1 9 1 9.0625 4.5625 C9.041875 5.696875 9.02125 6.83125 9 8 C8.34 8 7.68 8 7 8 C7 8.66 7 9.32 7 10 C5.68 9.34 4.36 8.68 3 8 C3 7.34 3 6.68 3 6 C2.01 6 1.02 6 0 6 C0 4.02 0 2.04 0 0 Z " fill="#EFF7F0" transform="translate(123,101)"/>
<path d="M0 0 C2.625 0.375 2.625 0.375 5 1 C5 1.66 5 2.32 5 3 C4.030625 3.12375 3.06125 3.2475 2.0625 3.375 C1.051875 3.58125 0.04125 3.7875 -1 4 C-1.33 4.66 -1.66 5.32 -2 6 C-0.78884521 5.9388501 -0.78884521 5.9388501 0.44677734 5.87646484 C4.08908689 5.69857363 7.73193234 5.53658768 11.375 5.375 C12.64601563 5.31054688 13.91703125 5.24609375 15.2265625 5.1796875 C16.43828125 5.128125 17.65 5.0765625 18.8984375 5.0234375 C20.57945557 4.94488525 20.57945557 4.94488525 22.29443359 4.86474609 C25 5 25 5 27 7 C27.125 9.625 27.125 9.625 27 12 C26.09121094 11.35546875 25.18242188 10.7109375 24.24609375 10.046875 C19.12160825 7.11859757 13.8335491 7.32881011 8.0625 7.25 C6.99708984 7.22035156 5.93167969 7.19070312 4.83398438 7.16015625 C2.22258213 7.08989431 -0.38795004 7.03698252 -3 7 C-2.25 2.25 -2.25 2.25 0 0 Z " fill="#CEF3FC" transform="translate(88,91)"/>
<path d="M0 0 C0.99 0.33 1.98 0.66 3 1 C3 2.32 3 3.64 3 5 C6.16666667 3.16666667 6.16666667 3.16666667 8 0 C8.33 2.64 8.66 5.28 9 8 C7.68 7.67 6.36 7.34 5 7 C5.020625 8.2375 5.04125 9.475 5.0625 10.75 C5.06766681 13.6640825 4.93015558 16.20953327 4 19 C3.34 19 2.68 19 2 19 C1.90912109 17.82244141 1.90912109 17.82244141 1.81640625 16.62109375 C1.37179786 11.04638852 0.87875357 5.52359384 0 0 Z " fill="#057BBF" transform="translate(112,103)"/>
<path d="M0 0 C0.33 0 0.66 0 1 0 C1.93087909 3.93288364 2.11608885 7.57654163 2.09765625 11.61328125 C2.09443359 12.86044922 2.09121094 14.10761719 2.08789062 15.39257812 C2.07951172 16.68615234 2.07113281 17.97972656 2.0625 19.3125 C2.05798828 20.62541016 2.05347656 21.93832031 2.04882812 23.29101562 C2.03705949 26.5273901 2.0206176 29.76367178 2 33 C1.01 33 0.02 33 -1 33 C-0.67 22.11 -0.34 11.22 0 0 Z " fill="#067DC0" transform="translate(47,95)"/>
<path d="M0 0 C0 0.66 0 1.32 0 2 C-1.65 2 -3.3 2 -5 2 C-4.62875 2.928125 -4.2575 3.85625 -3.875 4.8125 C-3.58625 5.864375 -3.2975 6.91625 -3 8 C-3.99 9.485 -3.99 9.485 -5 11 C-5.2475 10.05125 -5.495 9.1025 -5.75 8.125 C-6.66966358 4.97950982 -6.66966358 4.97950982 -8.79296875 3.78515625 C-11.33671777 2.88021191 -12.90292624 2.93898964 -15.5625 3.3125 C-16.70912109 3.46138672 -16.70912109 3.46138672 -17.87890625 3.61328125 C-20.17759623 3.9808987 -20.17759623 3.9808987 -23 5 C-22.67 3.68 -22.34 2.36 -22 1 C-14.64424835 0.29223008 -7.3905476 -0.14715692 0 0 Z " fill="#E2F3F2" transform="translate(82,96)"/>
<path d="M0 0 C1.32 0 2.64 0 4 0 C4.33 0.66 4.66 1.32 5 2 C7.31 2 9.62 2 12 2 C11.1028125 2.433125 11.1028125 2.433125 10.1875 2.875 C7.80672208 4.04742026 7.80672208 4.04742026 5 6 C4.48987435 8.61196291 4.48987435 8.61196291 4.48828125 11.6640625 C4.45283203 12.78554687 4.41738281 13.90703125 4.38085938 15.0625 C4.35830078 16.238125 4.33574219 17.41375 4.3125 18.625 C4.27833984 19.80835937 4.24417969 20.99171875 4.20898438 22.2109375 C4.12629425 25.1405306 4.05721286 28.0698164 4 31 C2.68 30.67 1.36 30.34 0 30 C0.99 30 1.98 30 3 30 C3 21.75 3 13.5 3 5 C2.34 4.67 1.68 4.34 1 4 C0.375 1.9375 0.375 1.9375 0 0 Z " fill="#3783AD" transform="translate(55,98)"/>
<path d="M0 0 C0.103125 0.639375 0.20625 1.27875 0.3125 1.9375 C0.6528125 2.9584375 0.6528125 2.9584375 1 4 C1.99 4.33 2.98 4.66 4 5 C4 5.66 4 6.32 4 7 C4.66 7.33 5.32 7.66 6 8 C0.39 8 -5.22 8 -11 8 C-10.67 7.01 -10.34 6.02 -10 5 C-8.0625 4.25 -8.0625 4.25 -6 4 C-5.34 4.33 -4.68 4.66 -4 5 C-3.67 4.34 -3.34 3.68 -3 3 C-2.34 3.33 -1.68 3.66 -1 4 C-0.67 2.68 -0.34 1.36 0 0 Z " fill="#F5FBF6" transform="translate(97,89)"/>
<path d="M0 0 C0.639375 0.33 1.27875 0.66 1.9375 1 C6.01236841 2.33056928 9.75190425 2.16659199 14 2 C14.33 2.99 14.66 3.98 15 5 C12.53630468 6.23184766 10.8105499 6.16732342 8.0625 6.1875 C7.18722656 6.20167969 6.31195313 6.21585938 5.41015625 6.23046875 C3 6 3 6 0 4 C0 2.68 0 1.36 0 0 Z " fill="#2F80AC" transform="translate(151,124)"/>
<path d="M0 0 C2.35050868 3.67266981 2.36348132 6.7109204 2 11 C1.17084971 13.463487 0.14795551 15.6562575 -1 18 C-2.32 18 -3.64 18 -5 18 C-3.20731707 12.36585366 -3.20731707 12.36585366 -1.9375 10.125 C-0.48982963 6.84361383 -0.35595661 3.55956611 0 0 Z " fill="#0D76B4" transform="translate(142,119)"/>
<path d="M0 0 C0.33 0 0.66 0 1 0 C1.66 3.63 2.32 7.26 3 11 C3.9075 11.226875 4.815 11.45375 5.75 11.6875 C9.44888324 13.18127977 10.77905658 14.75400577 13 18 C9.8125 18.375 9.8125 18.375 6 18 C3.32881021 15.80894812 1.54404235 13.0880847 0 10 C-0.06996014 8.29297265 -0.08440154 6.58331997 -0.0625 4.875 C-0.05347656 3.96492188 -0.04445313 3.05484375 -0.03515625 2.1171875 C-0.02355469 1.41851562 -0.01195313 0.71984375 0 0 Z " fill="#D5EEF1" transform="translate(94,109)"/>
<path d="M0 0 C0.66 0.474375 1.32 0.94875 2 1.4375 C5.7933028 3.41317854 8.75524068 3.64027463 13 4 C13 4.66 13 5.32 13 6 C9.87293041 7.5635348 6.42017557 7.39958487 3 7 C2.01 6.34 1.02 5.68 0 5 C-0.1875 2.375 -0.1875 2.375 0 0 Z " fill="#277BA6" transform="translate(117,123)"/>
<path d="M0 0 C2.14964682 1.11817512 4.29457566 2.24407448 6.4375 3.375 C7.35499023 3.85066406 7.35499023 3.85066406 8.29101562 4.3359375 C12.88671875 6.7734375 12.88671875 6.7734375 14 9 C13.01 9.33 12.02 9.66 11 10 C11 9.34 11 8.68 11 8 C9.68 8.33 8.36 8.66 7 9 C7 8.34 7 7.68 7 7 C4.69 6.34 2.38 5.68 0 5 C0 3.35 0 1.7 0 0 Z " fill="#E1F4F7" transform="translate(118,111)"/>
<path d="M0 0 C1.9375 0.6875 1.9375 0.6875 4 2 C4.75 4.625 4.75 4.625 5 7 C2.28817788 9.60334924 1.10866187 9.99456691 -2.75 10.1875 C-4.35875 10.0946875 -4.35875 10.0946875 -6 10 C-6 9.67 -6 9.34 -6 9 C-4.02 9 -2.04 9 0 9 C0 8.01 0 7.02 0 6 C-1.32 5.67 -2.64 5.34 -4 5 C-2.35 4.67 -0.7 4.34 1 4 C1 4.99 1 5.98 1 7 C1.66 7 2.32 7 3 7 C2.505 6.21625 2.01 5.4325 1.5 4.625 C0 2 0 2 0 0 Z " fill="#D9F2F7" transform="translate(162,117)"/>
<path d="M0 0 C0.33 0 0.66 0 1 0 C1.02578125 0.56847656 1.0515625 1.13695313 1.078125 1.72265625 C1.50434233 7.52502403 2.79821783 11.1456851 6 16 C5.401875 15.835 4.80375 15.67 4.1875 15.5 C1.88655664 14.8885876 1.88655664 14.8885876 -1 15 C-1.5625 13.0625 -1.5625 13.0625 -2 11 C-1.67 10.67 -1.34 10.34 -1 10 C-0.76712992 8.31816052 -0.58735834 6.6287584 -0.4375 4.9375 C-0.35371094 4.01839844 -0.26992187 3.09929687 -0.18359375 2.15234375 C-0.12300781 1.44207031 -0.06242187 0.73179688 0 0 Z " fill="#DAECF0" transform="translate(89,111)"/>
<path d="M0 0 C0.99 0.66 1.98 1.32 3 2 C2.01 4.64 1.02 7.28 0 10 C-0.66 10 -1.32 10 -2 10 C-3.49821059 6.62902617 -4 4.79557881 -4 1 C-2.68 1.33 -1.36 1.66 0 2 C0 1.34 0 0.68 0 0 Z " fill="#E0F0F4" transform="translate(146,110)"/>
<path d="M0 0 C0 1.65 0 3.3 0 5 C-0.9590625 4.4740625 -0.9590625 4.4740625 -1.9375 3.9375 C-6.1430267 2.65009387 -9.71464763 3.3091153 -14 4 C-10.36515075 -1.28705346 -5.79646176 -0.3982302 0 0 Z " fill="#277BAB" transform="translate(97,89)"/>
<path d="M0 0 C2.18975773 3.28463659 2.99806563 6.20696275 4 10 C3.34 10 2.68 10 2 10 C1.67 11.65 1.34 13.3 1 15 C0.34 14.67 -0.32 14.34 -1 14 C-0.6596875 12.39125 -0.6596875 12.39125 -0.3125 10.75 C0.35775825 7.07021424 0.35775825 7.07021424 -1.4375 4.5625 C-1.953125 4.046875 -2.46875 3.53125 -3 3 C-2.01 2.01 -1.02 1.02 0 0 Z " fill="#CFEBF3" transform="translate(136,111)"/>
<path d="M0 0 C0.99 0 1.98 0 3 0 C3.66 0.99 4.32 1.98 5 3 C5.66 3 6.32 3 7 3 C6.34 4.98 5.68 6.96 5 9 C3.0625 8.4375 3.0625 8.4375 1 7 C0.25 3.375 0.25 3.375 0 0 Z " fill="#FCFAF3" transform="translate(140,101)"/>
<path d="M0 0 C1.125 3.75 1.125 3.75 0 6 C-0.66 6 -1.32 6 -2 6 C-2 7.98 -2 9.96 -2 12 C-2.66 12 -3.32 12 -4 12 C-5.14507772 6.71502591 -5.14507772 6.71502591 -5 4 C-2.5625 1.5 -2.5625 1.5 0 0 Z " fill="#147DBB" transform="translate(95,103)"/>
<path d="M0 0 C2.34914492 2.34914492 2.73140357 3.95679446 3.625 7.125 C3.88539063 8.03507812 4.14578125 8.94515625 4.4140625 9.8828125 C4.70410156 10.93082031 4.70410156 10.93082031 5 12 C4.01 12 3.02 12 2 12 C1.67 12.66 1.34 13.32 1 14 C0.34 12.02 -0.32 10.04 -1 8 C-0.34 8 0.32 8 1 8 C0.67 5.36 0.34 2.72 0 0 Z " fill="#2983AF" transform="translate(136,100)"/>
<path d="M0 0 C0.99 0.66 1.98 1.32 3 2 C2.67 3.65 2.34 5.3 2 7 C1.113125 6.360625 0.22625 5.72125 -0.6875 5.0625 C-3.69211428 3.19170243 -5.5510371 2.40576034 -9 2 C-5.53001271 -0.31332486 -4.07490752 -0.33957563 0 0 Z " fill="#0C6FA7" transform="translate(71,98)"/>
<path d="M0 0 C0.99 0.33 1.98 0.66 3 1 C2.2884375 1.5878125 2.2884375 1.5878125 1.5625 2.1875 C-0.35179633 4.40808374 -0.61266988 6.13375709 -1 9 C-1.66 8.34 -2.32 7.68 -3 7 C-4.98 7.99 -4.98 7.99 -7 9 C-6.75881648 5.74402242 -5.47775788 4.2723696 -3.125 2.1875 C-2.09375 1.465625 -1.0625 0.74375 0 0 Z " fill="#1674A4" transform="translate(122,99)"/>
<path d="M0 0 C3.81365679 -0.35475877 5.58442458 -0.2619932 8.875 1.8125 C11 4 11 4 11 7 C8 6 8 6 6 4 C5.01 4.495 5.01 4.495 4 5 C2.68 3.35 1.36 1.7 0 0 Z " fill="#DFF0F4" transform="translate(101,101)"/>
<path d="M0 0 C1.32 0.66 2.64 1.32 4 2 C4 2.99 4 3.98 4 5 C4.66 5 5.32 5 6 5 C5.67 3.68 5.34 2.36 5 1 C5.66 1 6.32 1 7 1 C7.125 3.375 7.125 3.375 7 6 C6.34 6.66 5.68 7.32 5 8 C2.875 7.625 2.875 7.625 1 7 C1 6.67 1 6.34 1 6 C0.34742127 4.327767 -0.31867549 2.66072849 -1 1 C-0.67 0.67 -0.34 0.34 0 0 Z " fill="#8FABB1" transform="translate(173,88)"/>
<path d="M0 0 C0.99 0.33 1.98 0.66 3 1 C2.01 2.98 1.02 4.96 0 7 C1.32 7.33 2.64 7.66 4 8 C2.35 8 0.7 8 -1 8 C-1 7.01 -1 6.02 -1 5 C-2.98 5 -4.96 5 -7 5 C-6.67 4.34 -6.34 3.68 -6 3 C-2.9375 2.375 -2.9375 2.375 0 2 C0 1.34 0 0.68 0 0 Z " fill="#DCE9EC" transform="translate(137,130)"/>
<path d="M0 0 C2 0 2 0 4.125 2 C4.74375 2.66 5.3625 3.32 6 4 C6.33 3.01 6.66 2.02 7 1 C8.65 1.99 10.3 2.98 12 4 C11.01 4.99 10.02 5.98 9 7 C5.21616321 6.07506212 3.43306306 5.60628829 1.125 2.375 C0.75375 1.59125 0.3825 0.8075 0 0 Z " fill="#1877A8" transform="translate(152,109)"/>
<path d="M0 0 C0.78375 0.04125 1.5675 0.0825 2.375 0.125 C1.385 0.785 0.395 1.445 -0.625 2.125 C-0.87515873 5.70857241 -0.87515873 5.70857241 -0.625 9.125 C-1.945 8.465 -3.265 7.805 -4.625 7.125 C-4.75 4.75 -4.75 4.75 -4.625 2.125 C-2.625 0.125 -2.625 0.125 0 0 Z " fill="#D1EBED" transform="translate(159.625,100.875)"/>
<path d="M0 0 C0.33 0.66 0.66 1.32 1 2 C1.66 2 2.32 2 3 2 C2.67 3.65 2.34 5.3 2 7 C1.34 6.34 0.68 5.68 0 5 C0 5.99 0 6.98 0 8 C-1.32 8.33 -2.64 8.66 -4 9 C-4 7.02 -4 5.04 -4 3 C-2.68 3 -1.36 3 0 3 C0 2.01 0 1.02 0 0 Z " fill="#EEF8F7" transform="translate(141,135)"/>
<path d="M0 0 C0.99 0 1.98 0 3 0 C3 2.31 3 4.62 3 7 C2.34 7 1.68 7 1 7 C1 7.66 1 8.32 1 9 C0.01 8.67 -0.98 8.34 -2 8 C-1.34 5.36 -0.68 2.72 0 0 Z " fill="#F7FCF6" transform="translate(129,102)"/>
<path d="M0 0 C1.3921875 0.0928125 1.3921875 0.0928125 2.8125 0.1875 C3.1425 1.8375 3.4725 3.4875 3.8125 5.1875 C0.5125 4.5275 -2.7875 3.8675 -6.1875 3.1875 C-3.1875 0.1875 -3.1875 0.1875 0 0 Z " fill="#398BB1" transform="translate(165.1875,97.8125)"/>
<path d="M0 0 C4.55555556 0.55555556 4.55555556 0.55555556 6 2 C6.04063832 3.66617115 6.042721 5.33388095 6 7 C3.36 5.35 0.72 3.7 -2 2 C-1.34 1.34 -0.68 0.68 0 0 Z " fill="#E0F2F7" transform="translate(109,96)"/>
<path d="M0 0 C2.97 0 5.94 0 9 0 C8.01 0.495 8.01 0.495 7 1 C7.33 2.32 7.66 3.64 8 5 C3.545 4.01 3.545 4.01 -1 3 C-0.67 2.01 -0.34 1.02 0 0 Z " fill="#3586B0" transform="translate(125,98)"/>
<path d="M0 0 C0.33 0 0.66 0 1 0 C1 1.65 1 3.3 1 5 C1.99 5 2.98 5 4 5 C5.6875 7.5 5.6875 7.5 7 10 C1.25 8.25 1.25 8.25 -1 6 C-1.1875 3.4375 -1.1875 3.4375 -1 1 C-0.67 0.67 -0.34 0.34 0 0 Z " fill="#CEEAF4" transform="translate(122,102)"/>
<path d="M0 0 C3.3 0 6.6 0 10 0 C9.67 0.66 9.34 1.32 9 2 C8.34 2 7.68 2 7 2 C6.67 2.66 6.34 3.32 6 4 C3.03 3.505 3.03 3.505 0 3 C0 2.01 0 1.02 0 0 Z " fill="#F7F9F2" transform="translate(98,131)"/>
<path d="M0 0 C-0.99 0.66 -1.98 1.32 -3 2 C-4.35368596 3.31266518 -5.68799596 4.64567325 -7 6 C-7.66 6.66 -8.32 7.32 -9 8 C-9.33 7.01 -9.66 6.02 -10 5 C-9.34 5 -8.68 5 -8 5 C-8 3.35 -8 1.7 -8 0 C-4.71023192 -1.09658936 -3.28696233 -0.79953138 0 0 Z " fill="#C7E8EE" transform="translate(125,98)"/>
<path d="M0 0 C3.96 0 7.92 0 12 0 C12.33 0.66 12.66 1.32 13 2 C11.80375 1.95875 10.6075 1.9175 9.375 1.875 C5.57670047 1.86148292 2.55024382 2.57990247 -1 4 C-0.67 2.68 -0.34 1.36 0 0 Z " fill="#C5EAF2" transform="translate(60,97)"/>
<path d="M0 0 C0.99 0.33 1.98 0.66 3 1 C3.33 4.63 3.66 8.26 4 12 C1.77174356 9.77174356 1.30760631 8.34238372 0.375 5.375 C0.11460937 4.55773437 -0.14578125 3.74046875 -0.4140625 2.8984375 C-0.60742188 2.27195312 -0.80078125 1.64546875 -1 1 C-0.67 0.67 -0.34 0.34 0 0 Z " fill="#E0F7F8" transform="translate(137,98)"/>
<path d="M0 0 C0 0.66 0 1.32 0 2 C-3.465 3.485 -3.465 3.485 -7 5 C-7 4.34 -7 3.68 -7 3 C-7.66 2.67 -8.32 2.34 -9 2 C-5.5647952 -0.29013653 -4.014669 -0.17842973 0 0 Z " fill="#DAEFF3" transform="translate(69,101)"/>
<path d="M0 0 C1.42944945 2.35438733 2.08661261 3.48032433 1.625 6.25 C1.41875 6.8275 1.2125 7.405 1 8 C1 7.34 1 6.68 1 6 C-1.31 5.67 -3.62 5.34 -6 5 C-5.67 4.01 -5.34 3.02 -5 2 C-3.35 2.33 -1.7 2.66 0 3 C0 2.01 0 1.02 0 0 Z " fill="#2889C1" transform="translate(83,96)"/>
<path d="M0 0 C1 3 1 3 0.0625 5.1875 C-0.4634375 6.0846875 -0.4634375 6.0846875 -1 7 C-0.34 7.33 0.32 7.66 1 8 C0.67 8.66 0.34 9.32 0 10 C-1.32 10 -2.64 10 -4 10 C-2.8905928 6.51329166 -1.73662334 3.22515763 0 0 Z " fill="#267BA7" transform="translate(141,127)"/>
<path d="M0 0 C2.91517292 1.07401108 4.77810176 1.77810176 7 4 C6 5 6 5 3.4375 5.0625 C2.2309375 5.0315625 2.2309375 5.0315625 1 5 C0.67 3.35 0.34 1.7 0 0 Z " fill="#1676A7" transform="translate(151,124)"/>
<path d="M0 0 C0.33 0 0.66 0 1 0 C1 3.3 1 6.6 1 10 C-0.32 9.67 -1.64 9.34 -3 9 C-3 6.69 -3 4.38 -3 2 C-2.67 3.32 -2.34 4.64 -2 6 C-1.34 6 -0.68 6 0 6 C0 4.02 0 2.04 0 0 Z " fill="#086FA7" transform="translate(93,109)"/>
<path d="M0 0 C2.475 0.495 2.475 0.495 5 1 C4.67 2.32 4.34 3.64 4 5 C3.34 5 2.68 5 2 5 C1.67 5.99 1.34 6.98 1 8 C0.67 5.36 0.34 2.72 0 0 Z " fill="#F7FBF3" transform="translate(87,102)"/>
<path d="M0 0 C2.64 0 5.28 0 8 0 C7.67 1.65 7.34 3.3 7 5 C6.401875 4.690625 5.80375 4.38125 5.1875 4.0625 C2.91043228 2.89790296 2.91043228 2.89790296 0 2 C0 1.34 0 0.68 0 0 Z " fill="#F8FAF4" transform="translate(152,131)"/>
<path d="M0 0 C3.26460973 1.80412643 4.88929795 2.83394693 7 6 C4.69 6 2.38 6 0 6 C0 4.02 0 2.04 0 0 Z " fill="#E5F4F4" transform="translate(100,121)"/>
<path d="M0 0 C0.33 0 0.66 0 1 0 C1.125 2.375 1.125 2.375 1 5 C0.34 5.66 -0.32 6.32 -1 7 C-1.99 7 -2.98 7 -4 7 C-2.92598892 4.08482708 -2.22189824 2.22189824 0 0 Z " fill="#E1F5F5" transform="translate(99,102)"/>
<path d="M0 0 C2.625 0.375 2.625 0.375 5 1 C5 1.66 5 2.32 5 3 C4.05125 3.103125 3.1025 3.20625 2.125 3.3125 C-1.29107501 3.68539295 -1.29107501 3.68539295 -3 7 C-2.25 2.25 -2.25 2.25 0 0 Z " fill="#C4E1EC" transform="translate(88,91)"/>
<path d="M0 0 C-3.50538557 1.96301592 -7.13351728 2.95902388 -11 4 C-7.39987093 0.15158617 -5.25169925 -1.6298377 0 0 Z " fill="#1C79AE" transform="translate(163,99)"/>
<path d="M0 0 C0.99 1.32 1.98 2.64 3 4 C2.34 4 1.68 4 1 4 C0.67 5.65 0.34 7.3 0 9 C-1.125 7.3125 -1.125 7.3125 -2 5 C-1.125 2.25 -1.125 2.25 0 0 Z " fill="#3485B1" transform="translate(150,107)"/>
<path d="M0 0 C0.66 0.33 1.32 0.66 2 1 C0.515 4.465 0.515 4.465 -1 8 C-1.66 8 -2.32 8 -3 8 C-3.36923077 3.44615385 -3.36923077 3.44615385 -1.5 1.1875 C-1.005 0.795625 -0.51 0.40375 0 0 Z " fill="#E7F5F0" transform="translate(151,101)"/>
<path d="M0 0 C0.99 0.33 1.98 0.66 3 1 C2.67 1.99 2.34 2.98 2 4 C-0.0625 4.6875 -0.0625 4.6875 -2 5 C-2.33 4.01 -2.66 3.02 -3 2 C-2.01 1.34 -1.02 0.68 0 0 Z " fill="#3487AF" transform="translate(132,124)"/>
<path d="M0 0 C2.475 0.495 2.475 0.495 5 1 C4.67 1.66 4.34 2.32 4 3 C4.66 3.66 5.32 4.32 6 5 C4.35 5 2.7 5 1 5 C0.67 3.35 0.34 1.7 0 0 Z " fill="#F5FBFB" transform="translate(150,114)"/>
<path d="M0 0 C1.65 1.65 3.3 3.3 5 5 C3.1875 5.6875 3.1875 5.6875 1 6 C-0.75 4.5625 -0.75 4.5625 -2 3 C-1.34 3 -0.68 3 0 3 C0 2.01 0 1.02 0 0 Z " fill="#2881AE" transform="translate(110,99)"/>
<path d="M0 0 C3.63 0.66 7.26 1.32 11 2 C11 2.33 11 2.66 11 3 C7.37 3 3.74 3 0 3 C0 2.01 0 1.02 0 0 Z " fill="#DCF5F8" transform="translate(96,128)"/>
<path d="M0 0 C1.65 0 3.3 0 5 0 C4.67 1.32 4.34 2.64 4 4 C2.68 4 1.36 4 0 4 C0 2.68 0 1.36 0 0 Z " fill="#ECF7F6" transform="translate(118,116)"/>
<path d="M0 0 C1.65 0.99 3.3 1.98 5 3 C4.01 3.99 3.02 4.98 2 6 C1.34 5.67 0.68 5.34 0 5 C0 3.35 0 1.7 0 0 Z " fill="#BEDDEA" transform="translate(118,111)"/>
<path d="M0 0 C0.99 0.33 1.98 0.66 3 1 C3 2.98 3 4.96 3 7 C2.34 7 1.68 7 1 7 C0.67 4.69 0.34 2.38 0 0 Z " fill="#127BC2" transform="translate(112,103)"/>
<path d="M0 0 C0.66 0.33 1.32 0.66 2 1 C1.67 2.98 1.34 4.96 1 7 C0.01 6.67 -0.98 6.34 -2 6 C-1.34 4.02 -0.68 2.04 0 0 Z " fill="#1A81BD" transform="translate(74,100)"/>
<path d="M0 0 C0.99 0 1.98 0 3 0 C4.6875 2.5 4.6875 2.5 6 5 C4.35 5 2.7 5 1 5 C0.67 3.35 0.34 1.7 0 0 Z " fill="#C8DFE1" transform="translate(171,90)"/>
</svg>
