<?xml version="1.0" encoding="UTF-8"?>
<svg version="1.1" xmlns="http://www.w3.org/2000/svg" width="800" height="450">
<path d="M0 0 C0 0.66 0 1.32 0 2 C0.99 2 1.98 2 3 2 C3 2.66 3 3.32 3 4 C3.66 4 4.32 4 5 4 C5 4.66 5 5.32 5 6 C5.66 6 6.32 6 7 6 C7 6.66 7 7.32 7 8 C7.70576172 7.3503125 7.70576172 7.3503125 8.42578125 6.6875 C9.04839844 6.130625 9.67101562 5.57375 10.3125 5 C10.92738281 4.443125 11.54226563 3.88625 12.17578125 3.3125 C14 2 14 2 17 2 C17 1.34 17 0.68 17 0 C24.12362592 -2.7065448 32.10661243 -3.40789533 39.51171875 -1.27734375 C43.72980282 0.70716438 47.02888609 3.37895492 50 7 C50 7.99 50 8.98 50 10 C50.66 10 51.32 10 52 10 C53.125 17.75 53.125 17.75 52 20 C52.66 20 53.32 20 54 20 C54 43.1 54 66.2 54 90 C44.43 90 34.86 90 25 90 C24.98541748 87.89520264 24.97083496 85.79040527 24.95581055 83.62182617 C24.90550539 76.67268101 24.83891778 69.7237609 24.76428509 62.77483654 C24.71953031 58.56109206 24.6802857 54.34744541 24.65356445 50.13354492 C24.62758205 46.06795155 24.58721627 42.00273362 24.53681374 37.93737221 C24.52011058 36.38526385 24.50861781 34.8330905 24.50238609 33.28090477 C24.49278202 31.10898727 24.4647697 28.93803772 24.43237305 26.76635742 C24.42126999 25.52947678 24.41016693 24.29259613 24.39872742 23.01823425 C24.24702171 20.01578237 24.24702171 20.01578237 22.59407043 18.07319641 C21.05210517 16.8092404 21.05210517 16.8092404 19.0625 17.0625 C16.31270833 18.31240531 14.90662793 19.64382985 13 22 C12.39069363 25.09444274 12.39069363 25.09444274 12.4699707 28.58862305 C12.46123932 29.24109009 12.45250793 29.89355713 12.44351196 30.5657959 C12.41918335 32.71471854 12.42254283 34.86267617 12.42578125 37.01171875 C12.41333635 38.50577941 12.39900218 39.99982544 12.38285828 41.49385071 C12.34484552 45.4209394 12.32964555 49.34777585 12.32006836 53.27502441 C12.30031455 59.57170908 12.24360776 65.86820159 12.19130516 72.16468239 C12.17591317 74.36783649 12.16876024 76.57089515 12.16316223 78.77409363 C12.15614965 80.11591642 12.14904902 81.45773876 12.1418457 82.79956055 C12.13836624 83.97552292 12.13488678 85.15148529 12.13130188 86.36308289 C12 89 12 89 11 90 C9.00035018 90.08758003 6.9976389 90.10696576 4.99609375 90.09765625 C3.17368164 90.09282227 3.17368164 90.09282227 1.31445312 90.08789062 C0.03505859 90.07951172 -1.24433594 90.07113281 -2.5625 90.0625 C-3.84576172 90.05798828 -5.12902344 90.05347656 -6.45117188 90.04882812 C-9.63416022 90.03699545 -12.81705762 90.02051068 -16 90 C-16.00808685 89.24324478 -16.01617371 88.48648956 -16.02450562 87.70680237 C-16.10274679 80.5426979 -16.19012406 73.37878851 -16.28752708 66.214921 C-16.33727594 62.53272259 -16.38360603 58.85054992 -16.421875 55.16821289 C-16.45900064 51.60839375 -16.5054306 48.04880204 -16.55806351 44.48917961 C-16.58536163 42.48371249 -16.60325283 40.47812434 -16.62094116 38.47254944 C-16.29765244 26.90903241 -16.29765244 26.90903241 -21 17 C-22.98491642 17.26676204 -22.98491642 17.26676204 -25 18 C-25.99 18.33 -26.98 18.66 -28 19 C-30.09388445 22.85279884 -30.26915859 26.2949904 -30.31884766 30.6262207 C-30.32889328 31.27068649 -30.3389389 31.91515228 -30.34928894 32.57914734 C-30.38000936 34.69468348 -30.39712448 36.81009372 -30.4140625 38.92578125 C-30.43278317 40.39838231 -30.45235726 41.87097275 -30.4727478 43.34355164 C-30.52398023 47.20844242 -30.56365328 51.07336795 -30.60089111 54.93841553 C-30.6409867 58.88676485 -30.69205364 62.83497076 -30.7421875 66.78320312 C-30.83884153 74.52204428 -30.92226498 82.26094144 -31 90 C-40.24 90 -49.48 90 -59 90 C-59.33 60.3 -59.66 30.6 -60 0 C-50.76 0 -41.52 0 -32 0 C-31.67 1.32 -31.34 2.64 -31 4 C-30.34 4 -29.68 4 -29 4 C-29 3.34 -29 2.68 -29 2 C-19.95865608 -3.35783343 -9.77787503 -3.70936078 0 0 Z " fill="#FFC100" transform="translate(408,164)"/>
<path d="M0 0 C9.24 0 18.48 0 28 0 C28 41.58 28 83.16 28 126 C18.76 126 9.52 126 0 126 C0 124.68 0 123.36 0 122 C-0.886875 122.61875 -1.77375 123.2375 -2.6875 123.875 C-9.13347851 128.01015603 -14.43769595 128.82110808 -22 128 C-29.87171511 125.91365717 -35.65891643 122.5450694 -40.1875 115.6875 C-48.08701624 97.7731159 -48.16152961 69.70422839 -42.08203125 51.20703125 C-41.15941619 49.04012308 -40.17969401 47.03612667 -39 45 C-38.54882812 44.1646875 -38.09765625 43.329375 -37.6328125 42.46875 C-34.7010638 38.03605818 -30.9332677 35.84004161 -26 34 C-17.32481445 32.85422078 -9.46586304 32.97196979 -2 38 C-1.67 38.33 -1.34 38.66 -1 39 C-0.67 26.13 -0.34 13.26 0 0 Z M-13.9375 55.4375 C-15.26859912 58.64779787 -15.55183064 61.62306001 -15.7890625 65.07421875 C-16 67 -16 67 -17 68 C-17.09899523 69.54955559 -17.13079524 71.10353673 -17.1328125 72.65625 C-17.13410156 73.59597656 -17.13539063 74.53570312 -17.13671875 75.50390625 C-17.13285156 76.49261719 -17.12898437 77.48132813 -17.125 78.5 C-17.12886719 79.48871094 -17.13273438 80.47742188 -17.13671875 81.49609375 C-17.13542969 82.43582031 -17.13414062 83.37554687 -17.1328125 84.34375 C-17.13168457 85.21193359 -17.13055664 86.08011719 -17.12939453 86.97460938 C-17.2241537 88.99604154 -17.2241537 88.99604154 -16 90 C-15.83028993 93.3376313 -15.70275733 96.66820042 -15.65820312 100.00976562 C-15.51949404 103.53555703 -15.26188978 105.643631 -13.1484375 108.51953125 C-11.01385132 110.30759521 -11.01385132 110.30759521 -7.9375 109.875 C-4.84912783 109.11181389 -4.84912783 109.11181389 -2 107 C0.75678183 98.28739004 0.23224011 88.28750901 0.3125 79.25 C0.33014404 78.10217041 0.34778809 76.95434082 0.3659668 75.77172852 C0.35980576 68.01498329 -0.49561363 61.00877273 -4 54 C-9.3149927 53.42243024 -9.3149927 53.42243024 -13.9375 55.4375 Z " fill="#FFC200" transform="translate(641,128)"/>
<path d="M0 0 C4.16045103 2.01212289 8.16105453 4.23346924 10.9375 8.01953125 C10.9375 9.00953125 10.9375 9.99953125 10.9375 11.01953125 C11.5975 11.01953125 12.2575 11.01953125 12.9375 11.01953125 C12.9375 14.31953125 12.9375 17.61953125 12.9375 21.01953125 C13.5975 21.01953125 14.2575 21.01953125 14.9375 21.01953125 C14.9375 44.11953125 14.9375 67.21953125 14.9375 91.01953125 C5.3675 91.01953125 -4.2025 91.01953125 -14.0625 91.01953125 C-14.07708252 88.91473389 -14.09166504 86.80993652 -14.10668945 84.64135742 C-14.15699461 77.69221226 -14.22358222 70.74329215 -14.29821491 63.79436779 C-14.34296969 59.58062331 -14.3822143 55.36697666 -14.40893555 51.15307617 C-14.43491795 47.0874828 -14.47528373 43.02226487 -14.52568626 38.95690346 C-14.54238942 37.4047951 -14.55388219 35.85262175 -14.56011391 34.30043602 C-14.56971798 32.12851852 -14.5977303 29.95756897 -14.63012695 27.78588867 C-14.64678154 25.9305677 -14.64678154 25.9305677 -14.66377258 24.0377655 C-14.81736189 21.0353808 -14.81736189 21.0353808 -16.46452332 19.08100891 C-18.0250539 17.79399997 -18.0250539 17.79399997 -20.0625 18.26953125 C-21.0525 18.64078125 -21.0525 18.64078125 -22.0625 19.01953125 C-23.0525 19.34953125 -24.0425 19.67953125 -25.0625 20.01953125 C-26.16100987 23.31506086 -26.21377451 25.80823435 -26.25195312 29.27929688 C-26.26867065 30.57073608 -26.28538818 31.86217529 -26.3026123 33.19274902 C-26.30929428 33.88245285 -26.31597626 34.57215668 -26.32286072 35.28276062 C-26.34391804 37.44302067 -26.37093787 39.60313313 -26.39953613 41.76330566 C-26.45917938 46.34865736 -26.51137091 50.93407774 -26.5625 55.51953125 C-26.62174724 60.83305158 -26.68403599 66.14649861 -26.75437927 71.45988464 C-26.7809429 73.58867021 -26.80176301 75.71746328 -26.8223877 77.84631348 C-26.83910522 79.13775269 -26.85582275 80.42919189 -26.87304688 81.75976562 C-26.89183899 83.46827698 -26.89183899 83.46827698 -26.91101074 85.21130371 C-27.0625 88.01953125 -27.0625 88.01953125 -28.0625 91.01953125 C-36.9725 91.01953125 -45.8825 91.01953125 -55.0625 91.01953125 C-55.0625 67.25953125 -55.0625 43.49953125 -55.0625 19.01953125 C-55.7225 19.01953125 -56.3825 19.01953125 -57.0625 19.01953125 C-57.0625 13.07953125 -57.0625 7.13953125 -57.0625 1.01953125 C-47.4925 1.01953125 -37.9225 1.01953125 -28.0625 1.01953125 C-27.7325 2.33953125 -27.4025 3.65953125 -27.0625 5.01953125 C-25.7425 4.35953125 -24.4225 3.69953125 -23.0625 3.01953125 C-23.0625 2.35953125 -23.0625 1.69953125 -23.0625 1.01953125 C-16.12622397 -2.27024538 -7.27619876 -2.32949731 0 0 Z " fill="#FF422F" transform="translate(153.0625,162.98046875)"/>
<path d="M0 0 C0 0.66 0 1.32 0 2 C0.99 2 1.98 2 3 2 C3 2.66 3 3.32 3 4 C4.32 4.66 5.64 5.32 7 6 C7 6.66 7 7.32 7 8 C7.66 8 8.32 8 9 8 C9 9.32 9 10.64 9 12 C9.66 12 10.32 12 11 12 C11 37.74 11 63.48 11 90 C1.76 90 -7.48 90 -17 90 C-16.99476318 87.99655518 -16.98952637 85.99311035 -16.98413086 83.92895508 C-16.9675475 77.30328051 -16.95650974 70.67760501 -16.94818783 64.05191517 C-16.94297333 60.03549411 -16.93590172 56.01909435 -16.92456055 52.00268555 C-16.91368072 48.12531513 -16.90771236 44.24796518 -16.90512276 40.37058067 C-16.90327769 38.89264288 -16.89967476 37.41470618 -16.89426994 35.93677711 C-16.88699188 33.86383281 -16.88601191 31.79097264 -16.88647461 29.71801758 C-16.884254 28.53887283 -16.88203339 27.35972809 -16.87974548 26.14485168 C-16.98836526 23.30426739 -17.34602724 20.7598529 -18 18 C-21.69541586 17.04975021 -24.30458414 17.04975021 -28 18 C-29.12721293 21.38163879 -29.1521756 24.00122771 -29.18945312 27.56689453 C-29.20189308 28.56000641 -29.20189308 28.56000641 -29.21458435 29.57318115 C-29.23196304 31.00874589 -29.2471358 32.44433865 -29.26036072 33.87994766 C-29.2813989 36.14887121 -29.3084182 38.41765314 -29.33703613 40.68649292 C-29.40684503 46.31891845 -29.46636447 51.9514442 -29.52606201 57.58398438 C-29.576914 62.34723897 -29.63169994 67.11041569 -29.69187927 71.87356186 C-29.71853034 74.11434393 -29.73929457 76.35513301 -29.7598877 78.59597778 C-29.77648265 79.96128694 -29.79335377 81.32659278 -29.81054688 82.69189453 C-29.82933899 84.48700974 -29.82933899 84.48700974 -29.84851074 86.31838989 C-30 89 -30 89 -31 90 C-40.24 90 -49.48 90 -59 90 C-59 60.3 -59 30.6 -59 0 C-50.09 0 -41.18 0 -32 0 C-32 1.98 -32 3.96 -32 6 C-31.34 6 -30.68 6 -30 6 C-29.814375 5.4225 -29.62875 4.845 -29.4375 4.25 C-23.40309986 -5.19514805 -9.13980222 -3.52072505 0 0 Z " fill="#FFC200" transform="translate(574,164)"/>
<path d="M0 0 C1.78515625 1.1015625 1.78515625 1.1015625 3.4375 2.3125 C4.03433594 2.73273438 4.63117188 3.15296875 5.24609375 3.5859375 C6.9375 4.875 6.9375 4.875 9.4375 7.3125 C9.4375 8.3025 9.4375 9.2925 9.4375 10.3125 C10.0975 10.3125 10.7575 10.3125 11.4375 10.3125 C11.4375 12.9525 11.4375 15.5925 11.4375 18.3125 C12.0975 18.3125 12.7575 18.3125 13.4375 18.3125 C13.4375 42.0725 13.4375 65.8325 13.4375 90.3125 C3.8675 90.3125 -5.7025 90.3125 -15.5625 90.3125 C-15.57708252 88.20770264 -15.59166504 86.10290527 -15.60668945 83.93432617 C-15.65699461 76.98518101 -15.72358222 70.0362609 -15.79821491 63.08733654 C-15.84296969 58.87359206 -15.8822143 54.65994541 -15.90893555 50.44604492 C-15.93491795 46.38045155 -15.97528373 42.31523362 -16.02568626 38.24987221 C-16.04238942 36.69776385 -16.05388219 35.1455905 -16.06011391 33.59340477 C-16.06971798 31.42148727 -16.0977303 29.25053772 -16.13012695 27.07885742 C-16.14678154 25.22353645 -16.14678154 25.22353645 -16.16377258 23.33073425 C-16.31736189 20.32834955 -16.31736189 20.32834955 -17.96452332 18.37397766 C-19.5250539 17.08696872 -19.5250539 17.08696872 -21.5625 17.5625 C-22.5525 17.93375 -22.5525 17.93375 -23.5625 18.3125 C-24.5525 18.6425 -25.5425 18.9725 -26.5625 19.3125 C-26.8925 20.3025 -27.2225 21.2925 -27.5625 22.3125 C-28.2225 22.3125 -28.8825 22.3125 -29.5625 22.3125 C-29.5625 44.7525 -29.5625 67.1925 -29.5625 90.3125 C-38.4725 90.3125 -47.3825 90.3125 -56.5625 90.3125 C-56.58755615 87.8389502 -56.6126123 85.36540039 -56.63842773 82.81689453 C-56.72177948 74.65844861 -56.81048098 66.50006723 -56.90183926 58.34170723 C-56.95708247 53.39368064 -57.01050472 48.44564815 -57.05981445 43.49755859 C-57.10743737 38.72537858 -57.15977942 33.95327184 -57.21544075 29.18117905 C-57.23587371 27.35747977 -57.25458522 25.5337604 -57.27157402 23.71002579 C-57.29559722 21.1622412 -57.32565456 18.61459578 -57.35717773 16.06689453 C-57.3629332 15.30732452 -57.36868866 14.54775452 -57.37461853 13.76516724 C-57.36139888 9.91130592 -57.36139888 9.91130592 -58.5625 6.3125 C-58.5625 4.3325 -58.5625 2.3525 -58.5625 0.3125 C-49.3225 0.3125 -40.0825 0.3125 -30.5625 0.3125 C-30.2325 1.6325 -29.9025 2.9525 -29.5625 4.3125 C-27.9125 3.6525 -26.2625 2.9925 -24.5625 2.3125 C-24.5625 1.6525 -24.5625 0.9925 -24.5625 0.3125 C-17.56351682 -3.03309425 -7.10615144 -3.40158799 0 0 Z " fill="#FF422E" transform="translate(238.5625,163.6875)"/>
<path d="M0 0 C0.93392578 -0.02449219 1.86785156 -0.04898438 2.83007812 -0.07421875 C12.24579029 -0.11342366 19.86203426 2.41730118 26.8125 8.9375 C28.06933594 10.08412109 28.06933594 10.08412109 29.3515625 11.25390625 C31.1875 13.375 31.1875 13.375 31.1875 16.375 C31.8475 16.375 32.5075 16.375 33.1875 16.375 C36.54420656 26.05139069 37.80558578 34.66551903 37.65405273 44.87109375 C37.6249182 47.00599406 37.63353747 49.13841977 37.64648438 51.2734375 C37.62882835 62.65623369 36.21968794 73.504147 30.1875 83.375 C28.05859375 84.5859375 28.05859375 84.5859375 26.1875 85.375 C26.1875 86.035 26.1875 86.695 26.1875 87.375 C17.54710417 92.59523915 10.5439602 94.92399073 0.4375 94.8125 C-0.53533936 94.80347656 -1.50817871 94.79445313 -2.51049805 94.78515625 C-13.54774506 94.51966497 -21.91622007 92.40399407 -29.97265625 84.5078125 C-38.53496867 74.58207454 -38.14089912 61.59333764 -38.07324219 49.16137695 C-38.0625055 46.81370311 -38.07319584 44.46679153 -38.0859375 42.11914062 C-38.09188209 34.64055173 -37.90300945 27.61712201 -35.8125 20.375 C-35.1525 20.375 -34.4925 20.375 -33.8125 20.375 C-33.6578125 19.5396875 -33.6578125 19.5396875 -33.5 18.6875 C-32.28667743 14.60632408 -30.10733425 11.0968196 -26.8125 8.375 C-26.1525 8.375 -25.4925 8.375 -24.8125 8.375 C-24.8125 7.715 -24.8125 7.055 -24.8125 6.375 C-16.48949498 1.27928264 -9.68587297 0.01320501 0 0 Z M-6.8125 21.9375 C-8.08897914 25.04891791 -8.43551382 28.04495545 -8.8125 31.375 C-9.1425 31.705 -9.4725 32.035 -9.8125 32.375 C-9.91253289 34.50853174 -9.94331048 36.64537542 -9.9453125 38.78125 C-9.94660156 40.08191406 -9.94789063 41.38257813 -9.94921875 42.72265625 C-9.94712402 43.40344238 -9.9450293 44.08422852 -9.94287109 44.78564453 C-9.9375224 46.86628515 -9.9428168 48.94670989 -9.94921875 51.02734375 C-9.94792969 52.32800781 -9.94664062 53.62867188 -9.9453125 54.96875 C-9.94418457 56.17208984 -9.94305664 57.37542969 -9.94189453 58.61523438 C-10.12705977 61.28484482 -10.12705977 61.28484482 -8.8125 62.375 C-8.27988448 64.62183187 -7.84948384 66.88165479 -7.41015625 69.1484375 C-6.869846 71.63568208 -6.869846 71.63568208 -4.8125 74.375 C-1.75578638 75.07102587 1.11402767 74.95127606 4.1875 74.375 C9.27091569 69.45556546 9.30699656 59.47600294 9.48828125 52.80859375 C9.50271675 50.47660391 9.5064599 48.14452557 9.5 45.8125 C9.51611328 44.64525391 9.53222656 43.47800781 9.54882812 42.27539062 C9.5534448 34.08079338 8.79390448 27.28460672 4.1875 20.375 C0.27643164 19.55122659 -3.60783293 19.43385385 -6.8125 21.9375 Z " fill="#FF422E" transform="translate(300.8125,161.625)"/>
<path d="M0 0 C1.03382813 -0.02449219 2.06765625 -0.04898438 3.1328125 -0.07421875 C10.31245804 -0.10134587 15.80526731 1.21353441 22.25 4.375 C22.25 5.035 22.25 5.695 22.25 6.375 C23.178125 6.74625 23.178125 6.74625 24.125 7.125 C26.60068687 8.58128639 27.20125002 9.75312506 28.25 12.375 C28.91 12.375 29.57 12.375 30.25 12.375 C33.09390101 18.77377728 32.25 22.49511242 32.25 30.375 C23.67 30.375 15.09 30.375 6.25 30.375 C5.755 26.415 5.755 26.415 5.25 22.375 C4.94830934 21.03415264 4.63482319 19.6943938 4.25 18.375 C0.07569213 17.40615275 0.07569213 17.40615275 -4.0625 18.125 C-6.06283015 19.35666743 -6.06283015 19.35666743 -6.75 22.375 C-5.94241643 26.05923163 -4.99047102 27.20519801 -1.87890625 29.40234375 C-0.69810973 30.05378886 0.4912816 30.68982617 1.6875 31.3125 C2.31495117 31.65676025 2.94240234 32.00102051 3.58886719 32.35571289 C6.45810266 33.92330053 9.35344841 35.42746025 12.26953125 36.90625 C19.23809107 40.49520785 24.66266273 44.89254449 30.25 50.375 C31.15363281 51.06980469 32.05726563 51.76460937 32.98828125 52.48046875 C36.37014187 56.80854944 36.12650054 60.7676216 36.0625 66.125 C36.05476562 67.1154834 36.04703125 68.1059668 36.0390625 69.12646484 C35.82716804 74.63298081 35.45550154 78.65864317 31.75 83 C27.97792117 86.22462668 23.87117638 88.59478634 19.25 90.375 C18.47398437 90.725625 17.69796875 91.07625 16.8984375 91.4375 C13.88435903 92.50443043 11.24943265 92.75143064 8.0625 92.9375 C4.00445989 93.08632942 4.00445989 93.08632942 0.25 94.375 C-9.12774788 95.19045634 -18.27718113 92.52222613 -25.84375 86.984375 C-30.06619504 83.41952386 -33.05935935 79.70991049 -34.75 74.375 C-34.9453125 70.82421875 -34.9453125 70.82421875 -34.875 67.0625 C-34.85695313 65.80824219 -34.83890625 64.55398437 -34.8203125 63.26171875 C-34.79710937 62.30910156 -34.77390625 61.35648438 -34.75 60.375 C-31.65235347 59.34245116 -29.48851213 59.24591096 -26.2421875 59.2421875 C-25.17355469 59.24089844 -24.10492187 59.23960937 -23.00390625 59.23828125 C-21.88886719 59.24214844 -20.77382813 59.24601562 -19.625 59.25 C-18.50222656 59.24613281 -17.37945313 59.24226563 -16.22265625 59.23828125 C-14.62357422 59.24021484 -14.62357422 59.24021484 -12.9921875 59.2421875 C-12.0110498 59.24331543 -11.02991211 59.24444336 -10.01904297 59.24560547 C-7.75 59.375 -7.75 59.375 -6.75 60.375 C-6.54011244 61.78591085 -6.38168764 63.20465476 -6.25 64.625 C-5.91813426 67.92785424 -5.4822392 71.13222638 -4.75 74.375 C1.56268603 74.75052165 1.56268603 74.75052165 7.25 72.375 C7.79556691 69.03340265 8.04144992 66.50636751 6.03125 63.6328125 C1.14493446 58.98224025 -4.65223687 56.30441139 -10.66723633 53.43261719 C-18.91927631 49.44295871 -29.75044044 43.70503139 -33.84765625 35.05859375 C-35.93451371 28.85222547 -35.51915431 22.42179447 -32.9375 16.4375 C-29.95757299 10.58257299 -29.95757299 10.58257299 -27.75 8.375 C-26.76 8.375 -25.77 8.375 -24.75 8.375 C-24.75 7.715 -24.75 7.055 -24.75 6.375 C-16.35854086 1.34012451 -9.77580988 0.01200959 0 0 Z " fill="#FFC100" transform="translate(712.75,161.625)"/>
<path d="M0 0 C9.57 0 19.14 0 29 0 C29 41.58 29 83.16 29 126 C19.43 126 9.86 126 0 126 C0 84.42 0 42.84 0 0 Z " fill="#FF422E" transform="translate(52,128)"/>
<path d="M0 0 C9.24 0 18.48 0 28 0 C29.82238662 1.82238662 29.11997696 4.34756083 29.12442017 6.7724762 C29.12082489 7.60109665 29.11722961 8.4297171 29.11352539 9.28344727 C29.11367142 10.15166107 29.11381744 11.01987488 29.1139679 11.91439819 C29.11326846 14.79842586 29.10547463 17.6823898 29.09765625 20.56640625 C29.09579218 22.56037867 29.09436823 24.55435155 29.09336853 26.54832458 C29.08954248 31.80745702 29.07971145 37.06656203 29.06866455 42.32568359 C29.0584523 47.68782175 29.05387131 53.04996431 29.04882812 58.41210938 C29.03808926 68.94142027 29.02049176 79.47070357 29 90 C19.43 90 9.86 90 0 90 C0 60.3 0 30.6 0 0 Z " fill="#FFC100" transform="translate(474,164)"/>
<path d="M0 0 C2.64 0 5.28 0 8 0 C8 2.64 8 5.28 8 8 C10.97 8.33 13.94 8.66 17 9 C17 11.31 17 13.62 17 16 C14.03 16.33 11.06 16.66 8 17 C8 23.6 8 30.2 8 37 C8.99 36.34 9.98 35.68 11 35 C14.1875 35.375 14.1875 35.375 17 36 C17.1875 38.375 17.1875 38.375 17 41 C12.56313179 43.95791214 8.20591533 43.65561752 3 43 C0.34436198 41.1031157 -0.57242527 39.85514945 -2 37 C-2.08372659 35.47851674 -2.10730027 33.95344222 -2.09765625 32.4296875 C-2.09443359 31.53378906 -2.09121094 30.63789063 -2.08789062 29.71484375 C-2.07532227 28.30912109 -2.07532227 28.30912109 -2.0625 26.875 C-2.05798828 25.93011719 -2.05347656 24.98523438 -2.04882812 24.01171875 C-2.03702357 21.67441613 -2.02055759 19.33723939 -2 17 C-3.32 16.67 -4.64 16.34 -6 16 C-6 15.34 -6 14.68 -6 14 C-8.26807378 16.13504893 -10.01064481 18.31395179 -11.6875 20.9375 C-12.12449219 21.60652344 -12.56148437 22.27554687 -13.01171875 22.96484375 C-14.29121609 25.22262734 -14.29121609 25.22262734 -14 29 C-13.34 29 -12.68 29 -12 29 C-11.34 30.98 -10.68 32.96 -10 35 C-9.34 35 -8.68 35 -8 35 C-7.67 35.99 -7.34 36.98 -7 38 C-6.34 38.33 -5.68 38.66 -5 39 C-5 40.32 -5 41.64 -5 43 C-8.15923748 43.56866275 -10.86471287 43.76980221 -14 43 C-16.65693785 40.34306215 -18.43277319 37.40487707 -20 34 C-20 33.34 -20 32.68 -20 32 C-20.66 32 -21.32 32 -22 32 C-22.12375 32.58265625 -22.2475 33.1653125 -22.375 33.765625 C-23.41358266 37.47855801 -25.03304017 40.48949553 -28 43 C-31.08525789 43.59431266 -33.89934633 43.42557992 -37 43 C-37 41.68 -37 40.36 -37 39 C-36.34 39 -35.68 39 -35 39 C-34.773125 38.319375 -34.54625 37.63875 -34.3125 36.9375 C-33.15418444 34.34507946 -32.05554053 32.74130066 -30.3125 30.5625 C-28.20002813 27.74587084 -27.98405613 27.29230422 -28.1875 23.5625 C-28.5896875 22.2940625 -28.5896875 22.2940625 -29 21 C-29.66 21 -30.32 21 -31 21 C-32.3726682 19.02678947 -33.70427617 17.02456848 -35 15 C-35.66 14.34 -36.32 13.68 -37 13 C-36.625 10.875 -36.625 10.875 -36 9 C-30.91860085 8.29911736 -30.91860085 8.29911736 -28 9 C-25.44983536 11.33676174 -23.61749942 13.94880791 -22 17 C-22 17.66 -22 18.32 -22 19 C-21.34 19 -20.68 19 -20 19 C-19.7525 18.46375 -19.505 17.9275 -19.25 17.375 C-18.8375 16.59125 -18.425 15.8075 -18 15 C-17.5875 13.9275 -17.175 12.855 -16.75 11.75 C-14 9 -14 9 -10.625 8.6171875 C-7.06538733 8.62436414 -3.54987006 8.74372596 0 9 C0 6.03 0 3.06 0 0 Z " fill="#000000" transform="translate(731,270)"/>
<path d="M0 0 C8 0 8 0 9.82617188 1.16162109 C10.20322266 1.69352051 10.58027344 2.22541992 10.96875 2.7734375 C11.39414062 3.3509375 11.81953125 3.9284375 12.2578125 4.5234375 C12.66773438 5.13445312 13.07765625 5.74546875 13.5 6.375 C13.94085937 6.97828125 14.38171875 7.5815625 14.8359375 8.203125 C18 12.62495148 18 12.62495148 18 15 C18.66 15 19.32 15 20 15 C24 20.41176471 24 20.41176471 24 23 C24.66 23 25.32 23 26 23 C26 23.66 26 24.32 26 25 C26.66 25 27.32 25 28 25 C28.33 25.99 28.66 26.98 29 28 C29.33 18.76 29.66 9.52 30 0 C32.64 0 35.28 0 38 0 C38 14.85 38 29.7 38 45 C31 45 31 45 28.55859375 42.875 C27.85863281 41.92625 27.15867187 40.9775 26.4375 40 C25.67695312 38.99324219 24.91640625 37.98648438 24.1328125 36.94921875 C23.42898438 35.97597656 22.72515625 35.00273437 22 34 C20.93849414 32.60341049 19.87613107 31.20747164 18.8125 29.8125 C17.884375 28.554375 16.95625 27.29625 16 26 C14.02 23.36 12.04 20.72 10 18 C9.67 26.91 9.34 35.82 9 45 C6.03 45 3.06 45 0 45 C0 30.15 0 15.3 0 0 Z " fill="#000000" transform="translate(621,268)"/>
<path d="M0 0 C4.3725 -0.04125 8.745 -0.0825 13.25 -0.125 C14.62317383 -0.14320801 15.99634766 -0.16141602 17.41113281 -0.18017578 C18.49749023 -0.1851709 19.58384766 -0.19016602 20.703125 -0.1953125 C21.81333008 -0.20578613 22.92353516 -0.21625977 24.06738281 -0.22705078 C26.93950942 -0.00468334 28.57223735 0.50718425 31 2 C31 2.66 31 3.32 31 4 C31.5775 4.2475 32.155 4.495 32.75 4.75 C37.23840666 7.24355925 39.44578884 10.16167309 41 15 C41.265625 18.33984375 41.265625 18.33984375 41.25 21.9375 C41.25773437 23.71447266 41.25773437 23.71447266 41.265625 25.52734375 C40.99993706 29.00082283 40.24620553 31.76085468 39 35 C38.34 35 37.68 35 37 35 C36.773125 35.5775 36.54625 36.155 36.3125 36.75 C33.98794467 40.734952 30.23203087 43.29058779 26 45 C23.15917969 45.22705078 23.15917969 45.22705078 19.921875 45.1953125 C18.87612305 45.19031738 17.83037109 45.18532227 16.75292969 45.18017578 C15.43196289 45.16196777 14.11099609 45.14375977 12.75 45.125 C8.5425 45.08375 4.335 45.0425 0 45 C0 30.15 0 15.3 0 0 Z M9 6 C8.97534608 10.53897705 8.95716211 15.07791543 8.94506836 19.61694336 C8.9400286 21.16219766 8.9331968 22.70744716 8.92456055 24.25268555 C8.91247924 26.46925029 8.90676827 28.68575218 8.90234375 30.90234375 C8.89718246 31.5971434 8.89202118 32.29194305 8.88670349 33.00779724 C8.88650723 34.6722933 8.93810871 36.33665499 9 38 C10.62929157 39.62929157 12.44694096 39.17075442 14.6875 39.1875 C18.84621984 39.12224191 22.24990428 38.96433586 26 37 C31.51881366 29.84045796 31.88425856 23.91213399 31 15 C29.50791065 11.18000362 27.44292197 8.73628552 23.71875 6.8359375 C20.57402257 5.86902418 17.97089516 5.80283747 14.6875 5.875 C13.61886719 5.89304687 12.55023438 5.91109375 11.44921875 5.9296875 C10.23685547 5.96449219 10.23685547 5.96449219 9 6 Z " fill="#000000" transform="translate(429,268)"/>
<path d="M0 0 C1.23556641 0.01740234 1.23556641 0.01740234 2.49609375 0.03515625 C3.32238281 0.04417969 4.14867188 0.05320312 5 0.0625 C5.63808594 0.07410156 6.27617187 0.08570313 6.93359375 0.09765625 C8.5249746 4.27503099 9.14637433 7.6292641 8.93359375 12.09765625 C9.59359375 12.09765625 10.25359375 12.09765625 10.93359375 12.09765625 C11.26359375 14.07765625 11.59359375 16.05765625 11.93359375 18.09765625 C13.8175116 14.83219864 14.42647342 11.81653864 14.93359375 8.09765625 C15.59359375 8.09765625 16.25359375 8.09765625 16.93359375 8.09765625 C16.89234375 7.14890625 16.85109375 6.20015625 16.80859375 5.22265625 C16.93359375 2.09765625 16.93359375 2.09765625 18.93359375 0.09765625 C22.55859375 -0.02734375 22.55859375 -0.02734375 25.93359375 0.09765625 C29.03788929 5.8829343 31.33725544 11.43723842 30.93359375 18.09765625 C31.59359375 18.09765625 32.25359375 18.09765625 32.93359375 18.09765625 C33.11535156 17.1334375 33.29710937 16.16921875 33.484375 15.17578125 C33.86142578 13.28085937 33.86142578 13.28085937 34.24609375 11.34765625 C34.48972656 10.0946875 34.73335937 8.84171875 34.984375 7.55078125 C35.88185982 4.28585703 36.50910494 2.42889549 38.93359375 0.09765625 C42.62109375 -0.15234375 42.62109375 -0.15234375 45.93359375 0.09765625 C46.24619242 4.36983803 45.60731979 7.13444993 43.7890625 10.984375 C42.72172045 13.62105101 42.09134848 16.26841018 41.43359375 19.03515625 C38.43545019 31.59579981 38.43545019 31.59579981 35.93359375 34.09765625 C33.60061942 34.13858562 31.2665415 34.14007348 28.93359375 34.09765625 C28.93359375 33.43765625 28.93359375 32.77765625 28.93359375 32.09765625 C28.27359375 32.09765625 27.61359375 32.09765625 26.93359375 32.09765625 C26.93359375 30.11765625 26.93359375 28.13765625 26.93359375 26.09765625 C26.27359375 26.09765625 25.61359375 26.09765625 24.93359375 26.09765625 C23.87918305 22.44236581 22.8408856 18.79221406 21.93359375 15.09765625 C21.75183594 15.88269531 21.57007813 16.66773438 21.3828125 17.4765625 C19.99140987 23.29191196 18.51084329 28.69770484 15.93359375 34.09765625 C12.96359375 34.09765625 9.99359375 34.09765625 6.93359375 34.09765625 C6.72863281 33.39898437 6.52367187 32.7003125 6.3125 31.98046875 C5.90837891 30.61535156 5.90837891 30.61535156 5.49609375 29.22265625 C5.22925781 28.31773437 4.96242188 27.4128125 4.6875 26.48046875 C4.00745549 24.11490244 4.00745549 24.11490244 2.93359375 22.09765625 C2.89360175 20.09805613 2.89012576 18.09718383 2.93359375 16.09765625 C2.27359375 16.09765625 1.61359375 16.09765625 0.93359375 16.09765625 C0.93359375 14.11765625 0.93359375 12.13765625 0.93359375 10.09765625 C0.27359375 10.09765625 -0.38640625 10.09765625 -1.06640625 10.09765625 C-1.42756671 8.62018165 -1.78015673 7.1406095 -2.12890625 5.66015625 C-2.32613281 4.83644531 -2.52335937 4.01273437 -2.7265625 3.1640625 C-2.89478516 2.14119141 -2.89478516 2.14119141 -3.06640625 1.09765625 C-2.06640625 0.09765625 -2.06640625 0.09765625 0 0 Z " fill="#000000" transform="translate(122.06640625,278.90234375)"/>
<path d="M0 0 C1.06605469 0.01546875 2.13210938 0.0309375 3.23046875 0.046875 C5.8125 0.25 5.8125 0.25 6.8125 1.25 C8.47454487 1.45775561 10.14279491 1.61718255 11.8125 1.75 C16.70138889 2.13888889 16.70138889 2.13888889 17.8125 3.25 C17.85313832 4.91617115 17.855221 6.58388095 17.8125 8.25 C15.8325 9.24 15.8325 9.24 13.8125 10.25 C13.8125 12.23 13.8125 14.21 13.8125 16.25 C13.1525 16.25 12.4925 16.25 11.8125 16.25 C11.544375 16.86875 11.27625 17.4875 11 18.125 C9.8125 20.25 9.8125 20.25 6.8125 22.25 C4.33203125 22.6640625 4.33203125 22.6640625 1.625 22.875 C0.72394531 22.94976562 -0.17710937 23.02453125 -1.10546875 23.1015625 C-1.79253906 23.15054687 -2.47960937 23.19953125 -3.1875 23.25 C-2.15109375 23.28738281 -1.1146875 23.32476562 -0.046875 23.36328125 C1.32295184 23.42895788 2.69274191 23.49540464 4.0625 23.5625 C5.08537109 23.59633789 5.08537109 23.59633789 6.12890625 23.63085938 C9.14851149 23.79210043 11.53663744 24.11404859 14.26171875 25.45703125 C16.3672818 27.89142278 16.37937149 29.43381132 16.375 32.625 C16.39691406 33.56085938 16.41882813 34.49671875 16.44140625 35.4609375 C15.5175754 39.55792648 14.29043282 40.87284149 10.8125 43.25 C7.0201779 43.84904387 3.32694755 43.72165009 -0.5 43.5625 C-1.52673828 43.53994141 -2.55347656 43.51738281 -3.61132812 43.49414062 C-6.1382179 43.43537575 -8.66210255 43.35327849 -11.1875 43.25 C-11.1875 42.26 -11.1875 41.27 -11.1875 40.25 C-12.1775 39.92 -13.1675 39.59 -14.1875 39.25 C-14.24172947 37.8129191 -14.28039723 36.37524538 -14.3125 34.9375 C-14.33570313 34.13699219 -14.35890625 33.33648437 -14.3828125 32.51171875 C-14.1875 30.25 -14.1875 30.25 -12.1875 27.25 C-12.10844936 24.91800612 -12.09951231 22.58167378 -12.1875 20.25 C-11.5275 19.92 -10.8675 19.59 -10.1875 19.25 C-10.8475 18.92 -11.5075 18.59 -12.1875 18.25 C-13.60658422 15.56120885 -14.22877567 13.80034227 -14 10.75 C-11.5604361 3.24364953 -7.9633435 -0.19399132 0 0 Z M-4.1875 8.25 C-4.43755386 11.20817107 -4.43755386 11.20817107 -4.1875 14.25 C-2.34866119 16.53728734 -2.34866119 16.53728734 0.4375 16.375 C1.22125 16.33375 2.005 16.2925 2.8125 16.25 C2.8125 15.59 2.8125 14.93 2.8125 14.25 C3.8025 13.92 4.7925 13.59 5.8125 13.25 C5.23905063 10.38275314 4.9510485 9.3885485 2.8125 7.25 C-0.98761859 6.73207372 -0.98761859 6.73207372 -4.1875 8.25 Z M-6.1875 32.25 C-6.1875 33.24 -6.1875 34.23 -6.1875 35.25 C-3.19011059 37.24825961 -2.55402492 37.52550398 0.8125 37.5 C1.493125 37.50515625 2.17375 37.5103125 2.875 37.515625 C5.13666007 37.34917603 5.13666007 37.34917603 7.8125 35.25 C7.31493908 32.49358584 7.31493908 32.49358584 5.8125 30.25 C4.17019636 30.1254514 2.52197724 30.07431476 0.875 30.0625 C-0.02089844 30.04832031 -0.91679687 30.03414063 -1.83984375 30.01953125 C-4.37864534 30.01805231 -4.37864534 30.01805231 -6.1875 32.25 Z " fill="#000000" transform="translate(287.1875,278.75)"/>
<path d="M0 0 C0.97324219 0.00644531 1.94648438 0.01289063 2.94921875 0.01953125 C5.3125 0.1875 5.3125 0.1875 6.3125 1.1875 C7.99433948 1.42037008 9.6837416 1.60014166 11.375 1.75 C12.29410156 1.83378906 13.21320312 1.91757812 14.16015625 2.00390625 C15.22556641 2.09478516 15.22556641 2.09478516 16.3125 2.1875 C16.3125 4.1675 16.3125 6.1475 16.3125 8.1875 C14.9925 8.5175 13.6725 8.8475 12.3125 9.1875 C12.37050781 9.79078125 12.42851563 10.3940625 12.48828125 11.015625 C12.85119969 17.44446594 12.85119969 17.44446594 10.5 20.6875 C5.88783756 22.85792938 1.35951072 23.01072204 -3.6875 23.1875 C-2.11548828 23.26097656 -2.11548828 23.26097656 -0.51171875 23.3359375 C0.86721354 23.41098143 2.2461185 23.48652857 3.625 23.5625 C4.66043945 23.60890625 4.66043945 23.60890625 5.71679688 23.65625 C9.38240789 23.86874919 11.19150792 24.10683861 14.3125 26.1875 C14.3125 26.8475 14.3125 27.5075 14.3125 28.1875 C14.9725 28.1875 15.6325 28.1875 16.3125 28.1875 C16.67916667 35.52083333 16.67916667 35.52083333 14.9375 38.6875 C13.3125 40.1875 13.3125 40.1875 11.3125 40.1875 C11.3125 41.1775 11.3125 42.1675 11.3125 43.1875 C7.75062343 43.36229953 4.18985227 43.46851143 0.625 43.5625 C-0.38240234 43.61277344 -1.38980469 43.66304688 -2.42773438 43.71484375 C-9.69547469 43.8587594 -9.69547469 43.8587594 -12.51245117 41.95263672 C-15.07719605 39.06215975 -15.69188618 37.44189861 -15.625 33.5625 C-14.6875 30.1875 -14.6875 30.1875 -13.66796875 28.3046875 C-12.50488554 25.79316918 -12.27975175 23.68935544 -12.0625 20.9375 C-11.95035156 19.59945313 -11.95035156 19.59945313 -11.8359375 18.234375 C-11.78695313 17.55890625 -11.73796875 16.8834375 -11.6875 16.1875 C-12.3475 16.1875 -13.0075 16.1875 -13.6875 16.1875 C-13.74172947 14.7504191 -13.78039723 13.31274538 -13.8125 11.875 C-13.83570313 11.07449219 -13.85890625 10.27398437 -13.8828125 9.44921875 C-13.6875 7.1875 -13.6875 7.1875 -11.6875 4.1875 C-11.0275 4.1875 -10.3675 4.1875 -9.6875 4.1875 C-9.6875 3.5275 -9.6875 2.8675 -9.6875 2.1875 C-6.36599055 0.1914385 -3.84659894 -0.05649211 0 0 Z M-4.5625 8.4375 C-5.93568863 10.15404233 -5.93568863 10.15404233 -5.375 12.375 C-5.148125 12.973125 -4.92125 13.57125 -4.6875 14.1875 C-4.0275 14.1875 -3.3675 14.1875 -2.6875 14.1875 C-2.6875 14.8475 -2.6875 15.5075 -2.6875 16.1875 C-0.27104218 16.35437448 -0.27104218 16.35437448 2.3125 16.1875 C4.5616908 14.36046773 4.5616908 14.36046773 4.5625 11.6875 C4.5616908 9.01453227 4.5616908 9.01453227 2.3125 7.1875 C-0.59468056 6.81478454 -2.09832793 6.79471862 -4.5625 8.4375 Z M-6.6875 32.1875 C-6.52083333 34.27083333 -6.52083333 34.27083333 -5.6875 36.1875 C-2.62320224 37.71964888 -0.0709358 37.41688548 3.3125 37.1875 C6.22174342 35.96151355 6.22174342 35.96151355 8.3125 34.1875 C8.3125 33.5275 8.3125 32.8675 8.3125 32.1875 C5.06167327 30.02028218 4.02017847 29.91528982 0.25 29.9375 C-0.62785156 29.93234375 -1.50570313 29.9271875 -2.41015625 29.921875 C-4.88552328 29.97190648 -4.88552328 29.97190648 -6.6875 32.1875 Z " fill="#000000" transform="translate(500.6875,278.8125)"/>
<path d="M0 0 C5.754375 -0.12375 5.754375 -0.12375 11.625 -0.25 C12.82334473 -0.28641602 14.02168945 -0.32283203 15.25634766 -0.36035156 C21.48173196 -0.42516665 25.34118569 -0.30282518 30 4 C33.11742133 8.676132 32.71549289 13.5290089 32 19 C30.09892763 22.97634659 27.06068511 25.39264548 23 27 C18.67214047 27.55404965 14.35932562 27.73844046 10 28 C10 33.61 10 39.22 10 45 C6.7 45 3.4 45 0 45 C0 30.15 0 15.3 0 0 Z M9 6 C9 10.95 9 15.9 9 21 C15.27631221 21.44821352 15.27631221 21.44821352 21.0625 19.4375 C23.66920478 16.15809721 23.45404871 14.08643837 23 10 C21.70826489 7.41652978 20.65913963 7.05063908 18 6 C14.97207178 5.74934369 12.04558972 5.91042383 9 6 Z " fill="#000000" transform="translate(55,268)"/>
<path d="M0 0 C2.64 0 5.28 0 8 0 C8 4.95 8 9.9 8 15 C9.32 14.34 10.64 13.68 12 13 C16.07424011 12.36129899 20.17229808 12.11361951 23.94921875 13.9453125 C27.43960663 16.63282666 28.44255407 18.77241317 29 23 C29.07831674 24.91143363 29.10788625 26.82527121 29.09765625 28.73828125 C29.09443359 29.80498047 29.09121094 30.87167969 29.08789062 31.97070312 C29.07951172 33.07349609 29.07113281 34.17628906 29.0625 35.3125 C29.05798828 36.43462891 29.05347656 37.55675781 29.04882812 38.71289062 C29.03707313 41.4753151 29.02064077 44.23762998 29 47 C26.03 47 23.06 47 20 47 C19.97494385 46.2479126 19.9498877 45.4958252 19.92407227 44.72094727 C19.80849486 41.33460804 19.68559655 37.94857387 19.5625 34.5625 C19.52318359 33.37849609 19.48386719 32.19449219 19.44335938 30.97460938 C19.40146484 29.84990234 19.35957031 28.72519531 19.31640625 27.56640625 C19.27974854 26.52427979 19.24309082 25.48215332 19.20532227 24.40844727 C19.26484659 22.0500174 19.26484659 22.0500174 18 21 C15.09425457 20.68586536 13.44711935 20.75168578 10.87011719 22.18286133 C8.39613706 24.58675611 8.46592426 25.91692733 8.390625 29.32421875 C8.35839844 30.35224609 8.32617188 31.38027344 8.29296875 32.43945312 C8.27169922 34.04723633 8.27169922 34.04723633 8.25 35.6875 C8.22035156 36.77095703 8.19070313 37.85441406 8.16015625 38.97070312 C8.08941156 41.64721059 8.03673844 44.32284479 8 47 C5.36 47 2.72 47 0 47 C0 31.49 0 15.98 0 0 Z " fill="#000000" transform="translate(345,266)"/>
<path d="M0 0 C1.134375 0.020625 2.26875 0.04125 3.4375 0.0625 C3.4375 0.7225 3.4375 1.3825 3.4375 2.0625 C3.98535156 1.74152344 4.53320312 1.42054688 5.09765625 1.08984375 C9.36965712 -0.78584277 13.87608714 -0.62103516 18.4375 0.0625 C21.5 2.4375 21.5 2.4375 23.4375 5.0625 C24.0975 5.7225 24.7575 6.3825 25.4375 7.0625 C25.66455078 9.76806641 25.66455078 9.76806641 25.6328125 13.1640625 C25.62636719 14.37578125 25.61992187 15.5875 25.61328125 16.8359375 C25.59652344 18.10695313 25.57976562 19.37796875 25.5625 20.6875 C25.55347656 21.96625 25.54445313 23.245 25.53515625 24.5625 C25.51152303 27.72935167 25.47857629 30.89583424 25.4375 34.0625 C22.4675 34.0625 19.4975 34.0625 16.4375 34.0625 C16.41244385 33.38147217 16.3873877 32.70044434 16.36157227 31.9987793 C16.24559048 28.91566245 16.12287384 25.83284954 16 22.75 C15.96068359 21.67814453 15.92136719 20.60628906 15.88085938 19.50195312 C15.83896484 18.47392578 15.79707031 17.44589844 15.75390625 16.38671875 C15.71724854 15.43885498 15.68059082 14.49099121 15.64282227 13.5144043 C15.52319813 10.926329 15.52319813 10.926329 14.4375 8.0625 C10.09565798 8.24714366 10.09565798 8.24714366 6.4375 10.0625 C6.27985595 11.84119726 6.18649323 13.62568476 6.12109375 15.41015625 C6.07919922 16.48974609 6.03730469 17.56933594 5.99414062 18.68164062 C5.95482422 19.81794922 5.91550781 20.95425781 5.875 22.125 C5.83181641 23.26517578 5.78863281 24.40535156 5.74414062 25.58007812 C5.63767161 28.40742195 5.53565793 31.23485738 5.4375 34.0625 C2.1375 34.0625 -1.1625 34.0625 -4.5625 34.0625 C-4.58715288 29.38110746 -4.60533739 24.69975241 -4.61743164 20.01831055 C-4.62247157 18.42455386 -4.6293035 16.83080181 -4.63793945 15.23706055 C-4.65001999 12.95099747 -4.65573155 10.66499533 -4.66015625 8.37890625 C-4.66531754 7.66223282 -4.67047882 6.94555939 -4.67579651 6.20716858 C-4.67599263 4.49186328 -4.62442007 2.77668734 -4.5625 1.0625 C-3.5625 0.0625 -3.5625 0.0625 0 0 Z " fill="#000000" transform="translate(244.5625,278.9375)"/>
<path d="M0 0 C4.57814349 2.57301479 8.1080001 6.05031305 10 11 C10.89113584 17.47787208 11.12323769 23.35325094 7.1875 28.8125 C5.60546875 30.70703125 5.60546875 30.70703125 4 32 C3.01 32 2.02 32 1 32 C1 32.66 1 33.32 1 34 C-1.24973447 34.054138 -3.49984383 34.09285491 -5.75 34.125 C-7.00296875 34.14820313 -8.2559375 34.17140625 -9.546875 34.1953125 C-12.72820492 34.01537302 -14.36521896 33.68998582 -17 32 C-17 31.34 -17 30.68 -17 30 C-17.99 29.67 -18.98 29.34 -20 29 C-20 28.01 -20 27.02 -20 26 C-20.66 26 -21.32 26 -22 26 C-23.49944026 20.00223894 -23.49944026 13.99776106 -22 8 C-21.34 8 -20.68 8 -20 8 C-19.95875 7.4225 -19.9175 6.845 -19.875 6.25 C-18.84514108 3.60179136 -17.56838445 2.24221674 -15.1328125 0.77734375 C-10.1875162 -1.02506278 -5.12390161 -0.94239847 0 0 Z M-11.875 8.875 C-14.80386346 13.18215215 -14.78441191 16.92196501 -14 22 C-12.96857966 24.51243417 -12.39546553 25.71362841 -10.1875 27.3125 C-7.36456125 28.19970932 -5.794568 27.93152267 -3 27 C-1.01141329 25.40913063 -0.11857866 24.41781073 0.58203125 21.94921875 C1.07407982 17.12047095 1.09711048 13.52534367 -1 9 C-2.86963998 6.73701563 -2.86963998 6.73701563 -5.8125 6.5625 C-9.11759764 6.78486367 -9.11759764 6.78486367 -11.875 8.875 Z " fill="#000000" transform="translate(110,279)"/>
<path d="M0 0 C4.31022883 1.89045124 5.59683243 3.27429838 7.875 7.375 C8.9553094 10.85599695 9.34384938 13.38958154 9 17 C8 18 8 18 5.95874023 18.11352539 C5.08419189 18.10828857 4.20964355 18.10305176 3.30859375 18.09765625 C2.36435547 18.09443359 1.42011719 18.09121094 0.44726562 18.08789062 C-0.54595703 18.07951172 -1.53917969 18.07113281 -2.5625 18.0625 C-3.55958984 18.05798828 -4.55667969 18.05347656 -5.58398438 18.04882812 C-8.05604849 18.03700007 -10.52799518 18.02051849 -13 18 C-12.34 20.64 -11.68 23.28 -11 26 C-5.18697608 27.08378412 -3.03895182 27.26850929 2 24 C4.8125 24.3125 4.8125 24.3125 7 25 C7.33 26.65 7.66 28.3 8 30 C7.34 30 6.68 30 6 30 C6 30.66 6 31.32 6 32 C4.68 32 3.36 32 2 32 C2 32.66 2 33.32 2 34 C-11.96294462 34.68858357 -11.96294462 34.68858357 -15.6875 32.25 C-20.19270925 27.86655317 -22.10026719 24.23564819 -23 18 C-22.75 15.375 -22.75 15.375 -22 13 C-21.690625 11.96875 -21.38125 10.9375 -21.0625 9.875 C-20 7 -20 7 -18 4 C-17.34 4 -16.68 4 -16 4 C-16 3.34 -16 2.68 -16 2 C-10.99531825 -0.99323071 -5.64989138 -0.59751194 0 0 Z M-13 10 C-13 10.66 -13 11.32 -13 12 C-8.38 12 -3.76 12 1 12 C-2.26398883 6.77962456 -2.26398883 6.77962456 -6 6.5 C-9.22494561 7.03749094 -10.7030845 7.7030845 -13 10 Z " fill="#000000" transform="translate(191,279)"/>
<path d="M0 0 C0.9384375 -0.00515625 1.876875 -0.0103125 2.84375 -0.015625 C5.54047676 0.25404768 7.18949293 0.8767741 9.5 2.25 C9.5 2.91 9.5 3.57 9.5 4.25 C10.49 4.58 11.48 4.91 12.5 5.25 C14.5 9.25 14.5 9.25 14.5 18.25 C7.24 18.25 -0.02 18.25 -7.5 18.25 C-5.31940167 25.09825895 -5.31940167 25.09825895 -1.5 27.25 C1.2012035 26.97295349 3.1306933 26.45773502 5.5 25.125 C8.2452919 23.9239348 9.71665662 24.2245577 12.5 25.25 C13.8125 27.3125 13.8125 27.3125 14.5 29.25 C11.28405915 32.78753494 8.8964141 34.1710173 4.046875 34.4453125 C2.79390625 34.42210937 1.5409375 34.39890625 0.25 34.375 C-1.64492188 34.34792969 -1.64492188 34.34792969 -3.578125 34.3203125 C-5.02445312 34.28550781 -5.02445312 34.28550781 -6.5 34.25 C-6.5 33.59 -6.5 32.93 -6.5 32.25 C-7.098125 32.12625 -7.69625 32.0025 -8.3125 31.875 C-10.5 31.25 -10.5 31.25 -13.5 29.25 C-13.5 28.26 -13.5 27.27 -13.5 26.25 C-14.16 26.25 -14.82 26.25 -15.5 26.25 C-17.10397086 13.04975329 -17.10397086 13.04975329 -14.5 7.25 C-10.14574699 2.09364775 -6.73791143 -0.03702149 0 0 Z M-7.5 12.25 C-2.88 12.25 1.74 12.25 6.5 12.25 C5.74849977 8.97226496 5.74849977 8.97226496 2.5 7.25 C-2.52989227 6.3234409 -4.29982026 8.59265172 -7.5 12.25 Z " fill="#000000" transform="translate(393.5,278.75)"/>
<path d="M0 0 C2.44119737 1.50501003 3.81588109 2.80891745 4.859375 5.4921875 C4.900625 6.0696875 4.941875 6.6471875 4.984375 7.2421875 C5.644375 7.2421875 6.304375 7.2421875 6.984375 7.2421875 C6.984375 10.5421875 6.984375 13.8421875 6.984375 17.2421875 C-0.275625 17.2421875 -7.535625 17.2421875 -15.015625 17.2421875 C-12.83502667 24.09044645 -12.83502667 24.09044645 -9.015625 26.2421875 C-5.18459458 25.92293497 -3.24881947 25.39765048 -0.015625 23.2421875 C2.61871754 23.56344878 4.61147597 24.05573798 6.984375 25.2421875 C6.984375 26.5621875 6.984375 27.8821875 6.984375 29.2421875 C0.6438837 33.96069265 -5.27152201 34.15038621 -13.015625 33.2421875 C-16.45907176 32.44846407 -17.24128176 31.78041642 -20.015625 29.2421875 C-23.22451107 23.32960443 -24.92452137 17.85969491 -23.015625 11.2421875 C-21.21042256 6.31890813 -19.78728633 2.89535135 -15.25390625 0.19140625 C-10.63698883 -1.76655349 -4.69467797 -1.76505334 0 0 Z M-12.953125 8.6796875 C-13.63375 9.5253125 -14.314375 10.3709375 -15.015625 11.2421875 C-10.395625 11.2421875 -5.775625 11.2421875 -1.015625 11.2421875 C-1.675625 9.9221875 -2.335625 8.6021875 -3.015625 7.2421875 C-7.6182231 5.76588245 -9.16073494 5.53281065 -12.953125 8.6796875 Z " fill="#000000" transform="translate(687.015625,279.7578125)"/>
<path d="M0 0 C9.57 0 19.14 0 29 0 C29 5.61 29 11.22 29 17 C28.34 17 27.68 17 27 17 C27 18.98 27 20.96 27 23 C18.09 23 9.18 23 0 23 C0 15.41 0 7.82 0 0 Z " fill="#FFC200" transform="translate(474,128)"/>
<path d="M0 0 C3.74030185 1.60298651 4.73158465 2.59737698 7 6 C7.22705078 8.91088867 7.22705078 8.91088867 7.1953125 12.41796875 C7.18886719 13.67158203 7.18242188 14.92519531 7.17578125 16.21679688 C7.15902344 17.52712891 7.14226563 18.83746094 7.125 20.1875 C7.11496639 21.52277987 7.1058412 22.85806689 7.09765625 24.19335938 C7.07405292 27.46242015 7.04112594 30.73112028 7 34 C3.44024528 34.04382735 0.43722845 33.8911333 -3 33 C-3.33 33.33 -3.66 33.66 -4 34 C-13.63933951 34.97190035 -13.63933951 34.97190035 -17.625 32.125 C-20.39517879 27.8438146 -20.08144565 25.04963016 -20 20 C-19.34 20 -18.68 20 -18 20 C-18 19.34 -18 18.68 -18 18 C-12.20200116 13.9666095 -7.98629919 13.49395016 -1 14 C-1.66 11.69 -2.32 9.38 -3 7 C-3.58007812 7.22816406 -4.16015625 7.45632813 -4.7578125 7.69140625 C-9.57455796 9.46390499 -12.88474517 10.44276418 -18 9 C-18.33 7.68 -18.66 6.36 -19 5 C-12.92574306 0.12667065 -7.7267557 -1.12631392 0 0 Z M-11 22 C-10.67 23.65 -10.34 25.3 -10 27 C-7.15038233 28.16095535 -6.16054927 28.06567925 -3.25 26.875 C-0.7099631 25.19619237 -0.7099631 25.19619237 -0.6875 22.3125 C-0.790625 21.549375 -0.89375 20.78625 -1 20 C-4.90432869 20 -7.38026598 20.68373308 -11 22 Z " fill="#000000" transform="translate(576,279)"/>
<path d="M0 0 C2.64 0 5.28 0 8 0 C8 2.64 8 5.28 8 8 C10.64 8.33 13.28 8.66 16 9 C16 11.31 16 13.62 16 16 C12.04 16.495 12.04 16.495 8 17 C8 23.6 8 30.2 8 37 C8.99 36.34 9.98 35.68 11 35 C13.6875 35.375 13.6875 35.375 16 36 C16.125 38.375 16.125 38.375 16 41 C13.41600594 43.58399406 12.21629635 43.3268593 8.625 43.375 C3.41033191 43.29309422 3.41033191 43.29309422 0.375 41.125 C-1.69149725 37.93132243 -2.12156494 36.20726073 -2.09765625 32.4296875 C-2.09282227 31.08583984 -2.09282227 31.08583984 -2.08789062 29.71484375 C-2.07951172 28.77769531 -2.07113281 27.84054687 -2.0625 26.875 C-2.05798828 25.93011719 -2.05347656 24.98523438 -2.04882812 24.01171875 C-2.03702357 21.67441613 -2.02055759 19.33723939 -2 17 C-3.32 16.67 -4.64 16.34 -6 16 C-6 13.69 -6 11.38 -6 9 C-4.35 9 -2.7 9 -1 9 C-0.67 6.03 -0.34 3.06 0 0 Z " fill="#000000" transform="translate(326,270)"/>
<path d="M0 0 C3.125 -0.1875 3.125 -0.1875 6 0 C6 2.97 6 5.94 6 9 C9.3 9 12.6 9 16 9 C16.04254356 10.99954746 16.04080783 13.00041636 16 15 C15.67 15.33 15.34 15.66 15 16 C12.03 16 9.06 16 6 16 C6.33 22.27 6.66 28.54 7 35 C7.99 35 8.98 35 10 35 C11.32 35 12.64 35 14 35 C14 35.66 14 36.32 14 37 C14.66 37 15.32 37 16 37 C16 38.32 16 39.64 16 41 C12.69613642 43.20257572 11.43182123 43.32249903 7.5625 43.375 C6.61503906 43.40335937 5.66757812 43.43171875 4.69140625 43.4609375 C1.19841937 42.86271914 0.20005142 41.73798324 -2 39 C-2.45410156 36.43457031 -2.45410156 36.43457031 -2.390625 33.578125 C-2.37773438 32.55332031 -2.36484375 31.52851563 -2.3515625 30.47265625 C-2.31804688 29.40917969 -2.28453125 28.34570312 -2.25 27.25 C-2.23195313 26.17105469 -2.21390625 25.09210938 -2.1953125 23.98046875 C-2.14821415 21.31941212 -2.082456 18.66015746 -2 16 C-3.65 16 -5.3 16 -7 16 C-7.625 14.1875 -7.625 14.1875 -8 12 C-7.34 11.01 -6.68 10.02 -6 9 C-4.68 9 -3.36 9 -2 9 C-2.04125 8.071875 -2.0825 7.14375 -2.125 6.1875 C-2 3 -2 3 0 0 Z " fill="#000000" transform="translate(540,270)"/>
<path d="M0 0 C6.66666667 0 13.33333333 0 20 0 C20 2.97 20 5.94 20 9 C18.01432292 9.13020833 16.02864583 9.26041667 14.04296875 9.390625 C11.22013426 10.2326177 10.538027 11.52503862 9 14 C8.50348204 16.30746465 8.50348204 16.30746465 8.48828125 18.765625 C8.45283203 19.65507812 8.41738281 20.54453125 8.38085938 21.4609375 C8.34702148 22.84152344 8.34702148 22.84152344 8.3125 24.25 C8.27833984 25.18585938 8.24417969 26.12171875 8.20898438 27.0859375 C8.12667838 29.39050533 8.0574737 31.69470119 8 34 C5.36 34 2.72 34 0 34 C0 22.78 0 11.56 0 0 Z " fill="#000000" transform="translate(203,279)"/>
<path d="M0 0 C2.64 0 5.28 0 8 0 C8 15.51 8 31.02 8 47 C5.36 47 2.72 47 0 47 C0 31.49 0 15.98 0 0 Z " fill="#000000" transform="translate(589,266)"/>
<path d="M0 0 C2.64 0 5.28 0 8 0 C9 1 9 1 9.11352539 4.14282227 C9.11336633 5.53402697 9.10767506 6.92523761 9.09765625 8.31640625 C9.0962413 9.04746078 9.09482635 9.77851532 9.09336853 10.53172302 C9.08775408 12.87535632 9.07519922 15.21889539 9.0625 17.5625 C9.05748686 19.14778508 9.05292363 20.73307166 9.04882812 22.31835938 C9.03777997 26.2122761 9.02050572 30.10612205 9 34 C6.03 34 3.06 34 0 34 C0 22.78 0 11.56 0 0 Z " fill="#000000" transform="translate(474,279)"/>
<path d="M0 0 C2.64 0 5.28 0 8 0 C8 11.22 8 22.44 8 34 C5.36 34 2.72 34 0 34 C-1.67673649 32.32326351 -1.12787817 30.27144924 -1.13894653 28.03344727 C-1.1369223 27.34178467 -1.13489807 26.65012207 -1.1328125 25.9375 C-1.13376923 25.23101318 -1.13472595 24.52452637 -1.13571167 23.79663086 C-1.13639333 22.30029207 -1.13454005 20.80395033 -1.13037109 19.30761719 C-1.12502257 17.00969843 -1.13031651 14.71197514 -1.13671875 12.4140625 C-1.13605797 10.96354123 -1.1347768 9.51302009 -1.1328125 8.0625 C-1.13483673 7.3708374 -1.13686096 6.6791748 -1.13894653 5.96655273 C-1.11495224 1.11495224 -1.11495224 1.11495224 0 0 Z " fill="#000000" transform="translate(521,279)"/>
<path d="M0 0 C2.64 0 5.28 0 8 0 C9.67673649 1.67673649 9.12787817 3.72855076 9.13894653 5.96655273 C9.1369223 6.65821533 9.13489807 7.34987793 9.1328125 8.0625 C9.13376923 8.76898682 9.13472595 9.47547363 9.13571167 10.20336914 C9.13639333 11.69970793 9.13454005 13.19604967 9.13037109 14.69238281 C9.12502257 16.99030157 9.13031651 19.28802486 9.13671875 21.5859375 C9.13605797 23.03645877 9.1347768 24.48697991 9.1328125 25.9375 C9.13483673 26.6291626 9.13686096 27.3208252 9.13894653 28.03344727 C9.11495224 32.88504776 9.11495224 32.88504776 8 34 C5.36 34 2.72 34 0 34 C0 22.78 0 11.56 0 0 Z " fill="#000000" transform="translate(226,279)"/>
<path d="M0 0 C2.64 0 5.28 0 8 0 C8 0.66 8 1.32 8 2 C8.66 2 9.32 2 10 2 C10.20086443 5.71599191 10.1519437 6.77208445 8 10 C6.0546875 10.29296875 6.0546875 10.29296875 3.875 10.1875 C2.59625 10.125625 1.3175 10.06375 0 10 C0 9.34 0 8.68 0 8 C-0.66 8 -1.32 8 -2 8 C-2 6.02 -2 4.04 -2 2 C-1.34 2 -0.68 2 0 2 C0 1.34 0 0.68 0 0 Z " fill="#000000" transform="translate(521,266)"/>
<path d="M0 0 C6.0546875 -0.1953125 6.0546875 -0.1953125 8 0 C10 2 10 2 10.125 5.125 C10.08375 6.07375 10.0425 7.0225 10 8 C9.34 8 8.68 8 8 8 C8 8.66 8 9.32 8 10 C5.36 10 2.72 10 0 10 C-1.36952673 7.26094655 -1.12621361 5.02912668 -1 2 C-0.67 1.34 -0.34 0.68 0 0 Z " fill="#000000" transform="translate(474,266)"/>
<path d="M0 0 C5.97873264 0.11935764 5.97873264 0.11935764 7.08984375 1.23046875 C7.32713189 7.75589248 7.32713189 7.75589248 6.08984375 10.23046875 C4.81109375 10.29234375 3.53234375 10.35421875 2.21484375 10.41796875 C1.49554688 10.45277344 0.77625 10.48757813 0.03515625 10.5234375 C-0.60679687 10.42675781 -1.24875 10.33007812 -1.91015625 10.23046875 C-4.0593141 7.00673198 -4.29302428 5.96343201 -3.91015625 2.23046875 C-1.91015625 0.23046875 -1.91015625 0.23046875 0 0 Z " fill="#000000" transform="translate(227.91015625,265.76953125)"/>
</svg>
