<?xml version="1.0" encoding="UTF-8"?>
<svg version="1.1" xmlns="http://www.w3.org/2000/svg" width="866" height="650">
<path d="M0 0 C285.78 0 571.56 0 866 0 C866 214.5 866 429 866 650 C580.22 650 294.44 650 0 650 C0 435.5 0 221 0 0 Z " fill="#FEFEFE" transform="translate(0,0)"/>
<path d="M0 0 C2.06873454 3.67460961 3.14258971 7.59190136 4.27734375 11.625 C4.59536705 12.73911255 4.59536705 12.73911255 4.91981506 13.87573242 C5.36793721 15.44868469 5.81413683 17.02218577 6.25854492 18.59619141 C6.92766029 20.96516297 7.60293087 23.33230842 8.27929688 25.69921875 C10.41969697 33.21739511 12.48204552 40.74105241 14.34008789 48.33496094 C15.40092235 52.61911521 16.57652174 56.87058587 17.75 61.125 C18.27772123 63.04937569 18.80504831 64.9738595 19.33203125 66.8984375 C19.6048291 67.89456055 19.87762695 68.89068359 20.15869141 69.91699219 C21.89356352 76.27449802 23.60321596 82.63882548 25.31005859 89.00390625 C26.84454398 94.72358362 28.39268779 100.43898816 29.96484375 106.1484375 C30.28461182 107.31665039 30.60437988 108.48486328 30.93383789 109.68847656 C31.54449481 111.91820594 32.15931952 114.14679967 32.77905273 116.37402344 C34.29498518 121.92905699 35.46355363 127.26415034 36 133 C36.66 133 37.32 133 38 133 C38.11730469 131.88753906 38.23460937 130.77507812 38.35546875 129.62890625 C38.98145888 124.63962237 40.11761895 119.8170086 41.3125 114.9375 C41.64906616 113.54398315 41.64906616 113.54398315 41.99243164 112.12231445 C43.54140256 105.75420061 45.19796113 99.41993277 46.91015625 93.09375 C50.52769282 79.61545413 53.78731179 66.04569661 56.875 52.4375 C60.00400508 38.6625029 63.5474602 25.00284143 67.13378906 11.34130859 C68.11230688 7.56678917 69.05428228 3.78287086 70 0 C87.49 0 104.98 0 123 0 C126.37404334 10.12213003 126.37404334 10.12213003 127.5871582 15.1315918 C127.86255936 16.25983368 128.13796051 17.38807556 128.42170715 18.55050659 C128.71180161 19.7545816 129.00189606 20.95865662 129.30078125 22.19921875 C129.61685821 23.4974284 129.93337271 24.79553159 130.25028992 26.09353638 C130.92425703 28.8558424 131.59635099 31.61859346 132.2668457 34.38174438 C134.03868831 41.6814955 135.82317222 48.97814604 137.61328125 56.2734375 C137.88525518 57.38212787 137.88525518 57.38212787 138.16272354 58.51321602 C140.75848752 69.08269318 143.42386625 79.63213317 146.16796875 90.1640625 C146.65793083 92.04467125 146.65793083 92.04467125 147.15779114 93.96327209 C148.70642197 99.89245188 150.26560852 105.81874081 151.83325195 111.74291992 C152.11578323 112.81758514 152.39831451 113.89225037 152.68940735 114.9994812 C153.21336441 116.99200343 153.74131916 118.98348062 154.27409363 120.97366333 C154.50333023 121.84707367 154.73256683 122.72048401 154.96875 123.62036133 C155.16919922 124.37472977 155.36964844 125.12909821 155.57617188 125.90632629 C156 128 156 128 156 132 C156.66 132 157.32 132 158 132 C158.12600586 130.9994458 158.25201172 129.9988916 158.38183594 128.96801758 C158.94134666 125.06667184 159.87332188 121.32130198 160.890625 117.51171875 C161.07539398 116.81581131 161.26016296 116.11990387 161.45053101 115.40290833 C162.04635204 113.16334899 162.64800631 110.92540722 163.25 108.6875 C163.66479765 107.13418049 164.07934732 105.58079473 164.49365234 104.02734375 C166.68100436 95.84037915 168.89300576 87.66062821 171.18652344 79.50268555 C173.00865064 73.01544549 174.75413302 66.50812417 176.5 60 C178.68119998 51.87288508 180.88464108 43.75331643 183.1496582 35.64916992 C185.11395831 28.61508166 187.03193978 21.56853437 188.94555664 14.52050781 C189.18395264 13.64362305 189.42234863 12.76673828 189.66796875 11.86328125 C189.87703857 11.09282471 190.0861084 10.32236816 190.30151367 9.52856445 C191.18048437 6.34663521 192.093118 3.174087 193 0 C211.48 0 229.96 0 249 0 C247.02847269 7.22893348 245.02022754 14.40762601 242.8125 21.5625 C242.32450928 23.14828857 242.32450928 23.14828857 241.82666016 24.76611328 C237.27093197 39.47369251 232.53374861 54.12468498 227.81176758 68.77954102 C224.52978373 78.98114499 221.31511416 89.19391731 218.26783752 99.46810913 C215.43716806 108.96774815 212.37961844 118.39399281 209.33599854 127.8270874 C203.48511731 145.96520299 197.73643459 164.12735164 192.2746582 182.38671875 C192.06471725 183.08411163 191.85477631 183.78150452 191.63847351 184.50003052 C191.08364474 186.34401735 190.53309007 188.18928874 189.98291016 190.03466797 C189 193 189 193 187 197 C168.52 197 150.04 197 131 197 C129.68 192.05 128.36 187.1 127 182 C126.6272998 180.60273682 126.25459961 179.20547363 125.87060547 177.76586914 C124.26856922 171.75979162 122.66802312 165.75332349 121.0703125 159.74609375 C117.00800335 144.4533369 117.00800335 144.4533369 112.85766602 129.18432617 C109.81771084 118.14192434 106.87175912 107.07423836 103.94790649 96.00061035 C103.4448024 94.0980341 102.93992641 92.19592543 102.43319702 90.29431152 C101.71470272 87.59596034 101.00305925 84.89588569 100.29296875 82.1953125 C100.07656738 81.38774506 99.86016602 80.58017761 99.63720703 79.74813843 C98.35468628 74.834786 97.52610145 70.05215834 97 65 C96.34 65 95.68 65 95 65 C94.88897949 65.65919434 94.77795898 66.31838867 94.66357422 66.99755859 C93.44938973 73.96288537 91.88689304 80.77984144 90.125 87.625 C87.71775014 97.08095333 87.71775014 97.08095333 85.46801758 106.57519531 C84.07062318 112.63292897 82.57122159 118.62772224 80.86328125 124.60546875 C77.24152957 137.47338508 74.03288425 150.45097036 70.76153564 163.41125488 C69.56678683 168.14377739 68.37012058 172.87581429 67.17181396 177.60743713 C66.53735771 180.11343139 65.90405395 182.61971778 65.27203369 185.12632751 C64.9879364 186.24922684 64.70383911 187.37212616 64.41113281 188.52905273 C64.16196106 189.51622787 63.91278931 190.50340302 63.65606689 191.52049255 C63.1679887 193.36511165 62.60339373 195.18981881 62 197 C43.52 197 25.04 197 6 197 C1.50154144 184.62923897 1.50154144 184.62923897 0.18823242 180.38696289 C-0.10920364 179.43128922 -0.40663971 178.47561554 -0.71308899 177.49098206 C-1.02046494 176.49493454 -1.32784088 175.49888702 -1.64453125 174.47265625 C-2.32873964 172.27537929 -3.01298566 170.07811405 -3.69726562 167.88085938 C-4.7511975 164.48561481 -5.80397771 161.09001746 -6.85571289 157.6940918 C-10.6174043 145.5604891 -14.41968617 133.46198915 -18.7134552 121.50428772 C-20.93474294 115.30755883 -22.80367664 109.04718146 -24.6015625 102.71484375 C-25.68017129 98.99060625 -26.86945927 95.31035351 -28.0859375 91.62890625 C-28.45275635 90.51346436 -28.8195752 89.39802246 -29.19750977 88.2487793 C-29.92649284 86.04299496 -30.66363143 83.83988485 -31.40991211 81.63989258 C-35.59868331 68.91855115 -35.59868331 68.91855115 -32.19921875 61.93359375 C-31.3754754 60.42743557 -30.537321 58.92909976 -29.6875 57.4375 C-28.76196273 55.74999024 -27.83888032 54.0611323 -26.91796875 52.37109375 C-26.19552979 51.05407471 -26.19552979 51.05407471 -25.45849609 49.71044922 C-23.0288271 45.19518555 -20.76964414 40.59719355 -18.5 36 C-14.15986595 27.2526522 -9.67411454 18.59241791 -5.09375 9.96875 C-3.34409009 6.67082989 -1.65271236 3.34780196 0 0 Z " fill="#033D4E" transform="translate(497,287)"/>
<path d="M0 0 C25.74 0 51.48 0 78 0 C75.75021298 6.74936105 75.75021298 6.74936105 74.03564453 10.06396484 C73.65366409 10.80775391 73.27168365 11.55154297 72.87812805 12.31787109 C72.46717392 13.10758301 72.05621979 13.89729492 71.6328125 14.7109375 C71.20183762 15.54786133 70.77086273 16.38478516 70.326828 17.24707031 C68.92993183 19.95831359 67.52741099 22.6666059 66.125 25.375 C64.20239019 29.10311871 62.28279095 32.83278438 60.36328125 36.5625 C59.89305038 37.47526703 59.42281952 38.38803406 58.93833923 39.32846069 C55.34120885 46.31713719 51.80428476 53.33301551 48.3125 60.375 C44.48424657 68.08629164 40.54623235 75.72894765 36.51171875 83.33422852 C31.94525437 91.95472733 27.62336233 100.69296816 23.30078125 109.4375 C20.5049887 115.06818709 17.66223855 120.66300856 14.71105957 126.21351624 C10.47715488 134.18304147 6.36069415 142.20412714 2.34375 150.28515625 C1.86529633 151.24756729 1.38684265 152.20997833 0.89389038 153.20155334 C-1.06342953 157.14357872 -3.01777296 161.0870607 -4.96826172 165.0324707 C-10.30512205 175.81911728 -15.73939949 186.50141087 -21.65118408 196.98550415 C-24.76924551 202.52839858 -27.59435185 208.15778762 -30.25 213.9375 C-34.81261351 223.6634188 -39.68026467 233.20339974 -44.65820312 242.72241211 C-48.77548698 250.60656071 -52.79317964 258.53419559 -56.75 266.5 C-60.76550355 274.57947317 -64.86082907 282.6027019 -69.10449219 290.56445312 C-73.68648669 299.20818323 -78.01603521 307.98017968 -82.35522461 316.74755859 C-82.92893799 317.90336426 -83.50265137 319.05916992 -84.09375 320.25 C-84.60615234 321.28640625 -85.11855469 322.3228125 -85.64648438 323.390625 C-87 326 -87 326 -89 329 C-91.54352483 329.28660203 -93.84286964 329.37857678 -96.38720703 329.34057617 C-97.52881287 329.34123329 -97.52881287 329.34123329 -98.69348145 329.34190369 C-101.21518393 329.33980959 -103.73622583 329.31645001 -106.2578125 329.29296875 C-108.00372962 329.28737499 -109.74965144 329.28310385 -111.49557495 329.28010559 C-116.0955704 329.26863948 -120.69528263 329.23915727 -125.29516602 329.20599365 C-129.98710295 329.17533071 -134.67908555 329.16160835 -139.37109375 329.14648438 C-148.58085375 329.11428913 -157.79040334 329.06307159 -167 329 C-165.56185575 325.95802188 -164.12280312 322.91647432 -162.68359375 319.875 C-162.27894897 319.0190625 -161.8743042 318.163125 -161.45739746 317.28125 C-154.49580906 302.57317091 -146.89711781 288.21394071 -139.26171875 273.84765625 C-134.1758302 264.24608238 -129.32114113 254.57801879 -124.70141602 244.74365234 C-120.4199435 235.6753087 -115.73471841 226.83775936 -111 218 C-109.82819899 215.80474558 -108.65815146 213.60858582 -107.49047852 211.41113281 C-106.79395555 210.10071229 -106.09554306 208.79129228 -105.39428711 207.48339844 C-101.44481438 200.06663916 -97.74512391 192.52117727 -94 185 C-90.42368474 177.82372271 -86.8450742 170.64859254 -83.26464844 163.47436523 C-82.17440839 161.28885277 -81.08488625 159.10298202 -79.99609375 156.91674805 C-74.21250555 145.3051495 -68.38538357 133.72629307 -62.30960083 122.26445007 C-59.28216572 116.5532108 -56.35605416 110.79900188 -53.5 105 C-50.16863676 98.28555159 -46.77301592 91.61582858 -43.25 85 C-38.50964668 76.09060629 -34.0134062 67.06355047 -29.51937866 58.02850342 C-25.236591 49.42220471 -20.87922475 40.86374639 -16.36645508 32.37524414 C-12.4413624 24.98366352 -8.71480922 17.49883849 -5 10 C-2.525 5.05 -2.525 5.05 0 0 Z " fill="#EB627B" transform="translate(287,155)"/>
<path d="M0 0 C17.82 0 35.64 0 54 0 C54 19.47 54 38.94 54 59 C69.18 59 84.36 59 100 59 C89.65277778 80.8441358 89.65277778 80.8441358 85.9375 87.6875 C84.638125 90.100625 83.33875 92.51375 82 95 C72.76 95 63.52 95 54 95 C54.06295916 108.68265953 54.13840473 122.36509481 54.23571491 136.04755402 C54.28040526 142.40115587 54.31966461 148.7546938 54.34643555 155.10839844 C54.37248143 161.24229498 54.41289363 167.37594535 54.46318626 173.50968933 C54.47984615 175.84755893 54.49136588 178.18547111 54.49761391 180.52339172 C54.50726422 183.80296518 54.53533596 187.08191006 54.56762695 190.36132812 C54.56619186 191.3237442 54.56475677 192.28616028 54.5632782 193.27774048 C54.64973335 199.5035532 55.12341295 205.69305645 59.40456104 210.61469269 C66.39650245 216.68574135 76.39043343 215.426785 85 215 C87.97 214.67 90.94 214.34 94 214 C94 227.86 94 241.72 94 256 C86.09511549 259.95244226 73.84589413 258.18634257 65.11645508 258.18530273 C63.06766102 258.18749448 61.01940321 258.20576006 58.97070312 258.22460938 C42.2592267 258.29748137 24.82875167 256.8658873 12 245 C11.38511719 244.44957031 10.77023437 243.89914062 10.13671875 243.33203125 C-0.27130265 232.87943589 -0.53417967 219.72222022 -0.58029461 205.84997368 C-0.56850721 202.47749765 -0.54210081 199.10582986 -0.50696969 195.73356104 C-0.47538874 192.18357834 -0.47275078 188.63356709 -0.46684265 185.08346558 C-0.45139623 178.38303182 -0.41049493 171.68301339 -0.3600952 164.98276126 C-0.30391224 157.34539787 -0.27664304 149.70801304 -0.25161803 142.07049394 C-0.19956869 126.38004889 -0.10799498 110.69017489 0 95 C-14.85 95 -29.7 95 -45 95 C-44.09973959 90.49869793 -42.76466667 87.20882502 -40.65625 83.23828125 C-40.16251892 82.29048042 -40.16251892 82.29048042 -39.65881348 81.3235321 C-38.61174581 79.31671964 -37.55606361 77.3145905 -36.5 75.3125 C-35.78978399 73.95538181 -35.08014244 72.59796282 -34.37109375 71.24023438 C-33.07583335 68.76153475 -31.77717774 66.28468109 -30.47460938 63.80981445 C-29.63674543 62.21329523 -28.80633611 60.61267222 -28 59 C-18.76 59 -9.52 59 0 59 C0 39.53 0 20.06 0 0 Z " fill="#023C4E" transform="translate(365,228)"/>
<path d="M0 0 C25.74 0 51.48 0 78 0 C75.75 6.75 75.75 6.75 74.2734375 9.6484375 C73.809375 10.56689453 73.809375 10.56689453 73.3359375 11.50390625 C72.86027344 12.43009766 72.86027344 12.43009766 72.375 13.375 C72.05015625 14.01566406 71.7253125 14.65632812 71.390625 15.31640625 C70.59742593 16.87947501 69.79922969 18.44000622 69 20 C68.34 20 67.68 20 67 20 C67.33 18.35 67.66 16.7 68 15 C68.66 15 69.32 15 70 15 C70.33 13.02 70.66 11.04 71 9 C69.68 9 68.36 9 67 9 C66.957279 7.33388095 66.95936168 5.66617115 67 4 C67.33 3.67 67.66 3.34 68 3 C35.33 2.505 35.33 2.505 2 2 C1.34 5.3 0.68 8.6 0 12 C-0.66 11.67 -1.32 11.34 -2 11 C-3.32 13.31 -4.64 15.62 -6 18 C-6.66 18 -7.32 18 -8 18 C-8.12117188 18.67546875 -8.24234375 19.3509375 -8.3671875 20.046875 C-8.53476562 20.93890625 -8.70234375 21.8309375 -8.875 22.75 C-9.03742188 23.63171875 -9.19984375 24.5134375 -9.3671875 25.421875 C-9.96796264 27.86947744 -10.77997117 29.80599857 -12 32 C-12.66 32 -13.32 32 -14 32 C-14 33.32 -14 34.64 -14 36 C-15.98 36.495 -15.98 36.495 -18 37 C-15.86067067 30.889628 -13.20090303 25.31495876 -10.125 19.625 C-6.64324319 13.12997965 -3.29770612 6.59541224 0 0 Z " fill="#E3667E" transform="translate(287,155)"/>
<path d="M0 0 C0.33 0.66 0.66 1.32 1 2 C1.89202873 1.99333817 1.89202873 1.99333817 2.80207825 1.98654175 C8.98236696 1.94235125 15.1626109 1.91215142 21.34301758 1.89013672 C23.6506533 1.88006893 25.95827625 1.86641377 28.26586914 1.84912109 C31.57962191 1.82490713 34.89320626 1.81352474 38.20703125 1.8046875 C39.2414888 1.79436493 40.27594635 1.78404236 41.3417511 1.77340698 C42.3025206 1.77325592 43.2632901 1.77310486 44.25317383 1.77294922 C45.09922684 1.768508 45.94527985 1.76406677 46.81697083 1.75949097 C49 2 49 2 52 4 C34.18 4 16.36 4 -2 4 C-2 23.47 -2 42.94 -2 63 C-11.24 63 -20.48 63 -30 63 C-30 62.67 -30 62.34 -30 62 C-21.09 62 -12.18 62 -3 62 C-3 41.87 -3 21.74 -3 1 C-2.01 0.67 -1.02 0.34 0 0 Z " fill="#C3D9DE" transform="translate(367,224)"/>
<path d="M0 0 C0 13.86 0 27.72 0 42 C-2.31 42 -4.62 42 -7 42 C-7 41.67 -7 41.34 -7 41 C-5.35 41 -3.7 41 -2 41 C-2.495 22.685 -2.495 22.685 -3 4 C-15.87 3.505 -15.87 3.505 -29 3 C-29 2.34 -29 1.68 -29 1 C-28.41508789 1.00523682 -27.83017578 1.01047363 -27.22753906 1.01586914 C-24.56837037 1.03670158 -21.90921889 1.04968007 -19.25 1.0625 C-18.32960938 1.07087891 -17.40921875 1.07925781 -16.4609375 1.08789062 C-15.57148438 1.09111328 -14.68203125 1.09433594 -13.765625 1.09765625 C-12.54020996 1.10551147 -12.54020996 1.10551147 -11.29003906 1.11352539 C-9.02924436 1.07748901 -9.02924436 1.07748901 -7.01464844 0.49389648 C-5 0 -5 0 0 0 Z " fill="#234A56" transform="translate(459,442)"/>
<path d="M0 0 C16.5 0 33 0 50 0 C50 0.33 50 0.66 50 1 C49.4406778 1.00808685 48.88135559 1.01617371 48.30508423 1.02450562 C42.49774955 1.11038349 36.69076285 1.2098789 30.88378906 1.31738281 C28.71490307 1.35572991 26.54595223 1.39057255 24.37695312 1.421875 C21.26408668 1.46740138 18.15166894 1.52541573 15.0390625 1.5859375 C14.065065 1.59748871 13.0910675 1.60903992 12.08755493 1.62094116 C10.73638077 1.6507457 10.73638077 1.6507457 9.35791016 1.68115234 C8.56293121 1.69447601 7.76795227 1.70779968 6.94888306 1.7215271 C4.76534628 1.83467008 4.76534628 1.83467008 3 4 C2.05572776 6.84465573 1.85469749 9.50932476 1.79467773 12.49316406 C1.7647599 13.81408051 1.7647599 13.81408051 1.73423767 15.16168213 C1.71752518 16.10348328 1.70081268 17.04528442 1.68359375 18.015625 C1.66281265 18.98659119 1.64203156 19.95755737 1.62062073 20.95794678 C1.55531138 24.05522685 1.49632677 27.15259068 1.4375 30.25 C1.39429708 32.35157111 1.35068222 34.4531338 1.30664062 36.5546875 C1.19964902 41.70303948 1.0983291 46.85147558 1 52 C1.66 52.33 2.32 52.66 3 53 C3 53.66 3 54.32 3 55 C2.34 55 1.68 55 1 55 C0.67 55.99 0.34 56.98 0 58 C0 38.86 0 19.72 0 0 Z " fill="#0F3945" transform="translate(365,228)"/>
<path d="M0 0 C0.33 0 0.66 0 1 0 C1.33 35.97 1.66 71.94 2 109 C1.01 109.495 1.01 109.495 0 110 C-1.17907645 107.6418471 -1.10972209 106.28671589 -1.08229065 103.65939331 C-1.07525116 102.74791534 -1.06821167 101.83643738 -1.06095886 100.89733887 C-1.04801285 99.89464966 -1.03506683 98.89196045 -1.02172852 97.85888672 C-1.01212097 96.80520905 -1.00251343 95.75153137 -0.99261475 94.66592407 C-0.95953757 91.17044575 -0.91923845 87.67508903 -0.87890625 84.1796875 C-0.85461366 81.76116367 -0.83076968 79.3426353 -0.80735779 76.92410278 C-0.74443123 70.54867387 -0.6753889 64.17332509 -0.60510254 57.79797363 C-0.53449641 51.29634256 -0.46963328 44.79465453 -0.40429688 38.29296875 C-0.27517408 25.52858354 -0.13978969 12.76427262 0 0 Z " fill="#294F5A" transform="translate(418,323)"/>
<path d="M0 0 C0.99 1.485 0.99 1.485 2 3 C0.35 4.98 -1.3 6.96 -3 9 C-3.495 8.01 -3.495 8.01 -4 7 C-3.01 5.02 -2.02 3.04 -1 1 C-26.74 1 -52.48 1 -79 1 C-79.66 2.98 -80.32 4.96 -81 7 C-81.66 7.66 -82.32 8.32 -83 9 C-83.75 7.3125 -83.75 7.3125 -84 5 C-82.45588684 2.39767456 -82.45588684 2.39767456 -80 0 C-76.79472351 -0.64596558 -76.79472351 -0.64596558 -72.95581055 -0.67529297 C-72.25445984 -0.68738297 -71.55310913 -0.69947296 -70.83050537 -0.71192932 C-68.51549378 -0.74578085 -66.2019543 -0.7443464 -63.88671875 -0.7421875 C-62.27250636 -0.75785254 -60.65831255 -0.77555244 -59.04414368 -0.79519653 C-55.66061401 -0.83146876 -52.2775131 -0.85184632 -48.89379883 -0.859375 C-44.56944454 -0.86901716 -40.24583543 -0.90439327 -35.92172527 -0.95004082 C-31.78511409 -0.99302074 -27.6484436 -1.024943 -23.51171875 -1.0546875 C-22.72811163 -1.06084957 -21.94450451 -1.06701164 -21.13715172 -1.07336044 C-18.90220333 -1.08852626 -16.66736478 -1.0960891 -14.43237305 -1.10107422 C-12.52853096 -1.10843094 -12.52853096 -1.10843094 -10.58622742 -1.11593628 C-6.95012508 -0.99838763 -3.55920792 -0.76712208 0 0 Z " fill="#FEE8EE" transform="translate(366,154)"/>
<path d="M0 0 C25.74 0 51.48 0 78 0 C77.34 1.98 76.68 3.96 76 6 C75.67 6 75.34 6 75 6 C75 4.35 75 2.7 75 1 C50.58 1 26.16 1 1 1 C1 2.32 1 3.64 1 5 C0.34 5 -0.32 5 -1 5 C-1 6.32 -1 7.64 -1 9 C-1.99 9.33 -2.98 9.66 -4 10 C-2.8741386 6.46157845 -1.66905241 3.33810482 0 0 Z " fill="#D27A8B" transform="translate(287,155)"/>
<path d="M0 0 C1 4 1 4 -3 11 C21.75 11 46.5 11 72 11 C72 11.33 72 11.66 72 12 C46.26 12 20.52 12 -6 12 C-4.02 8.04 -2.04 4.08 0 0 Z " fill="#D26D81" transform="translate(126,472)"/>
<path d="M0 0 C0.99 0.495 0.99 0.495 2 1 C0.125 5.75 0.125 5.75 -1 8 C-1.66 8 -2.32 8 -3 8 C-3 8.66 -3 9.32 -3 10 C-7.85148372 10.78733115 -12.49126554 11.12215946 -17.40405273 11.11352539 C-18.107332 11.11367142 -18.81061127 11.11381744 -19.53520203 11.1139679 C-21.83469851 11.11327726 -24.13411161 11.1055251 -26.43359375 11.09765625 C-28.03784643 11.09578905 -29.64209969 11.09436657 -31.24635315 11.09336853 C-35.44995727 11.08956715 -39.65352634 11.0797574 -43.8571167 11.06866455 C-48.1540886 11.05839906 -52.45106622 11.05385994 -56.74804688 11.04882812 C-65.16538059 11.03813281 -73.58268592 11.02108524 -82 11 C-82 10.34 -82 9.68 -82 9 C-56.26 9 -30.52 9 -4 9 C-3.34 7.35 -2.68 5.7 -2 4 C-1.34786461 2.65949948 -0.68620031 1.32338632 0 0 Z " fill="#FEF3F4" transform="translate(202,475)"/>
<path d="M0 0 C18.48 0 36.96 0 56 0 C55.34 2.97 54.68 5.94 54 9 C51.8480563 5.77208445 51.79913557 4.71599191 52 1 C50.57288696 1.25124634 50.57288696 1.25124634 49.11694336 1.50756836 C44.43973345 2.17163794 39.83990237 2.02321449 35.12890625 1.87890625 C33.74541237 1.84348976 33.74541237 1.84348976 32.33396912 1.80735779 C29.40996859 1.7312477 26.4862689 1.64699921 23.5625 1.5625 C21.57097789 1.5092265 19.57944143 1.45648653 17.58789062 1.40429688 C12.72507266 1.27570449 7.86250767 1.13981651 3 1 C1.62420173 3.66211372 0.62936439 6.06296616 0 9 C-0.66 9 -1.32 9 -2 9 C-1.34 6.03 -0.68 3.06 0 0 Z " fill="#193E49" transform="translate(690,287)"/>
<path d="M0 0 C0 0.66 0 1.32 0 2 C6.6 2 13.2 2 20 2 C20 2.33 20 2.66 20 3 C15.69907044 3.05027161 11.39830657 3.08612107 7.09716797 3.10986328 C5.64075738 3.1197839 4.18436593 3.13332468 2.72802734 3.15087891 C-7.06672432 3.26579318 -16.32262225 2.69741627 -26 1 C-26 0.67 -26 0.34 -26 0 C-22.41713181 -0.19720979 -18.83369943 -0.38107522 -15.25 -0.5625 C-14.23421875 -0.61857422 -13.2184375 -0.67464844 -12.171875 -0.73242188 C-11.1921875 -0.78076172 -10.2125 -0.82910156 -9.203125 -0.87890625 C-8.30239258 -0.9260376 -7.40166016 -0.97316895 -6.47363281 -1.02172852 C-4.12542592 -1.00110175 -2.23793298 -0.67823071 0 0 Z " fill="#28525B" transform="translate(424,483)"/>
<path d="M0 0 C0.495 1.485 0.495 1.485 1 3 C0.01 3.99 -0.98 4.98 -2 6 C-2 5.34 -2 4.68 -2 4 C-2.94840508 4.00666183 -2.94840508 4.00666183 -3.91596985 4.01345825 C-10.48554224 4.05764117 -17.05507255 4.08784544 -23.62475586 4.10986328 C-26.07789829 4.11993245 -28.53102869 4.13358861 -30.98413086 4.15087891 C-34.50637783 4.17508679 -38.02846639 4.18647388 -41.55078125 4.1953125 C-43.20089958 4.21079636 -43.20089958 4.21079636 -44.88435364 4.22659302 C-46.41560127 4.22681961 -46.41560127 4.22681961 -47.9777832 4.22705078 C-48.87713089 4.231492 -49.77647858 4.23593323 -50.70307922 4.24050903 C-53 4 -53 4 -56 2 C-37.52 2 -19.04 2 0 2 C0 1.34 0 0.68 0 0 Z " fill="#ECFBFC" transform="translate(684,482)"/>
<path d="M0 0 C0.66 0 1.32 0 2 0 C0.125 7.75 0.125 7.75 -1 10 C-19.48 10 -37.96 10 -57 10 C-57 9.67 -57 9.34 -57 9 C-39.18 9 -21.36 9 -3 9 C-2.67 7.35 -2.34 5.7 -2 4 C-0.9375 1.6875 -0.9375 1.6875 0 0 Z " fill="#153D46" transform="translate(685,474)"/>
<path d="M0 0 C0.99 0.33 1.98 0.66 3 1 C1.02 4.96 -0.96 8.92 -3 13 C11.52 13 26.04 13 41 13 C40.67 14.32 40.34 15.64 40 17 C40 16.01 40 15.02 40 14 C39.01 14.33 38.02 14.66 37 15 C34.15823313 15.09724538 31.34170467 15.13994658 28.5 15.1328125 C27.66791016 15.13376923 26.83582031 15.13472595 25.97851562 15.13571167 C24.22005131 15.13639187 22.46158448 15.13454872 20.703125 15.13037109 C18.01035934 15.12502058 15.31776047 15.13032148 12.625 15.13671875 C10.9166663 15.13605794 9.2083327 15.13477672 7.5 15.1328125 C6.29053711 15.13584885 6.29053711 15.13584885 5.05664062 15.13894653 C1.7809523 15.12519532 -0.87044163 15.04318612 -4 14 C-3.66009167 8.62007164 -3.31442207 4.46726453 0 0 Z " fill="#E2FAFE" transform="translate(323,310)"/>
<path d="M0 0 C1.17571451 3.67410785 1.07366746 7.16929183 1 11 C-0.32 11.33 -1.64 11.66 -3 12 C-3.1546875 12.86625 -3.1546875 12.86625 -3.3125 13.75 C-4 16 -4 16 -5.4375 17.875 C-7.32956595 20.4482097 -8.07469515 22.95971262 -9 26 C-9.33 26.66 -9.66 27.32 -10 28 C-10.99 28 -11.98 28 -13 28 C-11.38786322 22.35291515 -8.71574601 17.44852197 -5.9375 12.3125 C-5.0279187 10.62218413 -4.12027956 8.93082132 -3.21484375 7.23828125 C-2.81386475 6.49618408 -2.41288574 5.75408691 -1.99975586 4.98950195 C-0.88070119 2.8811225 -0.88070119 2.8811225 0 0 Z " fill="#E26F86" transform="translate(157,410)"/>
<path d="M0 0 C1.125 1.625 1.125 1.625 2 4 C1.34 5.98 0.68 7.96 0 10 C13.53 10 27.06 10 41 10 C41 10.33 41 10.66 41 11 C26.15 11 11.3 11 -4 11 C-3.1302743 6.65137149 -2.0525056 3.83729307 0 0 Z " fill="#1F4853" transform="translate(324,312)"/>
<path d="M0 0 C0.66 0 1.32 0 2 0 C2.55573751 2.12136362 3.09421768 4.24725521 3.625 6.375 C3.92664063 7.55835938 4.22828125 8.74171875 4.5390625 9.9609375 C4.69117188 10.96382813 4.84328125 11.96671875 5 13 C4.34 13.66 3.68 14.32 3 15 C3 14.01 3 13.02 3 12 C2.01 12.33 1.02 12.66 0 13 C-0.165 13.66 -0.33 14.32 -0.5 15 C-0.665 15.66 -0.83 16.32 -1 17 C-1.99 17.33 -2.98 17.66 -4 18 C-3.52319861 15.56201552 -3.04365871 13.12462484 -2.5625 10.6875 C-2.42779297 9.99720703 -2.29308594 9.30691406 -2.15429688 8.59570312 C-1.57225668 5.65710993 -0.94847772 2.84543315 0 0 Z " fill="#D9EAED" transform="translate(592,352)"/>
<path d="M0 0 C0.66 0.33 1.32 0.66 2 1 C0.58637449 6.14045638 -1.30846199 11.07769277 -5 15 C-7.95495528 16.08125217 -10.68646257 15.94091172 -13.80078125 15.78125 C-15.0553437 15.76427063 -15.0553437 15.76427063 -16.33525085 15.74694824 C-18.99670308 15.70229556 -21.65268843 15.60197668 -24.3125 15.5 C-26.12036466 15.4598576 -27.92831413 15.42335812 -29.73632812 15.390625 C-34.15964618 15.30259929 -38.57889774 15.16464751 -43 15 C-43 14.67 -43 14.34 -43 14 C-30.79 14 -18.58 14 -6 14 C-4.16163081 10.32326162 -3.06348187 6.95007553 -2 3 C-1.34 3 -0.68 3 0 3 C0 2.01 0 1.02 0 0 Z " fill="#E7657F" transform="translate(203,468)"/>
<path d="M0 0 C1.125 3.75 1.125 3.75 0 6 C-0.66 6 -1.32 6 -2 6 C-2.12117188 6.67546875 -2.24234375 7.3509375 -2.3671875 8.046875 C-2.61855469 9.38492188 -2.61855469 9.38492188 -2.875 10.75 C-3.03742188 11.63171875 -3.19984375 12.5134375 -3.3671875 13.421875 C-3.96796264 15.86947744 -4.77997117 17.80599857 -6 20 C-6.66 20 -7.32 20 -8 20 C-8 21.32 -8 22.64 -8 24 C-9.32 24.33 -10.64 24.66 -12 25 C-9.90156471 19.02387362 -7.33372568 13.56059719 -4.3125 8 C-3.89677734 7.22527344 -3.48105469 6.45054687 -3.05273438 5.65234375 C-2.03960761 3.76583185 -1.02043723 1.88256763 0 0 Z " fill="#DA7689" transform="translate(281,167)"/>
<path d="M0 0 C0.66 0.99 1.32 1.98 2 3 C0.625 6.6875 0.625 6.6875 -1 10 C-1.66 10 -2.32 10 -3 10 C-3.33 11.65 -3.66 13.3 -4 15 C-4.66 15 -5.32 15 -6 15 C-6.33 16.65 -6.66 18.3 -7 20 C-7.66 20 -8.32 20 -9 20 C-9.33 21.65 -9.66 23.3 -10 25 C-10.66 25 -11.32 25 -12 25 C-10.37317535 19.29676416 -7.66802013 14.31986097 -4.875 9.125 C-4.40707031 8.24585938 -3.93914062 7.36671875 -3.45703125 6.4609375 C-2.3087907 4.30505729 -1.15636097 2.15153223 0 0 Z " fill="#204854" transform="translate(477,326)"/>
<path d="M0 0 C1.80119314 3.27058754 2.81028015 6.51683039 3.75 10.125 C4.17539062 11.70667969 4.17539062 11.70667969 4.609375 13.3203125 C4.73828125 14.20460938 4.8671875 15.08890625 5 16 C4.34 16.66 3.68 17.32 3 18 C2.34 15.36 1.68 12.72 1 10 C-0.98 10.33 -2.96 10.66 -5 11 C-3.55049545 7.2089881 -1.84827434 3.6125362 0 0 Z " fill="#214A52" transform="translate(497,287)"/>
<path d="M0 0 C-1.48904175 3.89608498 -3.24378713 7.59097018 -5.125 11.3125 C-5.66382813 12.38113281 -6.20265625 13.44976562 -6.7578125 14.55078125 C-7.37269531 15.76314453 -7.37269531 15.76314453 -8 17 C-9.14864928 13.04064075 -8.88397934 10.05157197 -8 6 C-6.625 4.25 -6.625 4.25 -5 3 C-4.484375 2.443125 -3.96875 1.88625 -3.4375 1.3125 C-2 0 -2 0 0 0 Z " fill="#FBEFF0" transform="translate(281,167)"/>
<path d="M0 0 C1.21065165 3.63195496 0.62784815 5.06531629 -0.4375 8.6875 C-0.72496094 9.68136719 -1.01242188 10.67523438 -1.30859375 11.69921875 C-1.53675781 12.45847656 -1.76492187 13.21773438 -2 14 C-2.99 14 -3.98 14 -5 14 C-5.99 16.97 -6.98 19.94 -8 23 C-8.66 22.67 -9.32 22.34 -10 22 C-8.4719611 16.90117545 -6.28963144 12.34334341 -3.875 7.625 C-3.50246094 6.88894531 -3.12992188 6.15289062 -2.74609375 5.39453125 C-1.8343878 3.59449642 -0.91770068 1.79698598 0 0 Z " fill="#D76F84" transform="translate(198,330)"/>
<path d="M0 0 C0.33 0 0.66 0 1 0 C0.56952295 6.13429793 -0.5540447 9.88327849 -4 15 C-4.99 15.495 -4.99 15.495 -6 16 C-6.90343684 17.88263881 -6.90343684 17.88263881 -7.625 20.0625 C-7.88539063 20.79597656 -8.14578125 21.52945312 -8.4140625 22.28515625 C-8.60742188 22.85105469 -8.80078125 23.41695313 -9 24 C-9.66 23.34 -10.32 22.68 -11 22 C-7.33333333 14.66666667 -3.66666667 7.33333333 0 0 Z " fill="#1B4550" transform="translate(336,289)"/>
<path d="M0 0 C2.475 0.495 2.475 0.495 5 1 C6.32 6.94 7.64 12.88 9 19 C8.34 19 7.68 19 7 19 C7 17.68 7 16.36 7 15 C6.34 15 5.68 15 5 15 C3.79377247 11.70297809 2.96567256 8.74254422 2.5 5.25 C2.31584196 1.92159951 2.31584196 1.92159951 0 0 Z " fill="#1F454F" transform="translate(616,287)"/>
<path d="M0 0 C5 1 5 1 7 2 C6.67 4.97 6.34 7.94 6 11 C5.01 11 4.02 11 3 11 C2.01 7.37 1.02 3.74 0 0 Z " fill="#104050" transform="translate(496,462)"/>
<path d="M0 0 C0.66 0.33 1.32 0.66 2 1 C-1.96 8.59 -5.92 16.18 -10 24 C-10.33 24 -10.66 24 -11 24 C-11.34986966 19.8015641 -10.60104849 18.22530013 -8 15 C-7.29485154 12.85266073 -7.29485154 12.85266073 -7 11 C-6.34 11 -5.68 11 -5 11 C-4.67 9.02 -4.34 7.04 -4 5 C-3.34 5 -2.68 5 -2 5 C-1.34 3.35 -0.68 1.7 0 0 Z " fill="#D57285" transform="translate(300,280)"/>
<path d="M0 0 C0.33 0 0.66 0 1 0 C0.94008594 1.95918968 0.85132862 3.91751529 0.75 5.875 C0.70359375 6.96554687 0.6571875 8.05609375 0.609375 9.1796875 C0.40828125 10.11039062 0.2071875 11.04109375 0 12 C-1.984375 13.2578125 -1.984375 13.2578125 -4 14 C-4.33 14.66 -4.66 15.32 -5 16 C-5.66 16 -6.32 16 -7 16 C-5.35433477 10.31497465 -2.70967216 5.23318364 0 0 Z " fill="#DA7889" transform="translate(165,394)"/>
<path d="M0 0 C2.27096994 3.40645491 2.09140642 4.79510179 1.4921875 8.7265625 C0.6548894 12.5940823 -0.63482248 16.29083844 -2 20 C-2.66 20 -3.32 20 -4 20 C-3.34034961 13.13963599 -1.7637236 6.65556077 0 0 Z " fill="#D7EAED" transform="translate(572,430)"/>
<path d="M0 0 C0.66 0.33 1.32 0.66 2 1 C0.54431948 3.77223484 -0.91500299 6.54253635 -2.375 9.3125 C-2.7875 10.09818359 -3.2 10.88386719 -3.625 11.69335938 C-4.02460938 12.45068359 -4.42421875 13.20800781 -4.8359375 13.98828125 C-5.20251465 14.68477783 -5.5690918 15.38127441 -5.94677734 16.09887695 C-6.87953389 17.78255225 -7.93232138 19.39848207 -9 21 C-9 19.35 -9 17.7 -9 16 C-8.34 16 -7.68 16 -7 16 C-6.67 14.02 -6.34 12.04 -6 10 C-5.34 10 -4.68 10 -4 10 C-3.67 7.36 -3.34 4.72 -3 2 C-2.01 2 -1.02 2 0 2 C0 1.34 0 0.68 0 0 Z " fill="#DC7387" transform="translate(230,417)"/>
<path d="M0 0 C1.40632578 2.81265157 0.53440321 4.05287441 -0.43359375 7.0078125 C-0.75263672 7.99394531 -1.07167969 8.98007812 -1.40039062 9.99609375 C-1.74263672 11.02863281 -2.08488281 12.06117188 -2.4375 13.125 C-2.77587891 14.16527344 -3.11425781 15.20554687 -3.46289062 16.27734375 C-4.3020101 18.85379509 -5.14796906 21.42779536 -6 24 C-6.33 24 -6.66 24 -7 24 C-6.31566996 15.51430752 -4.98514375 7.12163393 0 0 Z " fill="#16434C" transform="translate(710,398)"/>
<path d="M0 0 C1.51171875 1.37109375 1.51171875 1.37109375 3 3 C2.72963853 5.97397616 2.14553974 6.85446026 0 9 C-0.309375 9.94875 -0.61875 10.8975 -0.9375 11.875 C-1.94030738 14.82443346 -3.00887882 16.64685679 -5 19 C-4.39297368 12.3227105 -2.22368606 6.29872004 0 0 Z " fill="#E3F3F5" transform="translate(745,289)"/>
<path d="M0 0 C1.83553796 2.75330694 2.40778129 4.11657204 3.0703125 7.23046875 C3.24433594 8.03291016 3.41835938 8.83535156 3.59765625 9.66210938 C3.77167969 10.49548828 3.94570313 11.32886719 4.125 12.1875 C4.30675781 13.03248047 4.48851562 13.87746094 4.67578125 14.74804688 C5.12292753 16.8308072 5.56222376 18.91525006 6 21 C5.34 21 4.68 21 4 21 C0.87107467 14.06194818 0.33430401 7.56218722 0 0 Z " fill="#1D4653" transform="translate(643,381)"/>
<path d="M0 0 C1.32 0.66 2.64 1.32 4 2 C3.01 2.495 3.01 2.495 2 3 C1.27840576 4.64363134 0.60648579 6.31050386 0 8 C-0.66 8 -1.32 8 -2 8 C-2.0825 8.78375 -2.165 9.5675 -2.25 10.375 C-3 13 -3 13 -5.0625 14.3125 C-6.0215625 14.6528125 -6.0215625 14.6528125 -7 15 C-5.63408831 11.45756548 -4.09068516 8.07372071 -2.375 4.6875 C-1.70597656 3.36298828 -1.70597656 3.36298828 -1.0234375 2.01171875 C-0.68570312 1.34785156 -0.34796875 0.68398437 0 0 Z " fill="#FDE5E9" transform="translate(361,163)"/>
<path d="M0 0 C0.66 0.99 1.32 1.98 2 3 C1.35546875 5.453125 1.35546875 5.453125 0.1875 8.25 C-1.52625025 12.59496275 -2.58764588 16.3610162 -3 21 C-3.99 21 -4.98 21 -6 21 C-4.29977612 13.87352969 -2.42080258 6.9165788 0 0 Z " fill="#D5E7EB" transform="translate(704,419)"/>
<path d="M0 0 C0.99 0.66 1.98 1.32 3 2 C3 2.66 3 3.32 3 4 C2.34 4 1.68 4 1 4 C1.33 4.66 1.66 5.32 2 6 C2.039992 7.99960012 2.04346799 10.00047242 2 12 C1.01 12 0.02 12 -1 12 C-1 12.66 -1 13.32 -1 14 C-1.66 14 -2.32 14 -3 14 C-2.01 9.38 -1.02 4.76 0 0 Z " fill="#184352" transform="translate(682,316)"/>
<path d="M0 0 C0.33 0 0.66 0 1 0 C1.54555287 6.54663442 0.8277608 11.52378747 -3 17 C-3.66 17.33 -4.32 17.66 -5 18 C-1.92482916 5.33029613 -1.92482916 5.33029613 0 0 Z " fill="#DAEDF0" transform="translate(695,448)"/>
<path d="M0 0 C0.33 0 0.66 0 1 0 C1 2.64 1 5.28 1 8 C0.01 8 -0.98 8 -2 8 C-2.33 9.65 -2.66 11.3 -3 13 C-3.66 13 -4.32 13 -5 13 C-5 13.99 -5 14.98 -5 16 C-5.66 16 -6.32 16 -7 16 C-5.35433477 10.31497465 -2.70967216 5.23318364 0 0 Z " fill="#D77688" transform="translate(179,367)"/>
<path d="M0 0 C2.16264785 2.16264785 2.82246387 2.98188578 3 6 C1.1875 8.25 1.1875 8.25 -1 10 C-1.66 10 -2.32 10 -3 10 C-3 10.66 -3 11.32 -3 12 C-3.66 12 -4.32 12 -5 12 C-3.68938409 7.76570244 -2.05643741 3.92592596 0 0 Z " fill="#E07286" transform="translate(132,459)"/>
<path d="M0 0 C1.66285211 3.32570422 -0.01920148 6.68360945 -0.9375 10.125 C-1.13279297 10.87910156 -1.32808594 11.63320313 -1.52929688 12.41015625 C-2.01323358 14.27508306 -2.50580769 16.13776459 -3 18 C-5.1519437 14.77208445 -5.20086443 13.71599191 -5 10 C-4.34 10 -3.68 10 -3 10 C-3.061875 9.278125 -3.12375 8.55625 -3.1875 7.8125 C-2.96476068 4.47141026 -1.8717754 2.72967245 0 0 Z " fill="#D7EAEC" transform="translate(543,382)"/>
<path d="M0 0 C2.625 0.9375 2.625 0.9375 5 2 C5 2.33 5 2.66 5 3 C-4.24 3 -13.48 3 -23 3 C-23 2.67 -23 2.34 -23 2 C-22.37432129 1.97494385 -21.74864258 1.9498877 -21.10400391 1.92407227 C-18.27745381 1.80824727 -15.45124831 1.68546015 -12.625 1.5625 C-11.14773438 1.50352539 -11.14773438 1.50352539 -9.640625 1.44335938 C-8.22910156 1.38051758 -8.22910156 1.38051758 -6.7890625 1.31640625 C-5.91975098 1.27974854 -5.05043945 1.24309082 -4.15478516 1.20532227 C-1.9516738 1.12598456 -1.9516738 1.12598456 0 0 Z " fill="#18424C" transform="translate(442,320)"/>
<path d="M0 0 C0.66 0 1.32 0 2 0 C0.64746536 6.45054982 -1.03060233 12.71105679 -3 19 C-5.13838314 12.58485058 -2.20023436 6.10253682 0 0 Z " fill="#1B434F" transform="translate(736,311)"/>
<path d="M0 0 C2.27608233 3.4141235 2.16488977 4.15710661 1.6875 8.0625 C1.58824219 8.94035156 1.48898437 9.81820313 1.38671875 10.72265625 C1 13 1 13 0 15 C-0.99 15 -1.98 15 -3 15 C-2.01 10.05 -1.02 5.1 0 0 Z " fill="#1E4652" transform="translate(548,363)"/>
<path d="M0 0 C0.99 0.33 1.98 0.66 3 1 C3.99 6.61 4.98 12.22 6 18 C5.34 18 4.68 18 4 18 C2.68 12.06 1.36 6.12 0 0 Z " fill="#E5F4F8" transform="translate(628,318)"/>
<path d="M0 0 C0.33 0.66 0.66 1.32 1 2 C1.804375 2.268125 2.60875 2.53625 3.4375 2.8125 C6 4 6 4 7.3125 6.625 C7.6528125 7.800625 7.6528125 7.800625 8 9 C4.71752159 8.12467243 2.49145848 7.49145848 0.0625 5.0625 C-0.288125 4.381875 -0.63875 3.70125 -1 3 C-0.67 2.01 -0.34 1.02 0 0 Z " fill="#DFF1F4" transform="translate(422,433)"/>
<path d="M0 0 C1.68900014 3.10629156 2.70626667 6.15205051 3.625 9.5625 C3.88539063 10.51253906 4.14578125 11.46257812 4.4140625 12.44140625 C5 15 5 15 5 18 C4.34 18 3.68 18 3 18 C1.14256832 11.88595404 -0.42765417 6.41481258 0 0 Z " fill="#294F5A" transform="translate(523,382)"/>
<path d="M0 0 C0.66 0 1.32 0 2 0 C1.40984815 5.50808397 0.43336231 10.64878069 -1 16 C-1.66 14.68 -2.32 13.36 -3 12 C-2.67 11.67 -2.34 11.34 -2 11 C-1.79224439 9.33795513 -1.63281745 7.66970509 -1.5 6 C-1.11111111 1.11111111 -1.11111111 1.11111111 0 0 Z " fill="#1C4752" transform="translate(587,363)"/>
<path d="M0 0 C0.33 0 0.66 0 1 0 C0.67 3.63 0.34 7.26 0 11 C-1.65 11.33 -3.3 11.66 -5 12 C-3.68938409 7.76570244 -2.05643741 3.92592596 0 0 Z " fill="#DB788B" transform="translate(213,300)"/>
<path d="M0 0 C0.66 0 1.32 0 2 0 C2 1.98 2 3.96 2 6 C2.66 6 3.32 6 4 6 C4 6.66 4 7.32 4 8 C2.02 8 0.04 8 -2 8 C-3 5 -3 5 -1.6875 2.3125 C-1.130625 1.549375 -0.57375 0.78625 0 0 Z " fill="#134353" transform="translate(490,301)"/>
<path d="M0 0 C1.12525742 3.37577225 0.87828528 4.27858292 -0.1875 7.5625 C-0.54908203 8.74005859 -0.54908203 8.74005859 -0.91796875 9.94140625 C-2.2328139 12.44293474 -3.40563017 13.00629727 -6 14 C-4.50829734 9.0276578 -2.39542583 4.58154261 0 0 Z " fill="#DA7589" transform="translate(262,204)"/>
<path d="M0 0 C0.33 0 0.66 0 1 0 C1 1.65 1 3.3 1 5 C0.34 5 -0.32 5 -1 5 C-0.649375 5.763125 -0.29875 6.52625 0.0625 7.3125 C1 10 1 10 0 13 C0 12.34 0 11.68 0 11 C-1.65 11 -3.3 11 -5 11 C-1.85714286 3.57142857 -1.85714286 3.57142857 0 0 Z " fill="#DB6F82" transform="translate(141,442)"/>
<path d="M0 0 C1.32 0.33 2.64 0.66 4 1 C2.35 4.3 0.7 7.6 -1 11 C-1.33 11 -1.66 11 -2 11 C-2.25 3.375 -2.25 3.375 0 0 Z " fill="#E36781" transform="translate(212,448)"/>
<path d="M0 0 C2.56616632 3.84924948 2.55097676 6.4349304 3 11 C2.01 11 1.02 11 0 11 C-1.7578125 5.04296875 -1.7578125 5.04296875 -2 3 C-1.34 2.01 -0.68 1.02 0 0 Z " fill="#E6F5F7" transform="translate(613,429)"/>
<path d="M0 0 C0.66 0 1.32 0 2 0 C0.63408831 3.54243452 -0.90931484 6.92627929 -2.625 10.3125 C-3.07101562 11.19550781 -3.51703125 12.07851563 -3.9765625 12.98828125 C-4.31429688 13.65214844 -4.65203125 14.31601562 -5 15 C-5.33 15 -5.66 15 -6 15 C-6 13.02 -6 11.04 -6 9 C-5.34 8.67 -4.68 8.34 -4 8 C-3.32060826 6.00428677 -2.65438441 4.00405227 -2 2 C-1.34 1.34 -0.68 0.68 0 0 Z " fill="#DB7287" transform="translate(271,336)"/>
<path d="M0 0 C0.66 0 1.32 0 2 0 C0.515 6.435 0.515 6.435 -1 13 C-1.66 13 -2.32 13 -3 13 C-2.88557539 11.39504433 -2.75805306 9.79101881 -2.625 8.1875 C-2.55539062 7.29417969 -2.48578125 6.40085937 -2.4140625 5.48046875 C-2 3 -2 3 0 0 Z " fill="#153F4D" transform="translate(574,417)"/>
<path d="M0 0 C0.66 0.33 1.32 0.66 2 1 C1.67 1.7425 1.34 2.485 1 3.25 C-0.22782871 6.13883312 -0.22782871 6.13883312 0 10 C-1.65 10.66 -3.3 11.32 -5 12 C-3.68938409 7.76570244 -2.05643741 3.92592596 0 0 Z " fill="#FDE8EA" transform="translate(237,406)"/>
<path d="M0 0 C0.66 0.66 1.32 1.32 2 2 C1.69690596 6.09176955 1.12300942 9.46165096 -1 13 C-1.66 13 -2.32 13 -3 13 C-2.01 8.71 -1.02 4.42 0 0 Z " fill="#254C57" transform="translate(660,397)"/>
<path d="M0 0 C0.99 0.66 1.98 1.32 3 2 C2.77139942 3.46184058 2.51629608 4.91955419 2.25 6.375 C2.04117188 7.59316406 2.04117188 7.59316406 1.828125 8.8359375 C1 11 1 11 -3 13 C-2.01 8.71 -1.02 4.42 0 0 Z " fill="#1C4754" transform="translate(563,303)"/>
<path d="M0 0 C1 4 1 4 0.22265625 5.921875 C-0.8515625 7.61458333 -1.92578125 9.30729167 -3 11 C-2.34 11.33 -1.68 11.66 -1 12 C-2.65 12 -4.3 12 -6 12 C-4.02 8.04 -2.04 4.08 0 0 Z " fill="#D67687" transform="translate(126,472)"/>
<path d="M0 0 C3.64566574 2.43044383 3.9977335 3.82388959 5 8 C4.625 10.375 4.625 10.375 4 12 C3.34 12 2.68 12 2 12 C0.86235649 7.73383684 0 4.43513689 0 0 Z " fill="#E5F7FA" transform="translate(651,407)"/>
<path d="M0 0 C0.66 0.33 1.32 0.66 2 1 C1.5020163 4.73487777 1.12508244 6.81237635 -1 10 C-1.70164642 11.98799818 -2.37372872 13.98698517 -3 16 C-4.57159226 12.85681547 -3.04018399 10.07066611 -2.0625 6.875 C-1.86720703 6.21628906 -1.67191406 5.55757813 -1.47070312 4.87890625 C-0.98695014 3.25066448 -0.49430925 1.62506818 0 0 Z " fill="#274D5B" transform="translate(678,332)"/>
<path d="M0 0 C0.33 0 0.66 0 1 0 C0.67 3.3 0.34 6.6 0 10 C0.66 10 1.32 10 2 10 C1.34 11.32 0.68 12.64 0 14 C-0.99 10.04 -1.98 6.08 -3 2 C-2.01 2 -1.02 2 0 2 C0 1.34 0 0.68 0 0 Z " fill="#DDEAED" transform="translate(501,287)"/>
<path d="M0 0 C0.99 0.33 1.98 0.66 3 1 C0.69 5.62 -1.62 10.24 -4 15 C-5.40403242 10.78790273 -3.83701092 8.94617161 -2 5 C-1.32723284 3.3357865 -0.65793165 1.67013418 0 0 Z " fill="#D56C82" transform="translate(351,177)"/>
<path d="M0 0 C0.66 0 1.32 0 2 0 C1.71517632 1.41805831 1.42181856 2.83440379 1.125 4.25 C0.88136719 5.43335938 0.88136719 5.43335938 0.6328125 6.640625 C0 9 0 9 -2 13 C-2 9.37 -2 5.74 -2 2 C-1.34 2 -0.68 2 0 2 C0 1.34 0 0.68 0 0 Z " fill="#174353" transform="translate(692,451)"/>
<path d="M0 0 C0.66 0.33 1.32 0.66 2 1 C1.55170486 2.98146451 1.09107502 4.96014211 0.625 6.9375 C0.36976563 8.03964844 0.11453125 9.14179688 -0.1484375 10.27734375 C-0.42945313 11.17582031 -0.71046875 12.07429688 -1 13 C-1.99 13.495 -1.99 13.495 -3 14 C-2.40380045 9.13103697 -1.43023178 4.67209049 0 0 Z " fill="#15404D" transform="translate(701,422)"/>
<path d="M0 0 C1.4375 1 1.4375 1 3 3 C3.46713886 5.70940538 3.7796881 8.27188247 4 11 C4.18323071 12.66714143 4.3706537 14.33382803 4.5625 16 C4.7088897 17.33327236 4.85492922 18.66658348 5 20 C3.20958752 16.76168874 2.26249761 13.58584892 1.375 10 C1.11460937 8.96875 0.85421875 7.9375 0.5859375 6.875 C0 4 0 4 0 0 Z " fill="#DBEDF1" transform="translate(645,384)"/>
<path d="M0 0 C0.99 0.33 1.98 0.66 3 1 C1.68 3.31 0.36 5.62 -1 8 C-1.99 7.34 -2.98 6.68 -4 6 C-3.6875 4.125 -3.6875 4.125 -3 2 C-2.01 1.34 -1.02 0.68 0 0 Z " fill="#FCEDEF" transform="translate(181,359)"/>
<path d="M0 0 C0.99 0.33 1.98 0.66 3 1 C1.31326082 5.49797113 -0.81673892 9.72886302 -3 14 C-4.04449911 10.86650268 -3.93423645 10.01031744 -3 7 C-2.34 7 -1.68 7 -1 7 C-0.67 4.69 -0.34 2.38 0 0 Z " fill="#DB7C8E" transform="translate(308,261)"/>
<path d="M0 0 C0.66 0 1.32 0 2 0 C2 0.66 2 1.32 2 2 C2.66 2 3.32 2 4 2 C5.03039555 6.53374042 5.17766075 7.64467851 3 12 C2.01 8.04 1.02 4.08 0 0 Z " fill="#E2F1F4" transform="translate(520,370)"/>
<path d="M0 0 C0.99 0.33 1.98 0.66 3 1 C2.49339844 1.90492188 2.49339844 1.90492188 1.9765625 2.828125 C1.53054688 3.62734375 1.08453125 4.4265625 0.625 5.25 C0.18414062 6.03890625 -0.25671875 6.8278125 -0.7109375 7.640625 C-1.85747823 9.73914197 -2.94649552 11.8536077 -4 14 C-3.66009167 8.62007164 -3.31442207 4.46726453 0 0 Z " fill="#E4F2F3" transform="translate(323,310)"/>
<path d="M0 0 C0.66 0.33 1.32 0.66 2 1 C0.02 4.96 -1.96 8.92 -4 13 C-5.2285915 8.085634 -4.21665338 6.43330675 -2 2 C-1.34 1.34 -0.68 0.68 0 0 Z " fill="#FEE5EB" transform="translate(255,215)"/>
<path d="M0 0 C2 3 2 3 2 4.875 C0.44273106 8.18419649 -2.11369949 9.78921663 -5 12 C-3.68938409 7.76570244 -2.05643741 3.92592596 0 0 Z " fill="#FDEDEC" transform="translate(229,422)"/>
<path d="M0 0 C1.10914742 3.32744227 1.03211839 5.64561525 0 9 C-1.4375 10.8125 -1.4375 10.8125 -3 12 C-3.66 12 -4.32 12 -5 12 C-3.68938409 7.76570244 -2.05643741 3.92592596 0 0 Z " fill="#FCDFE4" transform="translate(246,388)"/>
<path d="M0 0 C2.00993705 3.01490557 2.72623341 5.2149927 3.625 8.6875 C3.88539063 9.68136719 4.14578125 10.67523438 4.4140625 11.69921875 C4.60742188 12.45847656 4.80078125 13.21773438 5 14 C4.34 14 3.68 14 3 14 C3 12.68 3 11.36 3 10 C2.34 10 1.68 10 1 10 C-1.125 3.375 -1.125 3.375 0 0 Z " fill="#D6E8EC" transform="translate(471,385)"/>
<path d="M0 0 C0.33 0 0.66 0 1 0 C1 3.3 1 6.6 1 10 C0.01 10.33 -0.98 10.66 -2 11 C-2.33 11.99 -2.66 12.98 -3 14 C-2.28547412 9.23649415 -1.20465156 4.65798604 0 0 Z " fill="#224956" transform="translate(668,368)"/>
<path d="M0 0 C0.99 0.33 1.98 0.66 3 1 C1.35 4.3 -0.3 7.6 -2 11 C-3.04449911 7.86650268 -2.93423645 7.01031744 -2 4 C-2.66 3.67 -3.32 3.34 -4 3 C-3.01 2.67 -2.02 2.34 -1 2 C-0.67 1.34 -0.34 0.68 0 0 Z " fill="#DE6B83" transform="translate(343,193)"/>
<path d="M0 0 C0.66 0 1.32 0 2 0 C2.66 3.3 3.32 6.6 4 10 C2.68 9.67 1.36 9.34 0 9 C0 6.03 0 3.06 0 0 Z " fill="#1E4855" transform="translate(515,356)"/>
<path d="M0 0 C0.33 0 0.66 0 1 0 C1 1.98 1 3.96 1 6 C-0.98 6.99 -0.98 6.99 -3 8 C-3 8.66 -3 9.32 -3 10 C-3.66 9.67 -4.32 9.34 -5 9 C-3.35 6.03 -1.7 3.06 0 0 Z " fill="#DB7789" transform="translate(240,248)"/>
<path d="M0 0 C0.66 0.33 1.32 0.66 2 1 C0.68938409 5.23429756 -0.94356259 9.07407404 -3 13 C-4.31223496 9.06329512 -3.24296256 6.87511856 -2 3 C-1.34 3 -0.68 3 0 3 C0 2.01 0 1.02 0 0 Z " fill="#DB7188" transform="translate(203,468)"/>
<path d="M0 0 C2 4 2 4 1.1875 6.625 C0.45833333 8.08333333 -0.27083333 9.54166667 -1 11 C-1.66 11 -2.32 11 -3 11 C-2.01 7.37 -1.02 3.74 0 0 Z " fill="#CEE0E1" transform="translate(726,349)"/>
<path d="M0 0 C0.99 0 1.98 0 3 0 C2.01 4.62 1.02 9.24 0 14 C-0.33 14 -0.66 14 -1 14 C-1.09764874 9.21521178 -0.77112541 4.72314313 0 0 Z " fill="#E6F8FA" transform="translate(556,320)"/>
<path d="M0 0 C0.66 1.32 1.32 2.64 2 4 C0.7260411 6.03833424 -0.61061923 8.03852126 -2 10 C-2.66 10 -3.32 10 -4 10 C-2.8905928 6.51329166 -1.73662334 3.22515763 0 0 Z " fill="#DD7288" transform="translate(203,320)"/>
<path d="M0 0 C0.66 0.66 1.32 1.32 2 2 C0.35 5.3 -1.3 8.6 -3 12 C-4.07156762 7.71372952 -4.0365854 7.33924618 -2.0625 3.75 C-1.68222656 3.04359375 -1.30195313 2.3371875 -0.91015625 1.609375 C-0.60980469 1.07828125 -0.30945313 0.5471875 0 0 Z " fill="#1F4A57" transform="translate(453,306)"/>
<path d="M0 0 C0.99 0.66 1.98 1.32 3 2 C2.67 3.32 2.34 4.64 2 6 C0.35 6.33 -1.3 6.66 -3 7 C-1.125 2.25 -1.125 2.25 0 0 Z " fill="#15444E" transform="translate(495,291)"/>
<path d="M0 0 C0.75 1.5625 0.75 1.5625 1 4 C-0.13084437 6.50286409 -1.52139516 8.67007722 -3 11 C-3.66 11 -4.32 11 -5 11 C-3.55049545 7.2089881 -1.84827434 3.6125362 0 0 Z " fill="#FEE7EC" transform="translate(301,281)"/>
<path d="M0 0 C1.27350058 3.01009228 0.99687398 4.00781505 -0.25 7.125 C-2 10 -2 10 -5 12 C-3.68938409 7.76570244 -2.05643741 3.92592596 0 0 Z " fill="#FDE1E7" transform="translate(212,455)"/>
<path d="M0 0 C1.90318884 2.85478326 2.4619099 4.41941308 3.125 7.6875 C3.29257812 8.49574219 3.46015625 9.30398438 3.6328125 10.13671875 C3.75398438 10.75160156 3.87515625 11.36648438 4 12 C3.34 12 2.68 12 2 12 C1.47026689 10.37787941 0.95146893 8.75218416 0.4375 7.125 C0.14746094 6.22007812 -0.14257812 5.31515625 -0.44140625 4.3828125 C-1 2 -1 2 0 0 Z " fill="#D4E7EC" transform="translate(486,432)"/>
<path d="M0 0 C4.26086957 6.39130435 4.26086957 6.39130435 3.625 10.3125 C3.41875 10.869375 3.2125 11.42625 3 12 C0.52075165 8.28112748 -0.08484002 5.36460914 -1 1 C-0.67 0.67 -0.34 0.34 0 0 Z " fill="#184151" transform="translate(486,426)"/>
<path d="M0 0 C0.66 0 1.32 0 2 0 C3.90608098 3.21182149 4.22266247 5.53882603 4.125 9.25 C4.10695313 10.14203125 4.08890625 11.0340625 4.0703125 11.953125 C4.03550781 12.96632813 4.03550781 12.96632813 4 14 C3.67 14 3.34 14 3 14 C2.01 9.38 1.02 4.76 0 0 Z " fill="#D8EBED" transform="translate(640,367)"/>
<path d="M0 0 C1.32 0.66 2.64 1.32 4 2 C3.34 4.31 2.68 6.62 2 9 C0.05276405 6.07914607 -0.55175352 4.40667322 -1 1 C-0.67 0.67 -0.34 0.34 0 0 Z " fill="#13434D" transform="translate(465,360)"/>
<path d="M0 0 C1.98 0.99 1.98 0.99 4 2 C4 5.3 4 8.6 4 12 C2.09681116 9.14521674 1.5380901 7.58058692 0.875 4.3125 C0.70742188 3.50425781 0.53984375 2.69601562 0.3671875 1.86328125 C0.24601562 1.24839844 0.12484375 0.63351562 0 0 Z " fill="#E6F6F8" transform="translate(505,314)"/>
<path d="M0 0 C1.88391785 3.26545761 2.49287967 6.28111761 3 10 C2.34 10 1.68 10 1 10 C1 8.68 1 7.36 1 6 C0.34 6 -0.32 6 -1 6 C-1.33 4.35 -1.66 2.7 -2 1 C-1.34 0.67 -0.68 0.34 0 0 Z " fill="#24505C" transform="translate(622,296)"/>
<path d="M0 0 C0.66 0 1.32 0 2 0 C0.84414715 3.91211733 -0.35534962 6.8745041 -3 10 C-3.93065133 7.39417629 -4.14917407 6.35801776 -3.0625 3.75 C-2.711875 3.1725 -2.36125 2.595 -2 2 C-1.34 2 -0.68 2 0 2 C0 1.34 0 0.68 0 0 Z " fill="#FEEDF0" transform="translate(237,249)"/>
<path d="M0 0 C0.66 0.99 1.32 1.98 2 3 C1.34 3.66 0.68 4.32 0 5 C-0.309375 5.845625 -0.61875 6.69125 -0.9375 7.5625 C-1.288125 8.366875 -1.63875 9.17125 -2 10 C-2.99 10.33 -3.98 10.66 -5 11 C-3.55049545 7.2089881 -1.84827434 3.6125362 0 0 Z " fill="#FDE3E9" transform="translate(330,224)"/>
<path d="M0 0 C1.6396875 0.0928125 1.6396875 0.0928125 3.3125 0.1875 C3.3125 1.1775 3.3125 2.1675 3.3125 3.1875 C0.0125 3.1875 -3.2875 3.1875 -6.6875 3.1875 C-3.6875 0.1875 -3.6875 0.1875 0 0 Z " fill="#224C59" transform="translate(453.6875,481.8125)"/>
<path d="M0 0 C0.66 0 1.32 0 2 0 C2.1953125 2.05078125 2.390625 4.1015625 2.5859375 6.15234375 C2.72257813 6.76207031 2.85921875 7.37179687 3 8 C3.66 8.33 4.32 8.66 5 9 C3.125 8.8125 3.125 8.8125 1 8 C-0.3125 5.625 -0.3125 5.625 -1 3 C-0.67 2.01 -0.34 1.02 0 0 Z " fill="#2C5863" transform="translate(650,411)"/>
<path d="M0 0 C0.33 0 0.66 0 1 0 C0.67 3.63 0.34 7.26 0 11 C-0.99 11 -1.98 11 -3 11 C-2.01 7.37 -1.02 3.74 0 0 Z " fill="#D3E7E9" transform="translate(717,378)"/>
<path d="M0 0 C0.99 0 1.98 0 3 0 C2.46930939 3.82097239 1.50298434 6.06171403 -1 9 C-0.67 6.03 -0.34 3.06 0 0 Z " fill="#DD738A" transform="translate(249,376)"/>
<path d="M0 0 C0.66 0 1.32 0 2 0 C1.55149342 1.81495662 1.09090429 3.62693134 0.625 5.4375 C0.24214844 6.95150391 0.24214844 6.95150391 -0.1484375 8.49609375 C-1 11 -1 11 -3 12 C-2.69230293 10.18667846 -2.37870936 8.37435655 -2.0625 6.5625 C-1.80146484 5.04849609 -1.80146484 5.04849609 -1.53515625 3.50390625 C-1 1 -1 1 0 0 Z " fill="#143C48" transform="translate(725,347)"/>
<path d="M0 0 C0.99 0.33 1.98 0.66 3 1 C3.33 5.29 3.66 9.58 4 14 C1.90284215 10.85426323 1.47995441 8.98543749 0.875 5.3125 C0.70742188 4.31863281 0.53984375 3.32476562 0.3671875 2.30078125 C0.24601563 1.54152344 0.12484375 0.78226562 0 0 Z " fill="#D6E9EC" transform="translate(516,354)"/>
<path d="M0 0 C1.65 0 3.3 0 5 0 C3.92598892 2.91517292 3.22189824 4.77810176 1 7 C0 2.25 0 2.25 0 0 Z " fill="#E2EDEF" transform="translate(482,307)"/>
<path d="M0 0 C0.94696598 2.55680815 1.04509772 3.83600828 0.3125 6.5 C-1.11219358 9.21370205 -2.73212969 10.95891672 -5 13 C-3.58192622 8.52761347 -1.88695626 4.28853694 0 0 Z " fill="#D37284" transform="translate(246,235)"/>
<path d="M0 0 C0.33 0 0.66 0 1 0 C1 1.98 1 3.96 1 6 C0.01 6.495 0.01 6.495 -1 7 C-2.13350534 9.01669827 -2.13350534 9.01669827 -3 11 C-3.66 10.67 -4.32 10.34 -5 10 C-3.35 6.7 -1.7 3.4 0 0 Z " fill="#DC7287" transform="translate(252,224)"/>
<path d="M0 0 C0.66 0 1.32 0 2 0 C2.33 2.31 2.66 4.62 3 7 C1.68 6.67 0.36 6.34 -1 6 C-0.67 4.02 -0.34 2.04 0 0 Z " fill="#1B4957" transform="translate(530,412)"/>
<path d="M0 0 C0.66 0 1.32 0 2 0 C0.52307692 7.63076923 0.52307692 7.63076923 -2.125 9.5 C-2.74375 9.665 -3.3625 9.83 -4 10 C-2.8905928 6.51329166 -1.73662334 3.22515763 0 0 Z " fill="#FCE7E9" transform="translate(260,361)"/>
<path d="M0 0 C0.99 0.33 1.98 0.66 3 1 C2.01 2.98 1.02 4.96 0 7 C-0.66 7 -1.32 7 -2 7 C-2.33 5.68 -2.66 4.36 -3 3 C-2.01 2.67 -1.02 2.34 0 2 C0 1.34 0 0.68 0 0 Z " fill="#12414C" transform="translate(460,291)"/>
<path d="M0 0 C1.32 0.33 2.64 0.66 4 1 C4 1.66 4 2.32 4 3 C4.66 3.33 5.32 3.66 6 4 C5.01 5.32 4.02 6.64 3 8 C3 6.68 3 5.36 3 4 C2.01 3.67 1.02 3.34 0 3 C0 2.01 0 1.02 0 0 Z " fill="#DE6678" transform="translate(298,272)"/>
<path d="M0 0 C0.66 0.66 1.32 1.32 2 2 C0.68 4.64 -0.64 7.28 -2 10 C-2.66 10 -3.32 10 -4 10 C-3.67 8.35 -3.34 6.7 -3 5 C-2.34 5 -1.68 5 -1 5 C-0.67 3.35 -0.34 1.7 0 0 Z " fill="#DB778B" transform="translate(358,165)"/>
<path d="M0 0 C0.99 0 1.98 0 3 0 C2.49396008 2.16874252 2.00016187 3.99967627 1 6 C0.01 6 -0.98 6 -2 6 C-1.34 4.02 -0.68 2.04 0 0 Z " fill="#D87080" transform="translate(146,432)"/>
<path d="M0 0 C1.98 0.99 1.98 0.99 4 2 C3.67 3.98 3.34 5.96 3 8 C2.34 8 1.68 8 1 8 C0.67 5.36 0.34 2.72 0 0 Z " fill="#DCEEF4" transform="translate(532,412)"/>
<path d="M0 0 C1.98 0.495 1.98 0.495 4 1 C2.68 3.64 1.36 6.28 0 9 C-0.95904856 5.16380575 -0.91892116 3.67568464 0 0 Z " fill="#DC6B82" transform="translate(261,352)"/>
<path d="M0 0 C0.66 0 1.32 0 2 0 C2.41176754 3.60296594 2.1535853 4.78402067 0 7.8125 C-0.66 8.534375 -1.32 9.25625 -2 10 C-1.54177532 6.53058454 -1.10868317 3.32604951 0 0 Z " fill="#CCE1E5" transform="translate(742,298)"/>
<path d="M0 0 C1.09898702 3.29696105 0.87124444 4.40494903 0.0625 7.6875 C-0.13214844 8.49574219 -0.32679688 9.30398438 -0.52734375 10.13671875 C-0.76130859 11.05904297 -0.76130859 11.05904297 -1 12 C-1.33 12 -1.66 12 -2 12 C-2.05395478 10.37536158 -2.09277195 8.75021459 -2.125 7.125 C-2.14820313 6.22007812 -2.17140625 5.31515625 -2.1953125 4.3828125 C-2 2 -2 2 0 0 Z " fill="#D9EBEF" transform="translate(689,287)"/>
<path d="M0 0 C0.99 0 1.98 0 3 0 C1.25 4.875 1.25 4.875 -1 6 C-1.625 4.125 -1.625 4.125 -2 2 C-1.34 1.34 -0.68 0.68 0 0 Z " fill="#E16A81" transform="translate(310,257)"/>
<path d="M0 0 C0.66 0.33 1.32 0.66 2 1 C0.8141763 4.37503669 -0.27573689 6.64722731 -3 9 C-3 5.30581799 -1.71820705 3.22163822 0 0 Z " fill="#FBE2E7" transform="translate(202,475)"/>
<path d="M0 0 C0.66 0.33 1.32 0.66 2 1 C2 2.32 2 3.64 2 5 C-0.5 6.75 -0.5 6.75 -3 8 C-1.125 2.25 -1.125 2.25 0 0 Z " fill="#FCEAED" transform="translate(206,467)"/>
<path d="M0 0 C0.66 0 1.32 0 2 0 C1.34 3.3 0.68 6.6 0 10 C-0.66 10 -1.32 10 -2 10 C-1.85950482 8.52031676 -1.71245174 7.04125484 -1.5625 5.5625 C-1.48128906 4.73878906 -1.40007813 3.91507812 -1.31640625 3.06640625 C-1 1 -1 1 0 0 Z " fill="#19424D" transform="translate(564,456)"/>
<path d="M0 0 C1.32 0 2.64 0 4 0 C3.67 2.97 3.34 5.94 3 9 C1.35649921 5.71299843 0.58678331 3.52069985 0 0 Z " fill="#1F4856" transform="translate(617,441)"/>
<path d="M0 0 C2.12508244 3.18762365 2.5020163 5.26512223 3 9 C2.01 9.495 2.01 9.495 1 10 C-0.60725635 6.78548731 -0.05748185 3.56387464 0 0 Z " fill="#1D4954" transform="translate(417,423)"/>
<path d="M0 0 C0.66 0.99 1.32 1.98 2 3 C1.06400328 7.16943993 0.62383901 8.58410733 -3 11 C-2.01 7.37 -1.02 3.74 0 0 Z " fill="#CBE1E5" transform="translate(739,308)"/>
<path d="M0 0 C1.32 0 2.64 0 4 0 C2.79618552 2.49361571 1.54571278 4.68143083 0 7 C0 4.69 0 2.38 0 0 Z " fill="#0D4050" transform="translate(337,287)"/>
<path d="M0 0 C0.66 1.32 1.32 2.64 2 4 C0.68 5.65 -0.64 7.3 -2 9 C-3 6 -3 6 -1.5625 2.8125 C-1.046875 1.884375 -0.53125 0.95625 0 0 Z " fill="#FBE1EB" transform="translate(323,237)"/>
<path d="M0 0 C1.32 0.66 2.64 1.32 4 2 C3.01 2.495 3.01 2.495 2 3 C1.27840576 4.64363134 0.60648579 6.31050386 0 8 C-0.33 8 -0.66 8 -1 8 C-1.125 2.25 -1.125 2.25 0 0 Z " fill="#FCF2F1" transform="translate(361,163)"/>
<path d="M0 0 C0.66 0.33 1.32 0.66 2 1 C0.68 3.64 -0.64 6.28 -2 9 C-2.33 9 -2.66 9 -3 9 C-3.36923077 3.46153846 -3.36923077 3.46153846 -1.5 1.125 C-1.005 0.75375 -0.51 0.3825 0 0 Z " fill="#D97285" transform="translate(287,305)"/>
</svg>
