<?xml version="1.0" encoding="UTF-8"?>
<svg version="1.1" xmlns="http://www.w3.org/2000/svg" width="512" height="512">
<path d="M0 0 C5.6047905 4.23366149 9.29313961 10.11831257 10.45993042 17.07199097 C11.26734173 24.09636573 10.59272284 29.80832915 8.8359375 36.62109375 C8.5693634 37.71344833 8.30278931 38.80580292 8.02813721 39.93125916 C7.2398643 43.14202564 6.43481436 46.34783982 5.62374878 49.55287933 C4.60663484 53.5907824 3.61118517 57.6340662 2.61132812 61.67626953 C-0.03292763 72.34539232 -2.71035156 83.00610601 -5.38946152 93.66651917 C-7.82589795 103.36625379 -10.25426275 113.06801516 -12.68359375 122.76953125 C-12.95304117 123.84527782 -13.22248859 124.9210244 -13.50010109 126.02936935 C-18.05933 144.2340637 -22.57401278 162.44934163 -27.05352783 180.67379761 C-29.74231318 191.61214889 -32.44036758 202.54822343 -35.13786316 213.48442936 C-36.1817946 217.71677898 -37.22523981 221.94924773 -38.26800537 226.18188477 C-40.89592489 236.84708228 -43.53008153 247.51069733 -46.17702007 258.17119217 C-47.35060773 262.89844105 -48.52140781 267.62633585 -49.68490601 272.3560791 C-50.7708466 276.77015656 -51.86469556 281.18219979 -52.96450233 285.5928421 C-53.36767791 287.21550991 -53.768033 288.83888161 -54.16530418 290.46300507 C-60.29502622 315.49980585 -60.29502622 315.49980585 -70.796875 323.1015625 C-77.85364449 327.31139494 -84.87566595 327.43062154 -92.9296875 326.75 C-101.24536231 324.48656189 -107.5888326 319.33421733 -111.890625 311.91015625 C-117.57780866 300.08680074 -113.59558782 287.3822819 -110.52172852 275.33935547 C-110.16584146 273.91942908 -109.81068949 272.49931828 -109.45620728 271.07904053 C-108.49340073 267.23006907 -107.5204865 263.38371702 -106.54582715 259.5377326 C-105.50570801 255.42548506 -104.47543126 251.31077222 -103.44407654 247.19631958 C-101.4710424 239.33112423 -99.48986891 231.46800409 -97.50550073 223.60566151 C-95.10646149 214.09927483 -92.71573033 204.59080482 -90.32617188 195.08203125 C-90.1140646 194.23800613 -89.90195733 193.39398101 -89.68342257 192.52437937 C-88.82615548 189.11302058 -87.968911 185.70165612 -87.1118052 182.2902568 C-86.03965793 178.02309647 -84.96710293 173.75603939 -83.89366913 169.4892025 C-76.45296476 139.91247707 -69.11792517 110.31054166 -61.83856678 80.69372654 C-61.66869774 80.00260718 -61.49882871 79.31148781 -61.32381213 78.59942544 C-60.98734399 77.23045031 -60.65090376 75.86146833 -60.31449258 74.49247921 C-56.03103227 57.06441116 -51.67848883 39.65365023 -47.3125 22.24609375 C-47.11510066 21.45424557 -46.91770132 20.66239738 -46.71432018 19.8465538 C-44.08706861 9.47083544 -39.27414478 2.24998509 -30.0234375 -3.41796875 C-19.9091519 -7.98225441 -8.94199575 -5.79238591 0 0 Z " fill="#000000" transform="translate(315.9296875,95.25)"/>
<path d="M0 0 C7.77389429 5.39481457 12.5963838 11.22464961 14.51953125 20.5078125 C15.89406215 30.38630932 13.04766512 37.55688716 7.17578125 45.453125 C4.97294193 48.031673 2.73257487 49.97863706 0.0625 52.0625 C-4.29600491 55.55046465 -8.43030653 59.18047031 -12.5 63 C-17.23815599 67.43884542 -22.12124077 71.59146062 -27.1875 75.65625 C-30.98164129 78.81803441 -34.56283765 82.18545364 -38.16625977 85.56079102 C-41.491548 88.65780084 -44.88719939 91.59621684 -48.4375 94.4375 C-53.5039481 98.50252717 -58.24666335 102.85160866 -62.96655273 107.30834961 C-66.87780331 110.99600237 -70.88961495 114.53564339 -75 118 C-73.28796731 121.7146331 -71.44436197 123.48225019 -68.1875 126 C-63.77863335 129.50404042 -59.60326136 133.14414386 -55.5 137 C-51.60490841 140.64953769 -47.66658017 144.15704614 -43.5 147.5 C-38.73891522 151.31994011 -34.28726975 155.38938819 -29.8359375 159.55859375 C-26.48883131 162.67568554 -23.06985859 165.63581113 -19.5 168.5 C-14.6824305 172.3681215 -10.14483515 176.46965995 -5.64038086 180.69262695 C-2.68664875 183.45994772 0.31004008 186.11510453 3.4375 188.6875 C9.52279222 193.98800824 14.28781083 200.80982454 15 209 C15.20784876 217.62572346 13.14754384 225.20246795 7.4296875 231.81640625 C1.3564961 237.45176292 -5.16649711 240.20842528 -13.4375 240.5 C-25.27206609 240.04588293 -31.71821194 235.03415984 -40 227 C-41.24095281 225.88567503 -42.49051753 224.78083798 -43.75 223.6875 C-44.38808594 223.130625 -45.02617188 222.57375 -45.68359375 222 C-47.52477237 220.41031458 -49.37149453 218.82800444 -51.22265625 217.25 C-56.78122479 212.50920677 -62.30937974 207.75913783 -67.6875 202.8125 C-71.16136309 199.62263156 -74.69910025 196.57951106 -78.375 193.625 C-83.81386605 189.23655873 -88.90728904 184.53553588 -94.015625 179.7734375 C-98.64558998 175.45771049 -103.43416182 171.33695457 -108.24609375 167.2265625 C-109.45583177 166.1928284 -110.66546433 165.15897086 -111.875 164.125 C-112.48158447 163.60655518 -113.08816895 163.08811035 -113.71313477 162.55395508 C-118.12072074 158.77729252 -122.45667719 154.92942531 -126.75390625 151.02734375 C-128.91772004 149.0742666 -131.10899094 147.15806651 -133.3125 145.25 C-140.75009268 138.75520076 -147.378979 132.95220916 -148.30078125 122.6328125 C-148.34080241 110.653144 -146.6428997 105.09492532 -138.375 96.36328125 C-135.05239267 93.05706836 -131.59559671 90.00429426 -128 87 C-125.72444225 85.0680182 -123.45572304 83.12808406 -121.1875 81.1875 C-120.58164063 80.67034424 -119.97578125 80.15318848 -119.3515625 79.62036133 C-115.609641 76.41564143 -111.93910907 73.14814903 -108.3125 69.8125 C-104.83863691 66.62263156 -101.30089975 63.57951106 -97.625 60.625 C-92.8285929 56.75781137 -88.3295854 52.65019284 -83.83642578 48.44189453 C-79.64688433 44.5401747 -75.27836175 40.92682513 -70.8125 37.34375 C-67.60150066 34.66791722 -64.54972364 31.85640293 -61.5 29 C-56.74205811 24.54401652 -51.84803236 20.36102074 -46.75 16.29296875 C-44.21939057 14.18292935 -41.84715337 11.98646015 -39.46899414 9.71069336 C-28.22684575 -1.01173193 -15.04887187 -7.13914855 0 0 Z " fill="#000000" transform="translate(148,145)"/>
<path d="M0 0 C4.99805982 3.59590219 9.48634099 7.82602033 14 12 C15.72759341 13.56423931 17.45658897 15.1269326 19.1875 16.6875 C20.37472656 17.76644531 20.37472656 17.76644531 21.5859375 18.8671875 C24.10525926 21.09299604 26.69272251 23.2061083 29.3125 25.3125 C34.12665588 29.20320708 38.64924334 33.33000466 43.16333008 37.55786133 C46.51064243 40.67524726 49.92986788 43.63559167 53.5 46.5 C58.26188842 50.3205849 62.71435594 54.39067803 67.16625977 58.56079102 C70.491548 61.65780084 73.88719939 64.59621684 77.4375 67.4375 C82.45497156 71.46170208 87.12118592 75.78327337 91.79516602 80.1940918 C95.37078252 83.54841447 99.02887159 86.70292874 102.875 89.75 C109.87540729 95.39782122 117.41667144 101.71523836 119 111 C119.9435724 121.08069756 118.8382105 128.24268425 113.25 136.625 C110.04233572 140.01086786 106.55702731 142.98724735 103 146 C100.72684253 147.93478398 98.45669687 149.87307307 96.1875 151.8125 C95.58204346 152.32925293 94.97658691 152.84600586 94.3527832 153.37841797 C90.61060502 156.58371619 86.93953173 159.85146222 83.3125 163.1875 C79.83863691 166.37736844 76.30089975 169.42048894 72.625 172.375 C67.8285929 176.24218863 63.3295854 180.34980716 58.83642578 184.55810547 C54.64688433 188.4598253 50.27836175 192.07317487 45.8125 195.65625 C42.01835871 198.81803441 38.43716235 202.18545364 34.83374023 205.56079102 C30.66987812 209.43880729 26.32910728 213.02627436 21.8828125 216.578125 C19.06657409 218.94407055 16.41198505 221.41588182 13.75317383 223.9543457 C3.62190565 233.62516362 -4.31395904 239.42208776 -18.67578125 239.27734375 C-26.32044918 238.63953949 -32.99986918 234.78373341 -38 229 C-42.92494282 221.74017497 -44.94526538 214.07670603 -43.58984375 205.36328125 C-39.77106896 190.43118582 -25.2643151 180.53183421 -13.8125 171.34375 C-10.60150195 168.66791829 -7.54970863 165.85641724 -4.5 163 C0.23866464 158.56167326 5.12119326 154.4085775 10.1875 150.34375 C13.39850319 147.66791401 16.45023131 144.85635999 19.5 142 C24.31412808 137.49261282 29.26598317 133.24523819 34.41015625 129.11328125 C38.38639834 125.86871569 42.1977684 122.44547901 46 119 C44.45427224 115.18371168 42.11228755 113.02974257 39.0625 110.3125 C38.57305908 109.87462158 38.08361816 109.43674316 37.5793457 108.9855957 C34.35551881 106.12519141 31.04646323 103.38862474 27.6875 100.6875 C22.63163433 96.61251555 17.91812777 92.24768006 13.19433594 87.79980469 C8.87808563 83.75760202 4.39514634 80.004192 -0.22265625 76.30859375 C-3.42443448 73.64720003 -6.46227449 70.84530653 -9.5 68 C-15.12815833 62.73087363 -20.99750949 57.83950797 -27 53 C-35.38330087 46.18856805 -42.23693985 39.30043931 -43.75 28.25 C-44.43663776 19.67974349 -42.38306626 12.72540848 -37 6 C-27.06348931 -5.04302636 -12.97872542 -7.01149534 0 0 Z " fill="#000000" transform="translate(393,146)"/>
</svg>
